G04 #@! TF.GenerationSoftware,KiCad,Pcbnew,(5.1.2)-2*
G04 #@! TF.CreationDate,2020-02-28T11:58:50-10:00*
G04 #@! TF.ProjectId,Esp32PrinterController,45737033-3250-4726-996e-746572436f6e,rev?*
G04 #@! TF.SameCoordinates,Original*
G04 #@! TF.FileFunction,Legend,Top*
G04 #@! TF.FilePolarity,Positive*
%FSLAX46Y46*%
G04 Gerber Fmt 4.6, Leading zero omitted, Abs format (unit mm)*
G04 Created by KiCad (PCBNEW (5.1.2)-2) date 2020-02-28 11:58:50*
%MOMM*%
%LPD*%
G04 APERTURE LIST*
%ADD10C,0.150000*%
%ADD11C,0.120000*%
%ADD12C,0.127000*%
%ADD13C,0.050000*%
G04 APERTURE END LIST*
D10*
X41005214Y-107005380D02*
X40671880Y-106529190D01*
X40433785Y-107005380D02*
X40433785Y-106005380D01*
X40814738Y-106005380D01*
X40909976Y-106053000D01*
X40957595Y-106100619D01*
X41005214Y-106195857D01*
X41005214Y-106338714D01*
X40957595Y-106433952D01*
X40909976Y-106481571D01*
X40814738Y-106529190D01*
X40433785Y-106529190D01*
X41433785Y-106481571D02*
X41767119Y-106481571D01*
X41909976Y-107005380D02*
X41433785Y-107005380D01*
X41433785Y-106005380D01*
X41909976Y-106005380D01*
X42338547Y-107005380D02*
X42338547Y-106005380D01*
X42671880Y-106719666D01*
X43005214Y-106005380D01*
X43005214Y-107005380D01*
X51506547Y-125214071D02*
X51649404Y-125261690D01*
X51697023Y-125309309D01*
X51744642Y-125404547D01*
X51744642Y-125547404D01*
X51697023Y-125642642D01*
X51649404Y-125690261D01*
X51554166Y-125737880D01*
X51173214Y-125737880D01*
X51173214Y-124737880D01*
X51506547Y-124737880D01*
X51601785Y-124785500D01*
X51649404Y-124833119D01*
X51697023Y-124928357D01*
X51697023Y-125023595D01*
X51649404Y-125118833D01*
X51601785Y-125166452D01*
X51506547Y-125214071D01*
X51173214Y-125214071D01*
X52173214Y-125214071D02*
X52506547Y-125214071D01*
X52649404Y-125737880D02*
X52173214Y-125737880D01*
X52173214Y-124737880D01*
X52649404Y-124737880D01*
X53077976Y-125737880D02*
X53077976Y-124737880D01*
X53316071Y-124737880D01*
X53458928Y-124785500D01*
X53554166Y-124880738D01*
X53601785Y-124975976D01*
X53649404Y-125166452D01*
X53649404Y-125309309D01*
X53601785Y-125499785D01*
X53554166Y-125595023D01*
X53458928Y-125690261D01*
X53316071Y-125737880D01*
X53077976Y-125737880D01*
X138414380Y-115704928D02*
X139176285Y-115704928D01*
X139557238Y-115085880D02*
X140223904Y-116085880D01*
X140223904Y-115085880D02*
X139557238Y-116085880D01*
X140604857Y-116085880D02*
X140604857Y-115085880D01*
X140938190Y-115800166D01*
X141271523Y-115085880D01*
X141271523Y-116085880D01*
X141747714Y-115704928D02*
X142509619Y-115704928D01*
X142128666Y-116085880D02*
X142128666Y-115323976D01*
X149066500Y-115768428D02*
X149828404Y-115768428D01*
X150495071Y-115673190D02*
X150495071Y-116149380D01*
X150161738Y-115149380D02*
X150495071Y-115673190D01*
X150828404Y-115149380D01*
X151161738Y-116149380D02*
X151161738Y-115149380D01*
X151495071Y-115863666D01*
X151828404Y-115149380D01*
X151828404Y-116149380D01*
X152304595Y-115768428D02*
X153066500Y-115768428D01*
X152685547Y-116149380D02*
X152685547Y-115387476D01*
X159623380Y-115704928D02*
X160385285Y-115704928D01*
X160766238Y-115085880D02*
X161432904Y-115085880D01*
X160766238Y-116085880D01*
X161432904Y-116085880D01*
X161813857Y-116085880D02*
X161813857Y-115085880D01*
X162147190Y-115800166D01*
X162480523Y-115085880D01*
X162480523Y-116085880D01*
X162956714Y-115704928D02*
X163718619Y-115704928D01*
X163337666Y-116085880D02*
X163337666Y-115323976D01*
X128143238Y-115704928D02*
X128905142Y-115704928D01*
X129381333Y-116085880D02*
X129381333Y-115085880D01*
X129952761Y-116085880D01*
X129952761Y-115085880D01*
X130286095Y-115085880D02*
X130857523Y-115085880D01*
X130571809Y-116085880D02*
X130571809Y-115085880D01*
X131190857Y-115704928D02*
X131952761Y-115704928D01*
X131571809Y-116085880D02*
X131571809Y-115323976D01*
X118515047Y-115641428D02*
X119276952Y-115641428D01*
X120086476Y-115498571D02*
X120229333Y-115546190D01*
X120276952Y-115593809D01*
X120324571Y-115689047D01*
X120324571Y-115831904D01*
X120276952Y-115927142D01*
X120229333Y-115974761D01*
X120134095Y-116022380D01*
X119753142Y-116022380D01*
X119753142Y-115022380D01*
X120086476Y-115022380D01*
X120181714Y-115070000D01*
X120229333Y-115117619D01*
X120276952Y-115212857D01*
X120276952Y-115308095D01*
X120229333Y-115403333D01*
X120181714Y-115450952D01*
X120086476Y-115498571D01*
X119753142Y-115498571D01*
X120610285Y-115022380D02*
X121181714Y-115022380D01*
X120896000Y-116022380D02*
X120896000Y-115022380D01*
X121515047Y-115641428D02*
X122276952Y-115641428D01*
X121896000Y-116022380D02*
X121896000Y-115260476D01*
X87693857Y-115704928D02*
X88455761Y-115704928D01*
X89265285Y-115562071D02*
X88931952Y-115562071D01*
X88931952Y-116085880D02*
X88931952Y-115085880D01*
X89408142Y-115085880D01*
X89741476Y-115800166D02*
X90217666Y-115800166D01*
X89646238Y-116085880D02*
X89979571Y-115085880D01*
X90312904Y-116085880D01*
X90646238Y-116085880D02*
X90646238Y-115085880D01*
X91217666Y-116085880D01*
X91217666Y-115085880D01*
X91598619Y-115085880D02*
X92217666Y-115085880D01*
X91884333Y-115466833D01*
X92027190Y-115466833D01*
X92122428Y-115514452D01*
X92170047Y-115562071D01*
X92217666Y-115657309D01*
X92217666Y-115895404D01*
X92170047Y-115990642D01*
X92122428Y-116038261D01*
X92027190Y-116085880D01*
X91741476Y-116085880D01*
X91646238Y-116038261D01*
X91598619Y-115990642D01*
X92646238Y-115704928D02*
X93408142Y-115704928D01*
X93027190Y-116085880D02*
X93027190Y-115323976D01*
X107886857Y-115641428D02*
X108648761Y-115641428D01*
X109458285Y-115498571D02*
X109124952Y-115498571D01*
X109124952Y-116022380D02*
X109124952Y-115022380D01*
X109601142Y-115022380D01*
X109934476Y-115736666D02*
X110410666Y-115736666D01*
X109839238Y-116022380D02*
X110172571Y-115022380D01*
X110505904Y-116022380D01*
X110839238Y-116022380D02*
X110839238Y-115022380D01*
X111410666Y-116022380D01*
X111410666Y-115022380D01*
X112410666Y-116022380D02*
X111839238Y-116022380D01*
X112124952Y-116022380D02*
X112124952Y-115022380D01*
X112029714Y-115165238D01*
X111934476Y-115260476D01*
X111839238Y-115308095D01*
X112839238Y-115641428D02*
X113601142Y-115641428D01*
X113220190Y-116022380D02*
X113220190Y-115260476D01*
X97790357Y-115577928D02*
X98552261Y-115577928D01*
X99361785Y-115435071D02*
X99028452Y-115435071D01*
X99028452Y-115958880D02*
X99028452Y-114958880D01*
X99504642Y-114958880D01*
X99837976Y-115673166D02*
X100314166Y-115673166D01*
X99742738Y-115958880D02*
X100076071Y-114958880D01*
X100409404Y-115958880D01*
X100742738Y-115958880D02*
X100742738Y-114958880D01*
X101314166Y-115958880D01*
X101314166Y-114958880D01*
X101742738Y-115054119D02*
X101790357Y-115006500D01*
X101885595Y-114958880D01*
X102123690Y-114958880D01*
X102218928Y-115006500D01*
X102266547Y-115054119D01*
X102314166Y-115149357D01*
X102314166Y-115244595D01*
X102266547Y-115387452D01*
X101695119Y-115958880D01*
X102314166Y-115958880D01*
X102742738Y-115577928D02*
X103504642Y-115577928D01*
X103123690Y-115958880D02*
X103123690Y-115196976D01*
X77486190Y-115577928D02*
X78248095Y-115577928D01*
X78724285Y-115958880D02*
X78724285Y-114958880D01*
X79295714Y-115958880D01*
X79295714Y-114958880D01*
X79962380Y-114958880D02*
X80152857Y-114958880D01*
X80248095Y-115006500D01*
X80343333Y-115101738D01*
X80390952Y-115292214D01*
X80390952Y-115625547D01*
X80343333Y-115816023D01*
X80248095Y-115911261D01*
X80152857Y-115958880D01*
X79962380Y-115958880D01*
X79867142Y-115911261D01*
X79771904Y-115816023D01*
X79724285Y-115625547D01*
X79724285Y-115292214D01*
X79771904Y-115101738D01*
X79867142Y-115006500D01*
X79962380Y-114958880D01*
X80724285Y-114958880D02*
X81390952Y-114958880D01*
X80724285Y-115958880D01*
X81390952Y-115958880D01*
X81771904Y-115577928D02*
X82533809Y-115577928D01*
X82152857Y-115958880D02*
X82152857Y-115196976D01*
X67143619Y-115514428D02*
X67905523Y-115514428D01*
X68715047Y-115371571D02*
X68857904Y-115419190D01*
X68905523Y-115466809D01*
X68953142Y-115562047D01*
X68953142Y-115704904D01*
X68905523Y-115800142D01*
X68857904Y-115847761D01*
X68762666Y-115895380D01*
X68381714Y-115895380D01*
X68381714Y-114895380D01*
X68715047Y-114895380D01*
X68810285Y-114943000D01*
X68857904Y-114990619D01*
X68905523Y-115085857D01*
X68905523Y-115181095D01*
X68857904Y-115276333D01*
X68810285Y-115323952D01*
X68715047Y-115371571D01*
X68381714Y-115371571D01*
X69381714Y-115371571D02*
X69715047Y-115371571D01*
X69857904Y-115895380D02*
X69381714Y-115895380D01*
X69381714Y-114895380D01*
X69857904Y-114895380D01*
X70286476Y-115895380D02*
X70286476Y-114895380D01*
X70524571Y-114895380D01*
X70667428Y-114943000D01*
X70762666Y-115038238D01*
X70810285Y-115133476D01*
X70857904Y-115323952D01*
X70857904Y-115466809D01*
X70810285Y-115657285D01*
X70762666Y-115752523D01*
X70667428Y-115847761D01*
X70524571Y-115895380D01*
X70286476Y-115895380D01*
X71286476Y-115514428D02*
X72048380Y-115514428D01*
X71667428Y-115895380D02*
X71667428Y-115133476D01*
D11*
X70464159Y-118370679D02*
G75*
G02X74451000Y-118386500I1986841J-1665821D01*
G01*
X65384159Y-118370679D02*
G75*
G02X69371000Y-118386500I1986841J-1665821D01*
G01*
X74991000Y-125496500D02*
X74991000Y-116649500D01*
X74991000Y-116676500D02*
X64831000Y-116676500D01*
X64831000Y-116676500D02*
X64831000Y-125412500D01*
X64831000Y-125496500D02*
X74991000Y-125496500D01*
X74991000Y-124686500D02*
X73561000Y-124686500D01*
X64831000Y-124686500D02*
X66261000Y-124686500D01*
X71451000Y-124686500D02*
X68371000Y-124686500D01*
X73451000Y-123686500D02*
X73451000Y-125496500D01*
X73451000Y-125496500D02*
X71451000Y-125496500D01*
X71451000Y-125496500D02*
X71451000Y-123686500D01*
X71451000Y-123686500D02*
X73451000Y-123686500D01*
X68371000Y-123686500D02*
X68371000Y-125496500D01*
X68371000Y-125496500D02*
X66371000Y-125496500D01*
X66371000Y-125496500D02*
X66371000Y-123686500D01*
X66371000Y-123686500D02*
X68371000Y-123686500D01*
X70451000Y-118386500D02*
X69371000Y-118386500D01*
X74451000Y-118386500D02*
X74991000Y-118386500D01*
X74991000Y-118386500D02*
X74991000Y-123686500D01*
X74991000Y-123686500D02*
X64831000Y-123686500D01*
X64831000Y-118386500D02*
X65371000Y-118386500D01*
X72151000Y-126296500D02*
X72451000Y-125696500D01*
X72451000Y-125696500D02*
X72751000Y-126296500D01*
X72751000Y-126296500D02*
X72151000Y-126296500D01*
X29851679Y-93998341D02*
G75*
G02X29867500Y-90011500I1665821J1986841D01*
G01*
X29851679Y-99078341D02*
G75*
G02X29867500Y-95091500I1665821J1986841D01*
G01*
X36977500Y-89471500D02*
X28130500Y-89471500D01*
X28157500Y-89471500D02*
X28157500Y-99631500D01*
X28157500Y-99631500D02*
X36893500Y-99631500D01*
X36977500Y-99631500D02*
X36977500Y-89471500D01*
X36167500Y-89471500D02*
X36167500Y-90901500D01*
X36167500Y-99631500D02*
X36167500Y-98201500D01*
X36167500Y-93011500D02*
X36167500Y-96091500D01*
X35167500Y-91011500D02*
X36977500Y-91011500D01*
X36977500Y-91011500D02*
X36977500Y-93011500D01*
X36977500Y-93011500D02*
X35167500Y-93011500D01*
X35167500Y-93011500D02*
X35167500Y-91011500D01*
X35167500Y-96091500D02*
X36977500Y-96091500D01*
X36977500Y-96091500D02*
X36977500Y-98091500D01*
X36977500Y-98091500D02*
X35167500Y-98091500D01*
X35167500Y-98091500D02*
X35167500Y-96091500D01*
X29867500Y-94011500D02*
X29867500Y-95091500D01*
X29867500Y-90011500D02*
X29867500Y-89471500D01*
X29867500Y-89471500D02*
X35167500Y-89471500D01*
X35167500Y-89471500D02*
X35167500Y-99631500D01*
X29867500Y-99631500D02*
X29867500Y-99091500D01*
X37777500Y-92311500D02*
X37177500Y-92011500D01*
X37177500Y-92011500D02*
X37777500Y-91711500D01*
X37777500Y-91711500D02*
X37777500Y-92311500D01*
X121264159Y-118370679D02*
G75*
G02X125251000Y-118386500I1986841J-1665821D01*
G01*
X116184159Y-118370679D02*
G75*
G02X120171000Y-118386500I1986841J-1665821D01*
G01*
X125791000Y-125496500D02*
X125791000Y-116649500D01*
X125791000Y-116676500D02*
X115631000Y-116676500D01*
X115631000Y-116676500D02*
X115631000Y-125412500D01*
X115631000Y-125496500D02*
X125791000Y-125496500D01*
X125791000Y-124686500D02*
X124361000Y-124686500D01*
X115631000Y-124686500D02*
X117061000Y-124686500D01*
X122251000Y-124686500D02*
X119171000Y-124686500D01*
X124251000Y-123686500D02*
X124251000Y-125496500D01*
X124251000Y-125496500D02*
X122251000Y-125496500D01*
X122251000Y-125496500D02*
X122251000Y-123686500D01*
X122251000Y-123686500D02*
X124251000Y-123686500D01*
X119171000Y-123686500D02*
X119171000Y-125496500D01*
X119171000Y-125496500D02*
X117171000Y-125496500D01*
X117171000Y-125496500D02*
X117171000Y-123686500D01*
X117171000Y-123686500D02*
X119171000Y-123686500D01*
X121251000Y-118386500D02*
X120171000Y-118386500D01*
X125251000Y-118386500D02*
X125791000Y-118386500D01*
X125791000Y-118386500D02*
X125791000Y-123686500D01*
X125791000Y-123686500D02*
X115631000Y-123686500D01*
X115631000Y-118386500D02*
X116171000Y-118386500D01*
X122951000Y-126296500D02*
X123251000Y-125696500D01*
X123251000Y-125696500D02*
X123551000Y-126296500D01*
X123551000Y-126296500D02*
X122951000Y-126296500D01*
X131424159Y-118370679D02*
G75*
G02X135411000Y-118386500I1986841J-1665821D01*
G01*
X126344159Y-118370679D02*
G75*
G02X130331000Y-118386500I1986841J-1665821D01*
G01*
X135951000Y-125496500D02*
X135951000Y-116649500D01*
X135951000Y-116676500D02*
X125791000Y-116676500D01*
X125791000Y-116676500D02*
X125791000Y-125412500D01*
X125791000Y-125496500D02*
X135951000Y-125496500D01*
X135951000Y-124686500D02*
X134521000Y-124686500D01*
X125791000Y-124686500D02*
X127221000Y-124686500D01*
X132411000Y-124686500D02*
X129331000Y-124686500D01*
X134411000Y-123686500D02*
X134411000Y-125496500D01*
X134411000Y-125496500D02*
X132411000Y-125496500D01*
X132411000Y-125496500D02*
X132411000Y-123686500D01*
X132411000Y-123686500D02*
X134411000Y-123686500D01*
X129331000Y-123686500D02*
X129331000Y-125496500D01*
X129331000Y-125496500D02*
X127331000Y-125496500D01*
X127331000Y-125496500D02*
X127331000Y-123686500D01*
X127331000Y-123686500D02*
X129331000Y-123686500D01*
X131411000Y-118386500D02*
X130331000Y-118386500D01*
X135411000Y-118386500D02*
X135951000Y-118386500D01*
X135951000Y-118386500D02*
X135951000Y-123686500D01*
X135951000Y-123686500D02*
X125791000Y-123686500D01*
X125791000Y-118386500D02*
X126331000Y-118386500D01*
X133111000Y-126296500D02*
X133411000Y-125696500D01*
X133411000Y-125696500D02*
X133711000Y-126296500D01*
X133711000Y-126296500D02*
X133111000Y-126296500D01*
X141584159Y-118370679D02*
G75*
G02X145571000Y-118386500I1986841J-1665821D01*
G01*
X136504159Y-118370679D02*
G75*
G02X140491000Y-118386500I1986841J-1665821D01*
G01*
X146111000Y-125496500D02*
X146111000Y-116649500D01*
X146111000Y-116676500D02*
X135951000Y-116676500D01*
X135951000Y-116676500D02*
X135951000Y-125412500D01*
X135951000Y-125496500D02*
X146111000Y-125496500D01*
X146111000Y-124686500D02*
X144681000Y-124686500D01*
X135951000Y-124686500D02*
X137381000Y-124686500D01*
X142571000Y-124686500D02*
X139491000Y-124686500D01*
X144571000Y-123686500D02*
X144571000Y-125496500D01*
X144571000Y-125496500D02*
X142571000Y-125496500D01*
X142571000Y-125496500D02*
X142571000Y-123686500D01*
X142571000Y-123686500D02*
X144571000Y-123686500D01*
X139491000Y-123686500D02*
X139491000Y-125496500D01*
X139491000Y-125496500D02*
X137491000Y-125496500D01*
X137491000Y-125496500D02*
X137491000Y-123686500D01*
X137491000Y-123686500D02*
X139491000Y-123686500D01*
X141571000Y-118386500D02*
X140491000Y-118386500D01*
X145571000Y-118386500D02*
X146111000Y-118386500D01*
X146111000Y-118386500D02*
X146111000Y-123686500D01*
X146111000Y-123686500D02*
X135951000Y-123686500D01*
X135951000Y-118386500D02*
X136491000Y-118386500D01*
X143271000Y-126296500D02*
X143571000Y-125696500D01*
X143571000Y-125696500D02*
X143871000Y-126296500D01*
X143871000Y-126296500D02*
X143271000Y-126296500D01*
X151744159Y-118370679D02*
G75*
G02X155731000Y-118386500I1986841J-1665821D01*
G01*
X146664159Y-118370679D02*
G75*
G02X150651000Y-118386500I1986841J-1665821D01*
G01*
X156271000Y-125496500D02*
X156271000Y-116649500D01*
X156271000Y-116676500D02*
X146111000Y-116676500D01*
X146111000Y-116676500D02*
X146111000Y-125412500D01*
X146111000Y-125496500D02*
X156271000Y-125496500D01*
X156271000Y-124686500D02*
X154841000Y-124686500D01*
X146111000Y-124686500D02*
X147541000Y-124686500D01*
X152731000Y-124686500D02*
X149651000Y-124686500D01*
X154731000Y-123686500D02*
X154731000Y-125496500D01*
X154731000Y-125496500D02*
X152731000Y-125496500D01*
X152731000Y-125496500D02*
X152731000Y-123686500D01*
X152731000Y-123686500D02*
X154731000Y-123686500D01*
X149651000Y-123686500D02*
X149651000Y-125496500D01*
X149651000Y-125496500D02*
X147651000Y-125496500D01*
X147651000Y-125496500D02*
X147651000Y-123686500D01*
X147651000Y-123686500D02*
X149651000Y-123686500D01*
X151731000Y-118386500D02*
X150651000Y-118386500D01*
X155731000Y-118386500D02*
X156271000Y-118386500D01*
X156271000Y-118386500D02*
X156271000Y-123686500D01*
X156271000Y-123686500D02*
X146111000Y-123686500D01*
X146111000Y-118386500D02*
X146651000Y-118386500D01*
X153431000Y-126296500D02*
X153731000Y-125696500D01*
X153731000Y-125696500D02*
X154031000Y-126296500D01*
X154031000Y-126296500D02*
X153431000Y-126296500D01*
X161904159Y-118370679D02*
G75*
G02X165891000Y-118386500I1986841J-1665821D01*
G01*
X156824159Y-118370679D02*
G75*
G02X160811000Y-118386500I1986841J-1665821D01*
G01*
X166431000Y-125496500D02*
X166431000Y-116649500D01*
X166431000Y-116676500D02*
X156271000Y-116676500D01*
X156271000Y-116676500D02*
X156271000Y-125412500D01*
X156271000Y-125496500D02*
X166431000Y-125496500D01*
X166431000Y-124686500D02*
X165001000Y-124686500D01*
X156271000Y-124686500D02*
X157701000Y-124686500D01*
X162891000Y-124686500D02*
X159811000Y-124686500D01*
X164891000Y-123686500D02*
X164891000Y-125496500D01*
X164891000Y-125496500D02*
X162891000Y-125496500D01*
X162891000Y-125496500D02*
X162891000Y-123686500D01*
X162891000Y-123686500D02*
X164891000Y-123686500D01*
X159811000Y-123686500D02*
X159811000Y-125496500D01*
X159811000Y-125496500D02*
X157811000Y-125496500D01*
X157811000Y-125496500D02*
X157811000Y-123686500D01*
X157811000Y-123686500D02*
X159811000Y-123686500D01*
X161891000Y-118386500D02*
X160811000Y-118386500D01*
X165891000Y-118386500D02*
X166431000Y-118386500D01*
X166431000Y-118386500D02*
X166431000Y-123686500D01*
X166431000Y-123686500D02*
X156271000Y-123686500D01*
X156271000Y-118386500D02*
X156811000Y-118386500D01*
X163591000Y-126296500D02*
X163891000Y-125696500D01*
X163891000Y-125696500D02*
X164191000Y-126296500D01*
X164191000Y-126296500D02*
X163591000Y-126296500D01*
X80624159Y-118370679D02*
G75*
G02X84611000Y-118386500I1986841J-1665821D01*
G01*
X75544159Y-118370679D02*
G75*
G02X79531000Y-118386500I1986841J-1665821D01*
G01*
X85151000Y-125496500D02*
X85151000Y-116649500D01*
X85151000Y-116676500D02*
X74991000Y-116676500D01*
X74991000Y-116676500D02*
X74991000Y-125412500D01*
X74991000Y-125496500D02*
X85151000Y-125496500D01*
X85151000Y-124686500D02*
X83721000Y-124686500D01*
X74991000Y-124686500D02*
X76421000Y-124686500D01*
X81611000Y-124686500D02*
X78531000Y-124686500D01*
X83611000Y-123686500D02*
X83611000Y-125496500D01*
X83611000Y-125496500D02*
X81611000Y-125496500D01*
X81611000Y-125496500D02*
X81611000Y-123686500D01*
X81611000Y-123686500D02*
X83611000Y-123686500D01*
X78531000Y-123686500D02*
X78531000Y-125496500D01*
X78531000Y-125496500D02*
X76531000Y-125496500D01*
X76531000Y-125496500D02*
X76531000Y-123686500D01*
X76531000Y-123686500D02*
X78531000Y-123686500D01*
X80611000Y-118386500D02*
X79531000Y-118386500D01*
X84611000Y-118386500D02*
X85151000Y-118386500D01*
X85151000Y-118386500D02*
X85151000Y-123686500D01*
X85151000Y-123686500D02*
X74991000Y-123686500D01*
X74991000Y-118386500D02*
X75531000Y-118386500D01*
X82311000Y-126296500D02*
X82611000Y-125696500D01*
X82611000Y-125696500D02*
X82911000Y-126296500D01*
X82911000Y-126296500D02*
X82311000Y-126296500D01*
X111104159Y-118370679D02*
G75*
G02X115091000Y-118386500I1986841J-1665821D01*
G01*
X106024159Y-118370679D02*
G75*
G02X110011000Y-118386500I1986841J-1665821D01*
G01*
X115631000Y-125496500D02*
X115631000Y-116649500D01*
X115631000Y-116676500D02*
X105471000Y-116676500D01*
X105471000Y-116676500D02*
X105471000Y-125412500D01*
X105471000Y-125496500D02*
X115631000Y-125496500D01*
X115631000Y-124686500D02*
X114201000Y-124686500D01*
X105471000Y-124686500D02*
X106901000Y-124686500D01*
X112091000Y-124686500D02*
X109011000Y-124686500D01*
X114091000Y-123686500D02*
X114091000Y-125496500D01*
X114091000Y-125496500D02*
X112091000Y-125496500D01*
X112091000Y-125496500D02*
X112091000Y-123686500D01*
X112091000Y-123686500D02*
X114091000Y-123686500D01*
X109011000Y-123686500D02*
X109011000Y-125496500D01*
X109011000Y-125496500D02*
X107011000Y-125496500D01*
X107011000Y-125496500D02*
X107011000Y-123686500D01*
X107011000Y-123686500D02*
X109011000Y-123686500D01*
X111091000Y-118386500D02*
X110011000Y-118386500D01*
X115091000Y-118386500D02*
X115631000Y-118386500D01*
X115631000Y-118386500D02*
X115631000Y-123686500D01*
X115631000Y-123686500D02*
X105471000Y-123686500D01*
X105471000Y-118386500D02*
X106011000Y-118386500D01*
X112791000Y-126296500D02*
X113091000Y-125696500D01*
X113091000Y-125696500D02*
X113391000Y-126296500D01*
X113391000Y-126296500D02*
X112791000Y-126296500D01*
X100944159Y-118370679D02*
G75*
G02X104931000Y-118386500I1986841J-1665821D01*
G01*
X95864159Y-118370679D02*
G75*
G02X99851000Y-118386500I1986841J-1665821D01*
G01*
X105471000Y-125496500D02*
X105471000Y-116649500D01*
X105471000Y-116676500D02*
X95311000Y-116676500D01*
X95311000Y-116676500D02*
X95311000Y-125412500D01*
X95311000Y-125496500D02*
X105471000Y-125496500D01*
X105471000Y-124686500D02*
X104041000Y-124686500D01*
X95311000Y-124686500D02*
X96741000Y-124686500D01*
X101931000Y-124686500D02*
X98851000Y-124686500D01*
X103931000Y-123686500D02*
X103931000Y-125496500D01*
X103931000Y-125496500D02*
X101931000Y-125496500D01*
X101931000Y-125496500D02*
X101931000Y-123686500D01*
X101931000Y-123686500D02*
X103931000Y-123686500D01*
X98851000Y-123686500D02*
X98851000Y-125496500D01*
X98851000Y-125496500D02*
X96851000Y-125496500D01*
X96851000Y-125496500D02*
X96851000Y-123686500D01*
X96851000Y-123686500D02*
X98851000Y-123686500D01*
X100931000Y-118386500D02*
X99851000Y-118386500D01*
X104931000Y-118386500D02*
X105471000Y-118386500D01*
X105471000Y-118386500D02*
X105471000Y-123686500D01*
X105471000Y-123686500D02*
X95311000Y-123686500D01*
X95311000Y-118386500D02*
X95851000Y-118386500D01*
X102631000Y-126296500D02*
X102931000Y-125696500D01*
X102931000Y-125696500D02*
X103231000Y-126296500D01*
X103231000Y-126296500D02*
X102631000Y-126296500D01*
X90784159Y-118370679D02*
G75*
G02X94771000Y-118386500I1986841J-1665821D01*
G01*
X85704159Y-118370679D02*
G75*
G02X89691000Y-118386500I1986841J-1665821D01*
G01*
X95311000Y-125496500D02*
X95311000Y-116649500D01*
X95311000Y-116676500D02*
X85151000Y-116676500D01*
X85151000Y-116676500D02*
X85151000Y-125412500D01*
X85151000Y-125496500D02*
X95311000Y-125496500D01*
X95311000Y-124686500D02*
X93881000Y-124686500D01*
X85151000Y-124686500D02*
X86581000Y-124686500D01*
X91771000Y-124686500D02*
X88691000Y-124686500D01*
X93771000Y-123686500D02*
X93771000Y-125496500D01*
X93771000Y-125496500D02*
X91771000Y-125496500D01*
X91771000Y-125496500D02*
X91771000Y-123686500D01*
X91771000Y-123686500D02*
X93771000Y-123686500D01*
X88691000Y-123686500D02*
X88691000Y-125496500D01*
X88691000Y-125496500D02*
X86691000Y-125496500D01*
X86691000Y-125496500D02*
X86691000Y-123686500D01*
X86691000Y-123686500D02*
X88691000Y-123686500D01*
X90771000Y-118386500D02*
X89691000Y-118386500D01*
X94771000Y-118386500D02*
X95311000Y-118386500D01*
X95311000Y-118386500D02*
X95311000Y-123686500D01*
X95311000Y-123686500D02*
X85151000Y-123686500D01*
X85151000Y-118386500D02*
X85691000Y-118386500D01*
X92471000Y-126296500D02*
X92771000Y-125696500D01*
X92771000Y-125696500D02*
X93071000Y-126296500D01*
X93071000Y-126296500D02*
X92471000Y-126296500D01*
D12*
X182149000Y-62885000D02*
X182149000Y-90785000D01*
X127749000Y-62885000D02*
X182149000Y-62885000D01*
X127749000Y-90785000D02*
X127749000Y-62885000D01*
X182149000Y-90785000D02*
X127749000Y-90785000D01*
D11*
X168779500Y-108708500D02*
X167449500Y-108708500D01*
X168779500Y-107378500D02*
X168779500Y-108708500D01*
X166179500Y-108708500D02*
X163579500Y-108708500D01*
X166179500Y-106108500D02*
X166179500Y-108708500D01*
X168779500Y-106108500D02*
X166179500Y-106108500D01*
X163579500Y-108708500D02*
X163579500Y-98428500D01*
X168779500Y-106108500D02*
X168779500Y-98428500D01*
X168779500Y-98428500D02*
X163579500Y-98428500D01*
X153419500Y-97730000D02*
X154749500Y-97730000D01*
X153419500Y-99060000D02*
X153419500Y-97730000D01*
X156019500Y-97730000D02*
X158619500Y-97730000D01*
X156019500Y-100330000D02*
X156019500Y-97730000D01*
X153419500Y-100330000D02*
X156019500Y-100330000D01*
X158619500Y-97730000D02*
X158619500Y-110550000D01*
X153419500Y-100330000D02*
X153419500Y-110550000D01*
X153419500Y-110550000D02*
X158619500Y-110550000D01*
X65459000Y-111220000D02*
X65459000Y-109710000D01*
X69160000Y-111220000D02*
X69160000Y-109710000D01*
X72430000Y-109710000D02*
X62190000Y-109710000D01*
X62190000Y-111220000D02*
X62190000Y-106579000D01*
X72430000Y-111220000D02*
X72430000Y-106579000D01*
X72430000Y-106579000D02*
X62190000Y-106579000D01*
X72430000Y-111220000D02*
X62190000Y-111220000D01*
X52759000Y-111220000D02*
X52759000Y-109710000D01*
X56460000Y-111220000D02*
X56460000Y-109710000D01*
X59730000Y-109710000D02*
X49490000Y-109710000D01*
X49490000Y-111220000D02*
X49490000Y-106579000D01*
X59730000Y-111220000D02*
X59730000Y-106579000D01*
X59730000Y-106579000D02*
X49490000Y-106579000D01*
X59730000Y-111220000D02*
X49490000Y-111220000D01*
X107953000Y-56007000D02*
X87373000Y-56007000D01*
X105283000Y-45847000D02*
X87373000Y-45847000D01*
X107953000Y-44577000D02*
X107953000Y-43177000D01*
X107953000Y-43177000D02*
X106553000Y-43177000D01*
X107953000Y-45847000D02*
X105283000Y-45847000D01*
X105283000Y-45847000D02*
X105283000Y-43177000D01*
X105283000Y-43177000D02*
X87373000Y-43177000D01*
X87373000Y-43177000D02*
X87373000Y-58677000D01*
X87373000Y-58677000D02*
X107953000Y-58677000D01*
X107953000Y-58677000D02*
X107953000Y-45847000D01*
X45620000Y-95345000D02*
X48360000Y-95345000D01*
X48360000Y-95345000D02*
X48360000Y-88805000D01*
X48360000Y-88805000D02*
X45620000Y-88805000D01*
X45620000Y-88805000D02*
X45620000Y-95345000D01*
X46990000Y-96115000D02*
X46990000Y-95345000D01*
X46990000Y-88035000D02*
X46990000Y-88805000D01*
X64495000Y-91460000D02*
X67585000Y-91460000D01*
X68540000Y-88900000D02*
G75*
G03X68540000Y-88900000I-2500000J0D01*
G01*
X66039538Y-85910000D02*
G75*
G02X67584830Y-91460000I462J-2990000D01*
G01*
X66040462Y-85910000D02*
G75*
G03X64495170Y-91460000I-462J-2990000D01*
G01*
X53340462Y-85910000D02*
G75*
G03X51795170Y-91460000I-462J-2990000D01*
G01*
X53339538Y-85910000D02*
G75*
G02X54884830Y-91460000I462J-2990000D01*
G01*
X55840000Y-88900000D02*
G75*
G03X55840000Y-88900000I-2500000J0D01*
G01*
X51795000Y-91460000D02*
X54885000Y-91460000D01*
X51816000Y-103100000D02*
X51816000Y-102330000D01*
X51816000Y-95020000D02*
X51816000Y-95790000D01*
X53186000Y-102330000D02*
X53186000Y-95790000D01*
X50446000Y-102330000D02*
X53186000Y-102330000D01*
X50446000Y-95790000D02*
X50446000Y-102330000D01*
X53186000Y-95790000D02*
X50446000Y-95790000D01*
X54256000Y-102330000D02*
X56996000Y-102330000D01*
X56996000Y-102330000D02*
X56996000Y-95790000D01*
X56996000Y-95790000D02*
X54256000Y-95790000D01*
X54256000Y-95790000D02*
X54256000Y-102330000D01*
X55626000Y-103100000D02*
X55626000Y-102330000D01*
X55626000Y-95020000D02*
X55626000Y-95790000D01*
X116081000Y-95540500D02*
X116081000Y-92800500D01*
X123521000Y-95540500D02*
X123521000Y-92800500D01*
X123521000Y-92800500D02*
X116081000Y-92800500D01*
X123521000Y-95540500D02*
X116081000Y-95540500D01*
X179782000Y-99922000D02*
X172342000Y-99922000D01*
X179782000Y-97182000D02*
X172342000Y-97182000D01*
X179782000Y-99922000D02*
X179782000Y-97182000D01*
X172342000Y-99922000D02*
X172342000Y-97182000D01*
X117031000Y-114654000D02*
X117031000Y-111914000D01*
X124471000Y-114654000D02*
X124471000Y-111914000D01*
X124471000Y-111914000D02*
X117031000Y-111914000D01*
X124471000Y-114654000D02*
X117031000Y-114654000D01*
X127191000Y-114654000D02*
X127191000Y-111914000D01*
X134631000Y-114654000D02*
X134631000Y-111914000D01*
X134631000Y-111914000D02*
X127191000Y-111914000D01*
X134631000Y-114654000D02*
X127191000Y-114654000D01*
X136244000Y-99981000D02*
X133504000Y-99981000D01*
X133504000Y-99981000D02*
X133504000Y-106521000D01*
X133504000Y-106521000D02*
X136244000Y-106521000D01*
X136244000Y-106521000D02*
X136244000Y-99981000D01*
X134874000Y-99211000D02*
X134874000Y-99981000D01*
X134874000Y-107291000D02*
X134874000Y-106521000D01*
X68580000Y-95020000D02*
X68580000Y-95790000D01*
X68580000Y-103100000D02*
X68580000Y-102330000D01*
X67210000Y-95790000D02*
X67210000Y-102330000D01*
X69950000Y-95790000D02*
X67210000Y-95790000D01*
X69950000Y-102330000D02*
X69950000Y-95790000D01*
X67210000Y-102330000D02*
X69950000Y-102330000D01*
X60325000Y-88670000D02*
X60325000Y-89440000D01*
X60325000Y-96750000D02*
X60325000Y-95980000D01*
X58955000Y-89440000D02*
X58955000Y-95980000D01*
X61695000Y-89440000D02*
X58955000Y-89440000D01*
X61695000Y-95980000D02*
X61695000Y-89440000D01*
X58955000Y-95980000D02*
X61695000Y-95980000D01*
X64770000Y-103100000D02*
X64770000Y-102330000D01*
X64770000Y-95020000D02*
X64770000Y-95790000D01*
X66140000Y-102330000D02*
X66140000Y-95790000D01*
X63400000Y-102330000D02*
X66140000Y-102330000D01*
X63400000Y-95790000D02*
X63400000Y-102330000D01*
X66140000Y-95790000D02*
X63400000Y-95790000D01*
X78398000Y-96606500D02*
X78398000Y-98846500D01*
X78398000Y-98846500D02*
X82638000Y-98846500D01*
X82638000Y-98846500D02*
X82638000Y-96606500D01*
X82638000Y-96606500D02*
X78398000Y-96606500D01*
X76478000Y-97726500D02*
X78398000Y-97726500D01*
X84558000Y-97726500D02*
X82638000Y-97726500D01*
X79118000Y-96606500D02*
X79118000Y-98846500D01*
X79238000Y-96606500D02*
X79238000Y-98846500D01*
X78998000Y-96606500D02*
X78998000Y-98846500D01*
D10*
X70710000Y-95941999D02*
X114710000Y-95942000D01*
X114710000Y-95942000D02*
X114710000Y-75762001D01*
X114710000Y-75762001D02*
X70710000Y-75762000D01*
X70710000Y-75762000D02*
X70710000Y-82488667D01*
X70710000Y-82488667D02*
X71160000Y-82488667D01*
X71160000Y-82488667D02*
X71160000Y-89215333D01*
X71160000Y-89215333D02*
X70710000Y-89215333D01*
X70710000Y-89215333D02*
X70710000Y-95941999D01*
D11*
X137351000Y-114654000D02*
X137351000Y-111914000D01*
X144791000Y-114654000D02*
X144791000Y-111914000D01*
X144791000Y-111914000D02*
X137351000Y-111914000D01*
X144791000Y-114654000D02*
X137351000Y-114654000D01*
X97690000Y-71705000D02*
X97690000Y-64265000D01*
X100430000Y-71705000D02*
X100430000Y-64265000D01*
X97690000Y-71705000D02*
X100430000Y-71705000D01*
X97690000Y-64265000D02*
X100430000Y-64265000D01*
X157671000Y-114654000D02*
X157671000Y-111914000D01*
X165111000Y-114654000D02*
X165111000Y-111914000D01*
X165111000Y-111914000D02*
X157671000Y-111914000D01*
X165111000Y-114654000D02*
X157671000Y-114654000D01*
X64416000Y-64265000D02*
X67156000Y-64265000D01*
X64416000Y-71705000D02*
X67156000Y-71705000D01*
X67156000Y-71705000D02*
X67156000Y-64265000D01*
X64416000Y-71705000D02*
X64416000Y-64265000D01*
X154951000Y-114654000D02*
X147511000Y-114654000D01*
X154951000Y-111914000D02*
X147511000Y-111914000D01*
X154951000Y-114654000D02*
X154951000Y-111914000D01*
X147511000Y-114654000D02*
X147511000Y-111914000D01*
X140054000Y-99981000D02*
X137314000Y-99981000D01*
X137314000Y-99981000D02*
X137314000Y-106521000D01*
X137314000Y-106521000D02*
X140054000Y-106521000D01*
X140054000Y-106521000D02*
X140054000Y-99981000D01*
X138684000Y-99211000D02*
X138684000Y-99981000D01*
X138684000Y-107291000D02*
X138684000Y-106521000D01*
X143864000Y-99981000D02*
X141124000Y-99981000D01*
X141124000Y-99981000D02*
X141124000Y-106521000D01*
X141124000Y-106521000D02*
X143864000Y-106521000D01*
X143864000Y-106521000D02*
X143864000Y-99981000D01*
X142494000Y-99211000D02*
X142494000Y-99981000D01*
X142494000Y-107291000D02*
X142494000Y-106521000D01*
X147674000Y-99981000D02*
X144934000Y-99981000D01*
X144934000Y-99981000D02*
X144934000Y-106521000D01*
X144934000Y-106521000D02*
X147674000Y-106521000D01*
X147674000Y-106521000D02*
X147674000Y-99981000D01*
X146304000Y-99211000D02*
X146304000Y-99981000D01*
X146304000Y-107291000D02*
X146304000Y-106521000D01*
X131064000Y-107291000D02*
X131064000Y-106521000D01*
X131064000Y-99211000D02*
X131064000Y-99981000D01*
X132434000Y-106521000D02*
X132434000Y-99981000D01*
X129694000Y-106521000D02*
X132434000Y-106521000D01*
X129694000Y-99981000D02*
X129694000Y-106521000D01*
X132434000Y-99981000D02*
X129694000Y-99981000D01*
X46748353Y-31750155D02*
G75*
G03X48248000Y-31750000I749647J1700155D01*
G01*
X42938353Y-31750155D02*
G75*
G03X44438000Y-31750000I749647J1700155D01*
G01*
X39128353Y-31750155D02*
G75*
G03X40628000Y-31750000I749647J1700155D01*
G01*
X35318353Y-31750155D02*
G75*
G03X36818000Y-31750000I749647J1700155D01*
G01*
X50208000Y-38360000D02*
X50208000Y-30890000D01*
X50208000Y-30890000D02*
X33358000Y-30890000D01*
X33358000Y-30890000D02*
X33358000Y-38360000D01*
X33358000Y-38360000D02*
X50208000Y-38360000D01*
X48248000Y-31750000D02*
X48998000Y-31750000D01*
X48998000Y-31750000D02*
X48998000Y-36050000D01*
X48998000Y-36050000D02*
X48248000Y-36050000D01*
X48248000Y-36050000D02*
X48248000Y-36400000D01*
X48248000Y-36400000D02*
X48748000Y-36400000D01*
X48748000Y-36400000D02*
X48998000Y-37400000D01*
X48998000Y-37400000D02*
X45998000Y-37400000D01*
X45998000Y-37400000D02*
X46248000Y-36400000D01*
X46248000Y-36400000D02*
X46748000Y-36400000D01*
X46748000Y-36400000D02*
X46748000Y-36050000D01*
X46748000Y-36050000D02*
X45998000Y-36050000D01*
X45998000Y-36050000D02*
X45998000Y-31750000D01*
X45998000Y-31750000D02*
X46748000Y-31750000D01*
X44438000Y-31750000D02*
X45188000Y-31750000D01*
X45188000Y-31750000D02*
X45188000Y-36050000D01*
X45188000Y-36050000D02*
X44438000Y-36050000D01*
X44438000Y-36050000D02*
X44438000Y-36400000D01*
X44438000Y-36400000D02*
X44938000Y-36400000D01*
X44938000Y-36400000D02*
X45188000Y-37400000D01*
X45188000Y-37400000D02*
X42188000Y-37400000D01*
X42188000Y-37400000D02*
X42438000Y-36400000D01*
X42438000Y-36400000D02*
X42938000Y-36400000D01*
X42938000Y-36400000D02*
X42938000Y-36050000D01*
X42938000Y-36050000D02*
X42188000Y-36050000D01*
X42188000Y-36050000D02*
X42188000Y-31750000D01*
X42188000Y-31750000D02*
X42938000Y-31750000D01*
X40628000Y-31750000D02*
X41378000Y-31750000D01*
X41378000Y-31750000D02*
X41378000Y-36050000D01*
X41378000Y-36050000D02*
X40628000Y-36050000D01*
X40628000Y-36050000D02*
X40628000Y-36400000D01*
X40628000Y-36400000D02*
X41128000Y-36400000D01*
X41128000Y-36400000D02*
X41378000Y-37400000D01*
X41378000Y-37400000D02*
X38378000Y-37400000D01*
X38378000Y-37400000D02*
X38628000Y-36400000D01*
X38628000Y-36400000D02*
X39128000Y-36400000D01*
X39128000Y-36400000D02*
X39128000Y-36050000D01*
X39128000Y-36050000D02*
X38378000Y-36050000D01*
X38378000Y-36050000D02*
X38378000Y-31750000D01*
X38378000Y-31750000D02*
X39128000Y-31750000D01*
X36818000Y-31750000D02*
X37568000Y-31750000D01*
X37568000Y-31750000D02*
X37568000Y-36050000D01*
X37568000Y-36050000D02*
X36818000Y-36050000D01*
X36818000Y-36050000D02*
X36818000Y-36400000D01*
X36818000Y-36400000D02*
X37318000Y-36400000D01*
X37318000Y-36400000D02*
X37568000Y-37400000D01*
X37568000Y-37400000D02*
X34568000Y-37400000D01*
X34568000Y-37400000D02*
X34818000Y-36400000D01*
X34818000Y-36400000D02*
X35318000Y-36400000D01*
X35318000Y-36400000D02*
X35318000Y-36050000D01*
X35318000Y-36050000D02*
X34568000Y-36050000D01*
X34568000Y-36050000D02*
X34568000Y-31750000D01*
X34568000Y-31750000D02*
X35318000Y-31750000D01*
X50598000Y-37500000D02*
X50598000Y-38750000D01*
X50598000Y-38750000D02*
X48598000Y-38750000D01*
X79300000Y-38750000D02*
X77300000Y-38750000D01*
X79300000Y-37500000D02*
X79300000Y-38750000D01*
X63270000Y-31750000D02*
X64020000Y-31750000D01*
X63270000Y-36050000D02*
X63270000Y-31750000D01*
X64020000Y-36050000D02*
X63270000Y-36050000D01*
X64020000Y-36400000D02*
X64020000Y-36050000D01*
X63520000Y-36400000D02*
X64020000Y-36400000D01*
X63270000Y-37400000D02*
X63520000Y-36400000D01*
X66270000Y-37400000D02*
X63270000Y-37400000D01*
X66020000Y-36400000D02*
X66270000Y-37400000D01*
X65520000Y-36400000D02*
X66020000Y-36400000D01*
X65520000Y-36050000D02*
X65520000Y-36400000D01*
X66270000Y-36050000D02*
X65520000Y-36050000D01*
X66270000Y-31750000D02*
X66270000Y-36050000D01*
X65520000Y-31750000D02*
X66270000Y-31750000D01*
X67080000Y-31750000D02*
X67830000Y-31750000D01*
X67080000Y-36050000D02*
X67080000Y-31750000D01*
X67830000Y-36050000D02*
X67080000Y-36050000D01*
X67830000Y-36400000D02*
X67830000Y-36050000D01*
X67330000Y-36400000D02*
X67830000Y-36400000D01*
X67080000Y-37400000D02*
X67330000Y-36400000D01*
X70080000Y-37400000D02*
X67080000Y-37400000D01*
X69830000Y-36400000D02*
X70080000Y-37400000D01*
X69330000Y-36400000D02*
X69830000Y-36400000D01*
X69330000Y-36050000D02*
X69330000Y-36400000D01*
X70080000Y-36050000D02*
X69330000Y-36050000D01*
X70080000Y-31750000D02*
X70080000Y-36050000D01*
X69330000Y-31750000D02*
X70080000Y-31750000D01*
X70890000Y-31750000D02*
X71640000Y-31750000D01*
X70890000Y-36050000D02*
X70890000Y-31750000D01*
X71640000Y-36050000D02*
X70890000Y-36050000D01*
X71640000Y-36400000D02*
X71640000Y-36050000D01*
X71140000Y-36400000D02*
X71640000Y-36400000D01*
X70890000Y-37400000D02*
X71140000Y-36400000D01*
X73890000Y-37400000D02*
X70890000Y-37400000D01*
X73640000Y-36400000D02*
X73890000Y-37400000D01*
X73140000Y-36400000D02*
X73640000Y-36400000D01*
X73140000Y-36050000D02*
X73140000Y-36400000D01*
X73890000Y-36050000D02*
X73140000Y-36050000D01*
X73890000Y-31750000D02*
X73890000Y-36050000D01*
X73140000Y-31750000D02*
X73890000Y-31750000D01*
X74700000Y-31750000D02*
X75450000Y-31750000D01*
X74700000Y-36050000D02*
X74700000Y-31750000D01*
X75450000Y-36050000D02*
X74700000Y-36050000D01*
X75450000Y-36400000D02*
X75450000Y-36050000D01*
X74950000Y-36400000D02*
X75450000Y-36400000D01*
X74700000Y-37400000D02*
X74950000Y-36400000D01*
X77700000Y-37400000D02*
X74700000Y-37400000D01*
X77450000Y-36400000D02*
X77700000Y-37400000D01*
X76950000Y-36400000D02*
X77450000Y-36400000D01*
X76950000Y-36050000D02*
X76950000Y-36400000D01*
X77700000Y-36050000D02*
X76950000Y-36050000D01*
X77700000Y-31750000D02*
X77700000Y-36050000D01*
X76950000Y-31750000D02*
X77700000Y-31750000D01*
X62060000Y-38360000D02*
X78910000Y-38360000D01*
X62060000Y-30890000D02*
X62060000Y-38360000D01*
X78910000Y-30890000D02*
X62060000Y-30890000D01*
X78910000Y-38360000D02*
X78910000Y-30890000D01*
X64020353Y-31750155D02*
G75*
G03X65520000Y-31750000I749647J1700155D01*
G01*
X67830353Y-31750155D02*
G75*
G03X69330000Y-31750000I749647J1700155D01*
G01*
X71640353Y-31750155D02*
G75*
G03X73140000Y-31750000I749647J1700155D01*
G01*
X75450353Y-31750155D02*
G75*
G03X76950000Y-31750000I749647J1700155D01*
G01*
X102501353Y-31750155D02*
G75*
G03X104001000Y-31750000I749647J1700155D01*
G01*
X98691353Y-31750155D02*
G75*
G03X100191000Y-31750000I749647J1700155D01*
G01*
X94881353Y-31750155D02*
G75*
G03X96381000Y-31750000I749647J1700155D01*
G01*
X91071353Y-31750155D02*
G75*
G03X92571000Y-31750000I749647J1700155D01*
G01*
X105961000Y-38360000D02*
X105961000Y-30890000D01*
X105961000Y-30890000D02*
X89111000Y-30890000D01*
X89111000Y-30890000D02*
X89111000Y-38360000D01*
X89111000Y-38360000D02*
X105961000Y-38360000D01*
X104001000Y-31750000D02*
X104751000Y-31750000D01*
X104751000Y-31750000D02*
X104751000Y-36050000D01*
X104751000Y-36050000D02*
X104001000Y-36050000D01*
X104001000Y-36050000D02*
X104001000Y-36400000D01*
X104001000Y-36400000D02*
X104501000Y-36400000D01*
X104501000Y-36400000D02*
X104751000Y-37400000D01*
X104751000Y-37400000D02*
X101751000Y-37400000D01*
X101751000Y-37400000D02*
X102001000Y-36400000D01*
X102001000Y-36400000D02*
X102501000Y-36400000D01*
X102501000Y-36400000D02*
X102501000Y-36050000D01*
X102501000Y-36050000D02*
X101751000Y-36050000D01*
X101751000Y-36050000D02*
X101751000Y-31750000D01*
X101751000Y-31750000D02*
X102501000Y-31750000D01*
X100191000Y-31750000D02*
X100941000Y-31750000D01*
X100941000Y-31750000D02*
X100941000Y-36050000D01*
X100941000Y-36050000D02*
X100191000Y-36050000D01*
X100191000Y-36050000D02*
X100191000Y-36400000D01*
X100191000Y-36400000D02*
X100691000Y-36400000D01*
X100691000Y-36400000D02*
X100941000Y-37400000D01*
X100941000Y-37400000D02*
X97941000Y-37400000D01*
X97941000Y-37400000D02*
X98191000Y-36400000D01*
X98191000Y-36400000D02*
X98691000Y-36400000D01*
X98691000Y-36400000D02*
X98691000Y-36050000D01*
X98691000Y-36050000D02*
X97941000Y-36050000D01*
X97941000Y-36050000D02*
X97941000Y-31750000D01*
X97941000Y-31750000D02*
X98691000Y-31750000D01*
X96381000Y-31750000D02*
X97131000Y-31750000D01*
X97131000Y-31750000D02*
X97131000Y-36050000D01*
X97131000Y-36050000D02*
X96381000Y-36050000D01*
X96381000Y-36050000D02*
X96381000Y-36400000D01*
X96381000Y-36400000D02*
X96881000Y-36400000D01*
X96881000Y-36400000D02*
X97131000Y-37400000D01*
X97131000Y-37400000D02*
X94131000Y-37400000D01*
X94131000Y-37400000D02*
X94381000Y-36400000D01*
X94381000Y-36400000D02*
X94881000Y-36400000D01*
X94881000Y-36400000D02*
X94881000Y-36050000D01*
X94881000Y-36050000D02*
X94131000Y-36050000D01*
X94131000Y-36050000D02*
X94131000Y-31750000D01*
X94131000Y-31750000D02*
X94881000Y-31750000D01*
X92571000Y-31750000D02*
X93321000Y-31750000D01*
X93321000Y-31750000D02*
X93321000Y-36050000D01*
X93321000Y-36050000D02*
X92571000Y-36050000D01*
X92571000Y-36050000D02*
X92571000Y-36400000D01*
X92571000Y-36400000D02*
X93071000Y-36400000D01*
X93071000Y-36400000D02*
X93321000Y-37400000D01*
X93321000Y-37400000D02*
X90321000Y-37400000D01*
X90321000Y-37400000D02*
X90571000Y-36400000D01*
X90571000Y-36400000D02*
X91071000Y-36400000D01*
X91071000Y-36400000D02*
X91071000Y-36050000D01*
X91071000Y-36050000D02*
X90321000Y-36050000D01*
X90321000Y-36050000D02*
X90321000Y-31750000D01*
X90321000Y-31750000D02*
X91071000Y-31750000D01*
X106351000Y-37500000D02*
X106351000Y-38750000D01*
X106351000Y-38750000D02*
X104351000Y-38750000D01*
X134545000Y-38750000D02*
X132545000Y-38750000D01*
X134545000Y-37500000D02*
X134545000Y-38750000D01*
X118515000Y-31750000D02*
X119265000Y-31750000D01*
X118515000Y-36050000D02*
X118515000Y-31750000D01*
X119265000Y-36050000D02*
X118515000Y-36050000D01*
X119265000Y-36400000D02*
X119265000Y-36050000D01*
X118765000Y-36400000D02*
X119265000Y-36400000D01*
X118515000Y-37400000D02*
X118765000Y-36400000D01*
X121515000Y-37400000D02*
X118515000Y-37400000D01*
X121265000Y-36400000D02*
X121515000Y-37400000D01*
X120765000Y-36400000D02*
X121265000Y-36400000D01*
X120765000Y-36050000D02*
X120765000Y-36400000D01*
X121515000Y-36050000D02*
X120765000Y-36050000D01*
X121515000Y-31750000D02*
X121515000Y-36050000D01*
X120765000Y-31750000D02*
X121515000Y-31750000D01*
X122325000Y-31750000D02*
X123075000Y-31750000D01*
X122325000Y-36050000D02*
X122325000Y-31750000D01*
X123075000Y-36050000D02*
X122325000Y-36050000D01*
X123075000Y-36400000D02*
X123075000Y-36050000D01*
X122575000Y-36400000D02*
X123075000Y-36400000D01*
X122325000Y-37400000D02*
X122575000Y-36400000D01*
X125325000Y-37400000D02*
X122325000Y-37400000D01*
X125075000Y-36400000D02*
X125325000Y-37400000D01*
X124575000Y-36400000D02*
X125075000Y-36400000D01*
X124575000Y-36050000D02*
X124575000Y-36400000D01*
X125325000Y-36050000D02*
X124575000Y-36050000D01*
X125325000Y-31750000D02*
X125325000Y-36050000D01*
X124575000Y-31750000D02*
X125325000Y-31750000D01*
X126135000Y-31750000D02*
X126885000Y-31750000D01*
X126135000Y-36050000D02*
X126135000Y-31750000D01*
X126885000Y-36050000D02*
X126135000Y-36050000D01*
X126885000Y-36400000D02*
X126885000Y-36050000D01*
X126385000Y-36400000D02*
X126885000Y-36400000D01*
X126135000Y-37400000D02*
X126385000Y-36400000D01*
X129135000Y-37400000D02*
X126135000Y-37400000D01*
X128885000Y-36400000D02*
X129135000Y-37400000D01*
X128385000Y-36400000D02*
X128885000Y-36400000D01*
X128385000Y-36050000D02*
X128385000Y-36400000D01*
X129135000Y-36050000D02*
X128385000Y-36050000D01*
X129135000Y-31750000D02*
X129135000Y-36050000D01*
X128385000Y-31750000D02*
X129135000Y-31750000D01*
X129945000Y-31750000D02*
X130695000Y-31750000D01*
X129945000Y-36050000D02*
X129945000Y-31750000D01*
X130695000Y-36050000D02*
X129945000Y-36050000D01*
X130695000Y-36400000D02*
X130695000Y-36050000D01*
X130195000Y-36400000D02*
X130695000Y-36400000D01*
X129945000Y-37400000D02*
X130195000Y-36400000D01*
X132945000Y-37400000D02*
X129945000Y-37400000D01*
X132695000Y-36400000D02*
X132945000Y-37400000D01*
X132195000Y-36400000D02*
X132695000Y-36400000D01*
X132195000Y-36050000D02*
X132195000Y-36400000D01*
X132945000Y-36050000D02*
X132195000Y-36050000D01*
X132945000Y-31750000D02*
X132945000Y-36050000D01*
X132195000Y-31750000D02*
X132945000Y-31750000D01*
X117305000Y-38360000D02*
X134155000Y-38360000D01*
X117305000Y-30890000D02*
X117305000Y-38360000D01*
X134155000Y-30890000D02*
X117305000Y-30890000D01*
X134155000Y-38360000D02*
X134155000Y-30890000D01*
X119265353Y-31750155D02*
G75*
G03X120765000Y-31750000I749647J1700155D01*
G01*
X123075353Y-31750155D02*
G75*
G03X124575000Y-31750000I749647J1700155D01*
G01*
X126885353Y-31750155D02*
G75*
G03X128385000Y-31750000I749647J1700155D01*
G01*
X130695353Y-31750155D02*
G75*
G03X132195000Y-31750000I749647J1700155D01*
G01*
X123844500Y-80711000D02*
X123844500Y-82661000D01*
X118344500Y-80711000D02*
X123844500Y-80711000D01*
X118344500Y-82661000D02*
X118344500Y-80711000D01*
X123844500Y-82661000D02*
X118344500Y-82661000D01*
X182965000Y-56110000D02*
X182965000Y-32790000D01*
X176065000Y-58650000D02*
X150635000Y-58650000D01*
X182965000Y-32790000D02*
X150635000Y-32790000D01*
X148505000Y-34910000D02*
X148505000Y-56520000D01*
D10*
G36*
X156210000Y-59690000D02*
G01*
X157480000Y-59690000D01*
X156845000Y-59055000D01*
X156210000Y-59690000D01*
G37*
X156210000Y-59690000D02*
X157480000Y-59690000D01*
X156845000Y-59055000D01*
X156210000Y-59690000D01*
D11*
X176065000Y-58650000D02*
X176065000Y-56110000D01*
X176065000Y-56110000D02*
X182965000Y-56110000D01*
X150635000Y-58650000D02*
G75*
G02X148505000Y-56520000I0J2130000D01*
G01*
X148505000Y-34920000D02*
G75*
G02X150635000Y-32790000I2130000J0D01*
G01*
X36770000Y-39665600D02*
X36770000Y-42325600D01*
X44450000Y-39665600D02*
X36770000Y-39665600D01*
X44450000Y-42325600D02*
X36770000Y-42325600D01*
X44450000Y-39665600D02*
X44450000Y-42325600D01*
X45720000Y-39665600D02*
X47050000Y-39665600D01*
X47050000Y-39665600D02*
X47050000Y-40995600D01*
X102676000Y-39767200D02*
X102676000Y-41097200D01*
X101346000Y-39767200D02*
X102676000Y-39767200D01*
X100076000Y-39767200D02*
X100076000Y-42427200D01*
X100076000Y-42427200D02*
X92396000Y-42427200D01*
X100076000Y-39767200D02*
X92396000Y-39767200D01*
X92396000Y-39767200D02*
X92396000Y-42427200D01*
X120526500Y-39754500D02*
X120526500Y-42414500D01*
X128206500Y-39754500D02*
X120526500Y-39754500D01*
X128206500Y-42414500D02*
X120526500Y-42414500D01*
X128206500Y-39754500D02*
X128206500Y-42414500D01*
X129476500Y-39754500D02*
X130806500Y-39754500D01*
X130806500Y-39754500D02*
X130806500Y-41084500D01*
X135956500Y-56007000D02*
X115376500Y-56007000D01*
X133286500Y-45847000D02*
X115376500Y-45847000D01*
X135956500Y-44577000D02*
X135956500Y-43177000D01*
X135956500Y-43177000D02*
X134556500Y-43177000D01*
X135956500Y-45847000D02*
X133286500Y-45847000D01*
X133286500Y-45847000D02*
X133286500Y-43177000D01*
X133286500Y-43177000D02*
X115376500Y-43177000D01*
X115376500Y-43177000D02*
X115376500Y-58677000D01*
X115376500Y-58677000D02*
X135956500Y-58677000D01*
X135956500Y-58677000D02*
X135956500Y-45847000D01*
X52200000Y-58905600D02*
X52200000Y-46075600D01*
X31620000Y-58905600D02*
X52200000Y-58905600D01*
X31620000Y-43405600D02*
X31620000Y-58905600D01*
X49530000Y-43405600D02*
X31620000Y-43405600D01*
X49530000Y-46075600D02*
X49530000Y-43405600D01*
X52200000Y-46075600D02*
X49530000Y-46075600D01*
X52200000Y-43405600D02*
X50800000Y-43405600D01*
X52200000Y-44805600D02*
X52200000Y-43405600D01*
X49530000Y-46075600D02*
X31620000Y-46075600D01*
X52200000Y-56235600D02*
X31620000Y-56235600D01*
X32353000Y-40406000D02*
G75*
G03X32353000Y-40406000I-3270000J0D01*
G01*
X25853000Y-40406000D02*
X32313000Y-40406000D01*
X25853000Y-40366000D02*
X32313000Y-40366000D01*
X25853000Y-40326000D02*
X32313000Y-40326000D01*
X25855000Y-40286000D02*
X32311000Y-40286000D01*
X25856000Y-40246000D02*
X32310000Y-40246000D01*
X25859000Y-40206000D02*
X32307000Y-40206000D01*
X25861000Y-40166000D02*
X28043000Y-40166000D01*
X30123000Y-40166000D02*
X32305000Y-40166000D01*
X25865000Y-40126000D02*
X28043000Y-40126000D01*
X30123000Y-40126000D02*
X32301000Y-40126000D01*
X25868000Y-40086000D02*
X28043000Y-40086000D01*
X30123000Y-40086000D02*
X32298000Y-40086000D01*
X25872000Y-40046000D02*
X28043000Y-40046000D01*
X30123000Y-40046000D02*
X32294000Y-40046000D01*
X25877000Y-40006000D02*
X28043000Y-40006000D01*
X30123000Y-40006000D02*
X32289000Y-40006000D01*
X25882000Y-39966000D02*
X28043000Y-39966000D01*
X30123000Y-39966000D02*
X32284000Y-39966000D01*
X25888000Y-39926000D02*
X28043000Y-39926000D01*
X30123000Y-39926000D02*
X32278000Y-39926000D01*
X25894000Y-39886000D02*
X28043000Y-39886000D01*
X30123000Y-39886000D02*
X32272000Y-39886000D01*
X25901000Y-39846000D02*
X28043000Y-39846000D01*
X30123000Y-39846000D02*
X32265000Y-39846000D01*
X25908000Y-39806000D02*
X28043000Y-39806000D01*
X30123000Y-39806000D02*
X32258000Y-39806000D01*
X25916000Y-39766000D02*
X28043000Y-39766000D01*
X30123000Y-39766000D02*
X32250000Y-39766000D01*
X25924000Y-39726000D02*
X28043000Y-39726000D01*
X30123000Y-39726000D02*
X32242000Y-39726000D01*
X25933000Y-39685000D02*
X28043000Y-39685000D01*
X30123000Y-39685000D02*
X32233000Y-39685000D01*
X25942000Y-39645000D02*
X28043000Y-39645000D01*
X30123000Y-39645000D02*
X32224000Y-39645000D01*
X25952000Y-39605000D02*
X28043000Y-39605000D01*
X30123000Y-39605000D02*
X32214000Y-39605000D01*
X25962000Y-39565000D02*
X28043000Y-39565000D01*
X30123000Y-39565000D02*
X32204000Y-39565000D01*
X25973000Y-39525000D02*
X28043000Y-39525000D01*
X30123000Y-39525000D02*
X32193000Y-39525000D01*
X25985000Y-39485000D02*
X28043000Y-39485000D01*
X30123000Y-39485000D02*
X32181000Y-39485000D01*
X25997000Y-39445000D02*
X28043000Y-39445000D01*
X30123000Y-39445000D02*
X32169000Y-39445000D01*
X26009000Y-39405000D02*
X28043000Y-39405000D01*
X30123000Y-39405000D02*
X32157000Y-39405000D01*
X26022000Y-39365000D02*
X28043000Y-39365000D01*
X30123000Y-39365000D02*
X32144000Y-39365000D01*
X26036000Y-39325000D02*
X28043000Y-39325000D01*
X30123000Y-39325000D02*
X32130000Y-39325000D01*
X26050000Y-39285000D02*
X28043000Y-39285000D01*
X30123000Y-39285000D02*
X32116000Y-39285000D01*
X26065000Y-39245000D02*
X28043000Y-39245000D01*
X30123000Y-39245000D02*
X32101000Y-39245000D01*
X26081000Y-39205000D02*
X28043000Y-39205000D01*
X30123000Y-39205000D02*
X32085000Y-39205000D01*
X26097000Y-39165000D02*
X28043000Y-39165000D01*
X30123000Y-39165000D02*
X32069000Y-39165000D01*
X26113000Y-39125000D02*
X28043000Y-39125000D01*
X30123000Y-39125000D02*
X32053000Y-39125000D01*
X26131000Y-39085000D02*
X28043000Y-39085000D01*
X30123000Y-39085000D02*
X32035000Y-39085000D01*
X26149000Y-39045000D02*
X28043000Y-39045000D01*
X30123000Y-39045000D02*
X32017000Y-39045000D01*
X26167000Y-39005000D02*
X28043000Y-39005000D01*
X30123000Y-39005000D02*
X31999000Y-39005000D01*
X26187000Y-38965000D02*
X28043000Y-38965000D01*
X30123000Y-38965000D02*
X31979000Y-38965000D01*
X26207000Y-38925000D02*
X28043000Y-38925000D01*
X30123000Y-38925000D02*
X31959000Y-38925000D01*
X26227000Y-38885000D02*
X28043000Y-38885000D01*
X30123000Y-38885000D02*
X31939000Y-38885000D01*
X26249000Y-38845000D02*
X28043000Y-38845000D01*
X30123000Y-38845000D02*
X31917000Y-38845000D01*
X26271000Y-38805000D02*
X28043000Y-38805000D01*
X30123000Y-38805000D02*
X31895000Y-38805000D01*
X26293000Y-38765000D02*
X28043000Y-38765000D01*
X30123000Y-38765000D02*
X31873000Y-38765000D01*
X26317000Y-38725000D02*
X28043000Y-38725000D01*
X30123000Y-38725000D02*
X31849000Y-38725000D01*
X26341000Y-38685000D02*
X28043000Y-38685000D01*
X30123000Y-38685000D02*
X31825000Y-38685000D01*
X26367000Y-38645000D02*
X28043000Y-38645000D01*
X30123000Y-38645000D02*
X31799000Y-38645000D01*
X26393000Y-38605000D02*
X28043000Y-38605000D01*
X30123000Y-38605000D02*
X31773000Y-38605000D01*
X26419000Y-38565000D02*
X28043000Y-38565000D01*
X30123000Y-38565000D02*
X31747000Y-38565000D01*
X26447000Y-38525000D02*
X28043000Y-38525000D01*
X30123000Y-38525000D02*
X31719000Y-38525000D01*
X26476000Y-38485000D02*
X28043000Y-38485000D01*
X30123000Y-38485000D02*
X31690000Y-38485000D01*
X26505000Y-38445000D02*
X28043000Y-38445000D01*
X30123000Y-38445000D02*
X31661000Y-38445000D01*
X26535000Y-38405000D02*
X28043000Y-38405000D01*
X30123000Y-38405000D02*
X31631000Y-38405000D01*
X26567000Y-38365000D02*
X28043000Y-38365000D01*
X30123000Y-38365000D02*
X31599000Y-38365000D01*
X26599000Y-38325000D02*
X28043000Y-38325000D01*
X30123000Y-38325000D02*
X31567000Y-38325000D01*
X26633000Y-38285000D02*
X28043000Y-38285000D01*
X30123000Y-38285000D02*
X31533000Y-38285000D01*
X26667000Y-38245000D02*
X28043000Y-38245000D01*
X30123000Y-38245000D02*
X31499000Y-38245000D01*
X26703000Y-38205000D02*
X28043000Y-38205000D01*
X30123000Y-38205000D02*
X31463000Y-38205000D01*
X26740000Y-38165000D02*
X28043000Y-38165000D01*
X30123000Y-38165000D02*
X31426000Y-38165000D01*
X26778000Y-38125000D02*
X28043000Y-38125000D01*
X30123000Y-38125000D02*
X31388000Y-38125000D01*
X26818000Y-38085000D02*
X31348000Y-38085000D01*
X26859000Y-38045000D02*
X31307000Y-38045000D01*
X26901000Y-38005000D02*
X31265000Y-38005000D01*
X26946000Y-37965000D02*
X31220000Y-37965000D01*
X26991000Y-37925000D02*
X31175000Y-37925000D01*
X27039000Y-37885000D02*
X31127000Y-37885000D01*
X27088000Y-37845000D02*
X31078000Y-37845000D01*
X27139000Y-37805000D02*
X31027000Y-37805000D01*
X27193000Y-37765000D02*
X30973000Y-37765000D01*
X27249000Y-37725000D02*
X30917000Y-37725000D01*
X27307000Y-37685000D02*
X30859000Y-37685000D01*
X27369000Y-37645000D02*
X30797000Y-37645000D01*
X27433000Y-37605000D02*
X30733000Y-37605000D01*
X27502000Y-37565000D02*
X30664000Y-37565000D01*
X27574000Y-37525000D02*
X30592000Y-37525000D01*
X27651000Y-37485000D02*
X30515000Y-37485000D01*
X27733000Y-37445000D02*
X30433000Y-37445000D01*
X27821000Y-37405000D02*
X30345000Y-37405000D01*
X27918000Y-37365000D02*
X30248000Y-37365000D01*
X28024000Y-37325000D02*
X30142000Y-37325000D01*
X28143000Y-37285000D02*
X30023000Y-37285000D01*
X28281000Y-37245000D02*
X29885000Y-37245000D01*
X28450000Y-37205000D02*
X29716000Y-37205000D01*
X28681000Y-37165000D02*
X29485000Y-37165000D01*
X27244000Y-43906241D02*
X27244000Y-43276241D01*
X26929000Y-43591241D02*
X27559000Y-43591241D01*
X81539000Y-43464241D02*
X82169000Y-43464241D01*
X81854000Y-43779241D02*
X81854000Y-43149241D01*
X83291000Y-37038000D02*
X84095000Y-37038000D01*
X83060000Y-37078000D02*
X84326000Y-37078000D01*
X82891000Y-37118000D02*
X84495000Y-37118000D01*
X82753000Y-37158000D02*
X84633000Y-37158000D01*
X82634000Y-37198000D02*
X84752000Y-37198000D01*
X82528000Y-37238000D02*
X84858000Y-37238000D01*
X82431000Y-37278000D02*
X84955000Y-37278000D01*
X82343000Y-37318000D02*
X85043000Y-37318000D01*
X82261000Y-37358000D02*
X85125000Y-37358000D01*
X82184000Y-37398000D02*
X85202000Y-37398000D01*
X82112000Y-37438000D02*
X85274000Y-37438000D01*
X82043000Y-37478000D02*
X85343000Y-37478000D01*
X81979000Y-37518000D02*
X85407000Y-37518000D01*
X81917000Y-37558000D02*
X85469000Y-37558000D01*
X81859000Y-37598000D02*
X85527000Y-37598000D01*
X81803000Y-37638000D02*
X85583000Y-37638000D01*
X81749000Y-37678000D02*
X85637000Y-37678000D01*
X81698000Y-37718000D02*
X85688000Y-37718000D01*
X81649000Y-37758000D02*
X85737000Y-37758000D01*
X81601000Y-37798000D02*
X85785000Y-37798000D01*
X81556000Y-37838000D02*
X85830000Y-37838000D01*
X81511000Y-37878000D02*
X85875000Y-37878000D01*
X81469000Y-37918000D02*
X85917000Y-37918000D01*
X81428000Y-37958000D02*
X85958000Y-37958000D01*
X84733000Y-37998000D02*
X85998000Y-37998000D01*
X81388000Y-37998000D02*
X82653000Y-37998000D01*
X84733000Y-38038000D02*
X86036000Y-38038000D01*
X81350000Y-38038000D02*
X82653000Y-38038000D01*
X84733000Y-38078000D02*
X86073000Y-38078000D01*
X81313000Y-38078000D02*
X82653000Y-38078000D01*
X84733000Y-38118000D02*
X86109000Y-38118000D01*
X81277000Y-38118000D02*
X82653000Y-38118000D01*
X84733000Y-38158000D02*
X86143000Y-38158000D01*
X81243000Y-38158000D02*
X82653000Y-38158000D01*
X84733000Y-38198000D02*
X86177000Y-38198000D01*
X81209000Y-38198000D02*
X82653000Y-38198000D01*
X84733000Y-38238000D02*
X86209000Y-38238000D01*
X81177000Y-38238000D02*
X82653000Y-38238000D01*
X84733000Y-38278000D02*
X86241000Y-38278000D01*
X81145000Y-38278000D02*
X82653000Y-38278000D01*
X84733000Y-38318000D02*
X86271000Y-38318000D01*
X81115000Y-38318000D02*
X82653000Y-38318000D01*
X84733000Y-38358000D02*
X86300000Y-38358000D01*
X81086000Y-38358000D02*
X82653000Y-38358000D01*
X84733000Y-38398000D02*
X86329000Y-38398000D01*
X81057000Y-38398000D02*
X82653000Y-38398000D01*
X84733000Y-38438000D02*
X86357000Y-38438000D01*
X81029000Y-38438000D02*
X82653000Y-38438000D01*
X84733000Y-38478000D02*
X86383000Y-38478000D01*
X81003000Y-38478000D02*
X82653000Y-38478000D01*
X84733000Y-38518000D02*
X86409000Y-38518000D01*
X80977000Y-38518000D02*
X82653000Y-38518000D01*
X84733000Y-38558000D02*
X86435000Y-38558000D01*
X80951000Y-38558000D02*
X82653000Y-38558000D01*
X84733000Y-38598000D02*
X86459000Y-38598000D01*
X80927000Y-38598000D02*
X82653000Y-38598000D01*
X84733000Y-38638000D02*
X86483000Y-38638000D01*
X80903000Y-38638000D02*
X82653000Y-38638000D01*
X84733000Y-38678000D02*
X86505000Y-38678000D01*
X80881000Y-38678000D02*
X82653000Y-38678000D01*
X84733000Y-38718000D02*
X86527000Y-38718000D01*
X80859000Y-38718000D02*
X82653000Y-38718000D01*
X84733000Y-38758000D02*
X86549000Y-38758000D01*
X80837000Y-38758000D02*
X82653000Y-38758000D01*
X84733000Y-38798000D02*
X86569000Y-38798000D01*
X80817000Y-38798000D02*
X82653000Y-38798000D01*
X84733000Y-38838000D02*
X86589000Y-38838000D01*
X80797000Y-38838000D02*
X82653000Y-38838000D01*
X84733000Y-38878000D02*
X86609000Y-38878000D01*
X80777000Y-38878000D02*
X82653000Y-38878000D01*
X84733000Y-38918000D02*
X86627000Y-38918000D01*
X80759000Y-38918000D02*
X82653000Y-38918000D01*
X84733000Y-38958000D02*
X86645000Y-38958000D01*
X80741000Y-38958000D02*
X82653000Y-38958000D01*
X84733000Y-38998000D02*
X86663000Y-38998000D01*
X80723000Y-38998000D02*
X82653000Y-38998000D01*
X84733000Y-39038000D02*
X86679000Y-39038000D01*
X80707000Y-39038000D02*
X82653000Y-39038000D01*
X84733000Y-39078000D02*
X86695000Y-39078000D01*
X80691000Y-39078000D02*
X82653000Y-39078000D01*
X84733000Y-39118000D02*
X86711000Y-39118000D01*
X80675000Y-39118000D02*
X82653000Y-39118000D01*
X84733000Y-39158000D02*
X86726000Y-39158000D01*
X80660000Y-39158000D02*
X82653000Y-39158000D01*
X84733000Y-39198000D02*
X86740000Y-39198000D01*
X80646000Y-39198000D02*
X82653000Y-39198000D01*
X84733000Y-39238000D02*
X86754000Y-39238000D01*
X80632000Y-39238000D02*
X82653000Y-39238000D01*
X84733000Y-39278000D02*
X86767000Y-39278000D01*
X80619000Y-39278000D02*
X82653000Y-39278000D01*
X84733000Y-39318000D02*
X86779000Y-39318000D01*
X80607000Y-39318000D02*
X82653000Y-39318000D01*
X84733000Y-39358000D02*
X86791000Y-39358000D01*
X80595000Y-39358000D02*
X82653000Y-39358000D01*
X84733000Y-39398000D02*
X86803000Y-39398000D01*
X80583000Y-39398000D02*
X82653000Y-39398000D01*
X84733000Y-39438000D02*
X86814000Y-39438000D01*
X80572000Y-39438000D02*
X82653000Y-39438000D01*
X84733000Y-39478000D02*
X86824000Y-39478000D01*
X80562000Y-39478000D02*
X82653000Y-39478000D01*
X84733000Y-39518000D02*
X86834000Y-39518000D01*
X80552000Y-39518000D02*
X82653000Y-39518000D01*
X84733000Y-39558000D02*
X86843000Y-39558000D01*
X80543000Y-39558000D02*
X82653000Y-39558000D01*
X84733000Y-39599000D02*
X86852000Y-39599000D01*
X80534000Y-39599000D02*
X82653000Y-39599000D01*
X84733000Y-39639000D02*
X86860000Y-39639000D01*
X80526000Y-39639000D02*
X82653000Y-39639000D01*
X84733000Y-39679000D02*
X86868000Y-39679000D01*
X80518000Y-39679000D02*
X82653000Y-39679000D01*
X84733000Y-39719000D02*
X86875000Y-39719000D01*
X80511000Y-39719000D02*
X82653000Y-39719000D01*
X84733000Y-39759000D02*
X86882000Y-39759000D01*
X80504000Y-39759000D02*
X82653000Y-39759000D01*
X84733000Y-39799000D02*
X86888000Y-39799000D01*
X80498000Y-39799000D02*
X82653000Y-39799000D01*
X84733000Y-39839000D02*
X86894000Y-39839000D01*
X80492000Y-39839000D02*
X82653000Y-39839000D01*
X84733000Y-39879000D02*
X86899000Y-39879000D01*
X80487000Y-39879000D02*
X82653000Y-39879000D01*
X84733000Y-39919000D02*
X86904000Y-39919000D01*
X80482000Y-39919000D02*
X82653000Y-39919000D01*
X84733000Y-39959000D02*
X86908000Y-39959000D01*
X80478000Y-39959000D02*
X82653000Y-39959000D01*
X84733000Y-39999000D02*
X86911000Y-39999000D01*
X80475000Y-39999000D02*
X82653000Y-39999000D01*
X84733000Y-40039000D02*
X86915000Y-40039000D01*
X80471000Y-40039000D02*
X82653000Y-40039000D01*
X80469000Y-40079000D02*
X86917000Y-40079000D01*
X80466000Y-40119000D02*
X86920000Y-40119000D01*
X80465000Y-40159000D02*
X86921000Y-40159000D01*
X80463000Y-40199000D02*
X86923000Y-40199000D01*
X80463000Y-40239000D02*
X86923000Y-40239000D01*
X80463000Y-40279000D02*
X86923000Y-40279000D01*
X86963000Y-40279000D02*
G75*
G03X86963000Y-40279000I-3270000J0D01*
G01*
X115284000Y-40279000D02*
G75*
G03X115284000Y-40279000I-3270000J0D01*
G01*
X108784000Y-40279000D02*
X115244000Y-40279000D01*
X108784000Y-40239000D02*
X115244000Y-40239000D01*
X108784000Y-40199000D02*
X115244000Y-40199000D01*
X108786000Y-40159000D02*
X115242000Y-40159000D01*
X108787000Y-40119000D02*
X115241000Y-40119000D01*
X108790000Y-40079000D02*
X115238000Y-40079000D01*
X108792000Y-40039000D02*
X110974000Y-40039000D01*
X113054000Y-40039000D02*
X115236000Y-40039000D01*
X108796000Y-39999000D02*
X110974000Y-39999000D01*
X113054000Y-39999000D02*
X115232000Y-39999000D01*
X108799000Y-39959000D02*
X110974000Y-39959000D01*
X113054000Y-39959000D02*
X115229000Y-39959000D01*
X108803000Y-39919000D02*
X110974000Y-39919000D01*
X113054000Y-39919000D02*
X115225000Y-39919000D01*
X108808000Y-39879000D02*
X110974000Y-39879000D01*
X113054000Y-39879000D02*
X115220000Y-39879000D01*
X108813000Y-39839000D02*
X110974000Y-39839000D01*
X113054000Y-39839000D02*
X115215000Y-39839000D01*
X108819000Y-39799000D02*
X110974000Y-39799000D01*
X113054000Y-39799000D02*
X115209000Y-39799000D01*
X108825000Y-39759000D02*
X110974000Y-39759000D01*
X113054000Y-39759000D02*
X115203000Y-39759000D01*
X108832000Y-39719000D02*
X110974000Y-39719000D01*
X113054000Y-39719000D02*
X115196000Y-39719000D01*
X108839000Y-39679000D02*
X110974000Y-39679000D01*
X113054000Y-39679000D02*
X115189000Y-39679000D01*
X108847000Y-39639000D02*
X110974000Y-39639000D01*
X113054000Y-39639000D02*
X115181000Y-39639000D01*
X108855000Y-39599000D02*
X110974000Y-39599000D01*
X113054000Y-39599000D02*
X115173000Y-39599000D01*
X108864000Y-39558000D02*
X110974000Y-39558000D01*
X113054000Y-39558000D02*
X115164000Y-39558000D01*
X108873000Y-39518000D02*
X110974000Y-39518000D01*
X113054000Y-39518000D02*
X115155000Y-39518000D01*
X108883000Y-39478000D02*
X110974000Y-39478000D01*
X113054000Y-39478000D02*
X115145000Y-39478000D01*
X108893000Y-39438000D02*
X110974000Y-39438000D01*
X113054000Y-39438000D02*
X115135000Y-39438000D01*
X108904000Y-39398000D02*
X110974000Y-39398000D01*
X113054000Y-39398000D02*
X115124000Y-39398000D01*
X108916000Y-39358000D02*
X110974000Y-39358000D01*
X113054000Y-39358000D02*
X115112000Y-39358000D01*
X108928000Y-39318000D02*
X110974000Y-39318000D01*
X113054000Y-39318000D02*
X115100000Y-39318000D01*
X108940000Y-39278000D02*
X110974000Y-39278000D01*
X113054000Y-39278000D02*
X115088000Y-39278000D01*
X108953000Y-39238000D02*
X110974000Y-39238000D01*
X113054000Y-39238000D02*
X115075000Y-39238000D01*
X108967000Y-39198000D02*
X110974000Y-39198000D01*
X113054000Y-39198000D02*
X115061000Y-39198000D01*
X108981000Y-39158000D02*
X110974000Y-39158000D01*
X113054000Y-39158000D02*
X115047000Y-39158000D01*
X108996000Y-39118000D02*
X110974000Y-39118000D01*
X113054000Y-39118000D02*
X115032000Y-39118000D01*
X109012000Y-39078000D02*
X110974000Y-39078000D01*
X113054000Y-39078000D02*
X115016000Y-39078000D01*
X109028000Y-39038000D02*
X110974000Y-39038000D01*
X113054000Y-39038000D02*
X115000000Y-39038000D01*
X109044000Y-38998000D02*
X110974000Y-38998000D01*
X113054000Y-38998000D02*
X114984000Y-38998000D01*
X109062000Y-38958000D02*
X110974000Y-38958000D01*
X113054000Y-38958000D02*
X114966000Y-38958000D01*
X109080000Y-38918000D02*
X110974000Y-38918000D01*
X113054000Y-38918000D02*
X114948000Y-38918000D01*
X109098000Y-38878000D02*
X110974000Y-38878000D01*
X113054000Y-38878000D02*
X114930000Y-38878000D01*
X109118000Y-38838000D02*
X110974000Y-38838000D01*
X113054000Y-38838000D02*
X114910000Y-38838000D01*
X109138000Y-38798000D02*
X110974000Y-38798000D01*
X113054000Y-38798000D02*
X114890000Y-38798000D01*
X109158000Y-38758000D02*
X110974000Y-38758000D01*
X113054000Y-38758000D02*
X114870000Y-38758000D01*
X109180000Y-38718000D02*
X110974000Y-38718000D01*
X113054000Y-38718000D02*
X114848000Y-38718000D01*
X109202000Y-38678000D02*
X110974000Y-38678000D01*
X113054000Y-38678000D02*
X114826000Y-38678000D01*
X109224000Y-38638000D02*
X110974000Y-38638000D01*
X113054000Y-38638000D02*
X114804000Y-38638000D01*
X109248000Y-38598000D02*
X110974000Y-38598000D01*
X113054000Y-38598000D02*
X114780000Y-38598000D01*
X109272000Y-38558000D02*
X110974000Y-38558000D01*
X113054000Y-38558000D02*
X114756000Y-38558000D01*
X109298000Y-38518000D02*
X110974000Y-38518000D01*
X113054000Y-38518000D02*
X114730000Y-38518000D01*
X109324000Y-38478000D02*
X110974000Y-38478000D01*
X113054000Y-38478000D02*
X114704000Y-38478000D01*
X109350000Y-38438000D02*
X110974000Y-38438000D01*
X113054000Y-38438000D02*
X114678000Y-38438000D01*
X109378000Y-38398000D02*
X110974000Y-38398000D01*
X113054000Y-38398000D02*
X114650000Y-38398000D01*
X109407000Y-38358000D02*
X110974000Y-38358000D01*
X113054000Y-38358000D02*
X114621000Y-38358000D01*
X109436000Y-38318000D02*
X110974000Y-38318000D01*
X113054000Y-38318000D02*
X114592000Y-38318000D01*
X109466000Y-38278000D02*
X110974000Y-38278000D01*
X113054000Y-38278000D02*
X114562000Y-38278000D01*
X109498000Y-38238000D02*
X110974000Y-38238000D01*
X113054000Y-38238000D02*
X114530000Y-38238000D01*
X109530000Y-38198000D02*
X110974000Y-38198000D01*
X113054000Y-38198000D02*
X114498000Y-38198000D01*
X109564000Y-38158000D02*
X110974000Y-38158000D01*
X113054000Y-38158000D02*
X114464000Y-38158000D01*
X109598000Y-38118000D02*
X110974000Y-38118000D01*
X113054000Y-38118000D02*
X114430000Y-38118000D01*
X109634000Y-38078000D02*
X110974000Y-38078000D01*
X113054000Y-38078000D02*
X114394000Y-38078000D01*
X109671000Y-38038000D02*
X110974000Y-38038000D01*
X113054000Y-38038000D02*
X114357000Y-38038000D01*
X109709000Y-37998000D02*
X110974000Y-37998000D01*
X113054000Y-37998000D02*
X114319000Y-37998000D01*
X109749000Y-37958000D02*
X114279000Y-37958000D01*
X109790000Y-37918000D02*
X114238000Y-37918000D01*
X109832000Y-37878000D02*
X114196000Y-37878000D01*
X109877000Y-37838000D02*
X114151000Y-37838000D01*
X109922000Y-37798000D02*
X114106000Y-37798000D01*
X109970000Y-37758000D02*
X114058000Y-37758000D01*
X110019000Y-37718000D02*
X114009000Y-37718000D01*
X110070000Y-37678000D02*
X113958000Y-37678000D01*
X110124000Y-37638000D02*
X113904000Y-37638000D01*
X110180000Y-37598000D02*
X113848000Y-37598000D01*
X110238000Y-37558000D02*
X113790000Y-37558000D01*
X110300000Y-37518000D02*
X113728000Y-37518000D01*
X110364000Y-37478000D02*
X113664000Y-37478000D01*
X110433000Y-37438000D02*
X113595000Y-37438000D01*
X110505000Y-37398000D02*
X113523000Y-37398000D01*
X110582000Y-37358000D02*
X113446000Y-37358000D01*
X110664000Y-37318000D02*
X113364000Y-37318000D01*
X110752000Y-37278000D02*
X113276000Y-37278000D01*
X110849000Y-37238000D02*
X113179000Y-37238000D01*
X110955000Y-37198000D02*
X113073000Y-37198000D01*
X111074000Y-37158000D02*
X112954000Y-37158000D01*
X111212000Y-37118000D02*
X112816000Y-37118000D01*
X111381000Y-37078000D02*
X112647000Y-37078000D01*
X111612000Y-37038000D02*
X112416000Y-37038000D01*
X110175000Y-43779241D02*
X110175000Y-43149241D01*
X109860000Y-43464241D02*
X110490000Y-43464241D01*
X128239000Y-106807000D02*
G75*
G03X128239000Y-106807000I-2620000J0D01*
G01*
X125619000Y-105767000D02*
X125619000Y-104227000D01*
X125619000Y-109387000D02*
X125619000Y-107847000D01*
X125579000Y-105767000D02*
X125579000Y-104227000D01*
X125579000Y-109387000D02*
X125579000Y-107847000D01*
X125539000Y-109386000D02*
X125539000Y-107847000D01*
X125539000Y-105767000D02*
X125539000Y-104228000D01*
X125499000Y-109385000D02*
X125499000Y-107847000D01*
X125499000Y-105767000D02*
X125499000Y-104229000D01*
X125459000Y-109383000D02*
X125459000Y-107847000D01*
X125459000Y-105767000D02*
X125459000Y-104231000D01*
X125419000Y-109380000D02*
X125419000Y-107847000D01*
X125419000Y-105767000D02*
X125419000Y-104234000D01*
X125379000Y-109376000D02*
X125379000Y-107847000D01*
X125379000Y-105767000D02*
X125379000Y-104238000D01*
X125339000Y-109372000D02*
X125339000Y-107847000D01*
X125339000Y-105767000D02*
X125339000Y-104242000D01*
X125299000Y-109368000D02*
X125299000Y-107847000D01*
X125299000Y-105767000D02*
X125299000Y-104246000D01*
X125259000Y-109363000D02*
X125259000Y-107847000D01*
X125259000Y-105767000D02*
X125259000Y-104251000D01*
X125219000Y-109357000D02*
X125219000Y-107847000D01*
X125219000Y-105767000D02*
X125219000Y-104257000D01*
X125179000Y-109350000D02*
X125179000Y-107847000D01*
X125179000Y-105767000D02*
X125179000Y-104264000D01*
X125139000Y-109343000D02*
X125139000Y-107847000D01*
X125139000Y-105767000D02*
X125139000Y-104271000D01*
X125099000Y-109335000D02*
X125099000Y-107847000D01*
X125099000Y-105767000D02*
X125099000Y-104279000D01*
X125059000Y-109327000D02*
X125059000Y-107847000D01*
X125059000Y-105767000D02*
X125059000Y-104287000D01*
X125019000Y-109318000D02*
X125019000Y-107847000D01*
X125019000Y-105767000D02*
X125019000Y-104296000D01*
X124979000Y-109308000D02*
X124979000Y-107847000D01*
X124979000Y-105767000D02*
X124979000Y-104306000D01*
X124939000Y-109298000D02*
X124939000Y-107847000D01*
X124939000Y-105767000D02*
X124939000Y-104316000D01*
X124898000Y-109287000D02*
X124898000Y-107847000D01*
X124898000Y-105767000D02*
X124898000Y-104327000D01*
X124858000Y-109275000D02*
X124858000Y-107847000D01*
X124858000Y-105767000D02*
X124858000Y-104339000D01*
X124818000Y-109262000D02*
X124818000Y-107847000D01*
X124818000Y-105767000D02*
X124818000Y-104352000D01*
X124778000Y-109249000D02*
X124778000Y-107847000D01*
X124778000Y-105767000D02*
X124778000Y-104365000D01*
X124738000Y-109235000D02*
X124738000Y-107847000D01*
X124738000Y-105767000D02*
X124738000Y-104379000D01*
X124698000Y-109221000D02*
X124698000Y-107847000D01*
X124698000Y-105767000D02*
X124698000Y-104393000D01*
X124658000Y-109205000D02*
X124658000Y-107847000D01*
X124658000Y-105767000D02*
X124658000Y-104409000D01*
X124618000Y-109189000D02*
X124618000Y-107847000D01*
X124618000Y-105767000D02*
X124618000Y-104425000D01*
X124578000Y-109172000D02*
X124578000Y-107847000D01*
X124578000Y-105767000D02*
X124578000Y-104442000D01*
X124538000Y-109155000D02*
X124538000Y-107847000D01*
X124538000Y-105767000D02*
X124538000Y-104459000D01*
X124498000Y-109136000D02*
X124498000Y-107847000D01*
X124498000Y-105767000D02*
X124498000Y-104478000D01*
X124458000Y-109117000D02*
X124458000Y-107847000D01*
X124458000Y-105767000D02*
X124458000Y-104497000D01*
X124418000Y-109097000D02*
X124418000Y-107847000D01*
X124418000Y-105767000D02*
X124418000Y-104517000D01*
X124378000Y-109075000D02*
X124378000Y-107847000D01*
X124378000Y-105767000D02*
X124378000Y-104539000D01*
X124338000Y-109054000D02*
X124338000Y-107847000D01*
X124338000Y-105767000D02*
X124338000Y-104560000D01*
X124298000Y-109031000D02*
X124298000Y-107847000D01*
X124298000Y-105767000D02*
X124298000Y-104583000D01*
X124258000Y-109007000D02*
X124258000Y-107847000D01*
X124258000Y-105767000D02*
X124258000Y-104607000D01*
X124218000Y-108982000D02*
X124218000Y-107847000D01*
X124218000Y-105767000D02*
X124218000Y-104632000D01*
X124178000Y-108956000D02*
X124178000Y-107847000D01*
X124178000Y-105767000D02*
X124178000Y-104658000D01*
X124138000Y-108929000D02*
X124138000Y-107847000D01*
X124138000Y-105767000D02*
X124138000Y-104685000D01*
X124098000Y-108902000D02*
X124098000Y-107847000D01*
X124098000Y-105767000D02*
X124098000Y-104712000D01*
X124058000Y-108872000D02*
X124058000Y-107847000D01*
X124058000Y-105767000D02*
X124058000Y-104742000D01*
X124018000Y-108842000D02*
X124018000Y-107847000D01*
X124018000Y-105767000D02*
X124018000Y-104772000D01*
X123978000Y-108811000D02*
X123978000Y-107847000D01*
X123978000Y-105767000D02*
X123978000Y-104803000D01*
X123938000Y-108778000D02*
X123938000Y-107847000D01*
X123938000Y-105767000D02*
X123938000Y-104836000D01*
X123898000Y-108744000D02*
X123898000Y-107847000D01*
X123898000Y-105767000D02*
X123898000Y-104870000D01*
X123858000Y-108708000D02*
X123858000Y-107847000D01*
X123858000Y-105767000D02*
X123858000Y-104906000D01*
X123818000Y-108671000D02*
X123818000Y-107847000D01*
X123818000Y-105767000D02*
X123818000Y-104943000D01*
X123778000Y-108633000D02*
X123778000Y-107847000D01*
X123778000Y-105767000D02*
X123778000Y-104981000D01*
X123738000Y-108592000D02*
X123738000Y-107847000D01*
X123738000Y-105767000D02*
X123738000Y-105022000D01*
X123698000Y-108550000D02*
X123698000Y-107847000D01*
X123698000Y-105767000D02*
X123698000Y-105064000D01*
X123658000Y-108506000D02*
X123658000Y-107847000D01*
X123658000Y-105767000D02*
X123658000Y-105108000D01*
X123618000Y-108460000D02*
X123618000Y-107847000D01*
X123618000Y-105767000D02*
X123618000Y-105154000D01*
X123578000Y-108412000D02*
X123578000Y-105202000D01*
X123538000Y-108361000D02*
X123538000Y-105253000D01*
X123498000Y-108307000D02*
X123498000Y-105307000D01*
X123458000Y-108250000D02*
X123458000Y-105364000D01*
X123418000Y-108190000D02*
X123418000Y-105424000D01*
X123378000Y-108126000D02*
X123378000Y-105488000D01*
X123338000Y-108058000D02*
X123338000Y-105556000D01*
X123298000Y-107985000D02*
X123298000Y-105629000D01*
X123258000Y-107905000D02*
X123258000Y-105709000D01*
X123218000Y-107818000D02*
X123218000Y-105796000D01*
X123178000Y-107722000D02*
X123178000Y-105892000D01*
X123138000Y-107612000D02*
X123138000Y-106002000D01*
X123098000Y-107484000D02*
X123098000Y-106130000D01*
X123058000Y-107325000D02*
X123058000Y-106289000D01*
X123018000Y-107091000D02*
X123018000Y-106523000D01*
X128423775Y-108282000D02*
X127923775Y-108282000D01*
X128173775Y-108532000D02*
X128173775Y-108032000D01*
X80825800Y-56311800D02*
X60245800Y-56311800D01*
X78155800Y-46151800D02*
X60245800Y-46151800D01*
X80825800Y-44881800D02*
X80825800Y-43481800D01*
X80825800Y-43481800D02*
X79425800Y-43481800D01*
X80825800Y-46151800D02*
X78155800Y-46151800D01*
X78155800Y-46151800D02*
X78155800Y-43481800D01*
X78155800Y-43481800D02*
X60245800Y-43481800D01*
X60245800Y-43481800D02*
X60245800Y-58981800D01*
X60245800Y-58981800D02*
X80825800Y-58981800D01*
X80825800Y-58981800D02*
X80825800Y-46151800D01*
X121000000Y-106743500D02*
G75*
G03X121000000Y-106743500I-2620000J0D01*
G01*
X118380000Y-105703500D02*
X118380000Y-104163500D01*
X118380000Y-109323500D02*
X118380000Y-107783500D01*
X118340000Y-105703500D02*
X118340000Y-104163500D01*
X118340000Y-109323500D02*
X118340000Y-107783500D01*
X118300000Y-109322500D02*
X118300000Y-107783500D01*
X118300000Y-105703500D02*
X118300000Y-104164500D01*
X118260000Y-109321500D02*
X118260000Y-107783500D01*
X118260000Y-105703500D02*
X118260000Y-104165500D01*
X118220000Y-109319500D02*
X118220000Y-107783500D01*
X118220000Y-105703500D02*
X118220000Y-104167500D01*
X118180000Y-109316500D02*
X118180000Y-107783500D01*
X118180000Y-105703500D02*
X118180000Y-104170500D01*
X118140000Y-109312500D02*
X118140000Y-107783500D01*
X118140000Y-105703500D02*
X118140000Y-104174500D01*
X118100000Y-109308500D02*
X118100000Y-107783500D01*
X118100000Y-105703500D02*
X118100000Y-104178500D01*
X118060000Y-109304500D02*
X118060000Y-107783500D01*
X118060000Y-105703500D02*
X118060000Y-104182500D01*
X118020000Y-109299500D02*
X118020000Y-107783500D01*
X118020000Y-105703500D02*
X118020000Y-104187500D01*
X117980000Y-109293500D02*
X117980000Y-107783500D01*
X117980000Y-105703500D02*
X117980000Y-104193500D01*
X117940000Y-109286500D02*
X117940000Y-107783500D01*
X117940000Y-105703500D02*
X117940000Y-104200500D01*
X117900000Y-109279500D02*
X117900000Y-107783500D01*
X117900000Y-105703500D02*
X117900000Y-104207500D01*
X117860000Y-109271500D02*
X117860000Y-107783500D01*
X117860000Y-105703500D02*
X117860000Y-104215500D01*
X117820000Y-109263500D02*
X117820000Y-107783500D01*
X117820000Y-105703500D02*
X117820000Y-104223500D01*
X117780000Y-109254500D02*
X117780000Y-107783500D01*
X117780000Y-105703500D02*
X117780000Y-104232500D01*
X117740000Y-109244500D02*
X117740000Y-107783500D01*
X117740000Y-105703500D02*
X117740000Y-104242500D01*
X117700000Y-109234500D02*
X117700000Y-107783500D01*
X117700000Y-105703500D02*
X117700000Y-104252500D01*
X117659000Y-109223500D02*
X117659000Y-107783500D01*
X117659000Y-105703500D02*
X117659000Y-104263500D01*
X117619000Y-109211500D02*
X117619000Y-107783500D01*
X117619000Y-105703500D02*
X117619000Y-104275500D01*
X117579000Y-109198500D02*
X117579000Y-107783500D01*
X117579000Y-105703500D02*
X117579000Y-104288500D01*
X117539000Y-109185500D02*
X117539000Y-107783500D01*
X117539000Y-105703500D02*
X117539000Y-104301500D01*
X117499000Y-109171500D02*
X117499000Y-107783500D01*
X117499000Y-105703500D02*
X117499000Y-104315500D01*
X117459000Y-109157500D02*
X117459000Y-107783500D01*
X117459000Y-105703500D02*
X117459000Y-104329500D01*
X117419000Y-109141500D02*
X117419000Y-107783500D01*
X117419000Y-105703500D02*
X117419000Y-104345500D01*
X117379000Y-109125500D02*
X117379000Y-107783500D01*
X117379000Y-105703500D02*
X117379000Y-104361500D01*
X117339000Y-109108500D02*
X117339000Y-107783500D01*
X117339000Y-105703500D02*
X117339000Y-104378500D01*
X117299000Y-109091500D02*
X117299000Y-107783500D01*
X117299000Y-105703500D02*
X117299000Y-104395500D01*
X117259000Y-109072500D02*
X117259000Y-107783500D01*
X117259000Y-105703500D02*
X117259000Y-104414500D01*
X117219000Y-109053500D02*
X117219000Y-107783500D01*
X117219000Y-105703500D02*
X117219000Y-104433500D01*
X117179000Y-109033500D02*
X117179000Y-107783500D01*
X117179000Y-105703500D02*
X117179000Y-104453500D01*
X117139000Y-109011500D02*
X117139000Y-107783500D01*
X117139000Y-105703500D02*
X117139000Y-104475500D01*
X117099000Y-108990500D02*
X117099000Y-107783500D01*
X117099000Y-105703500D02*
X117099000Y-104496500D01*
X117059000Y-108967500D02*
X117059000Y-107783500D01*
X117059000Y-105703500D02*
X117059000Y-104519500D01*
X117019000Y-108943500D02*
X117019000Y-107783500D01*
X117019000Y-105703500D02*
X117019000Y-104543500D01*
X116979000Y-108918500D02*
X116979000Y-107783500D01*
X116979000Y-105703500D02*
X116979000Y-104568500D01*
X116939000Y-108892500D02*
X116939000Y-107783500D01*
X116939000Y-105703500D02*
X116939000Y-104594500D01*
X116899000Y-108865500D02*
X116899000Y-107783500D01*
X116899000Y-105703500D02*
X116899000Y-104621500D01*
X116859000Y-108838500D02*
X116859000Y-107783500D01*
X116859000Y-105703500D02*
X116859000Y-104648500D01*
X116819000Y-108808500D02*
X116819000Y-107783500D01*
X116819000Y-105703500D02*
X116819000Y-104678500D01*
X116779000Y-108778500D02*
X116779000Y-107783500D01*
X116779000Y-105703500D02*
X116779000Y-104708500D01*
X116739000Y-108747500D02*
X116739000Y-107783500D01*
X116739000Y-105703500D02*
X116739000Y-104739500D01*
X116699000Y-108714500D02*
X116699000Y-107783500D01*
X116699000Y-105703500D02*
X116699000Y-104772500D01*
X116659000Y-108680500D02*
X116659000Y-107783500D01*
X116659000Y-105703500D02*
X116659000Y-104806500D01*
X116619000Y-108644500D02*
X116619000Y-107783500D01*
X116619000Y-105703500D02*
X116619000Y-104842500D01*
X116579000Y-108607500D02*
X116579000Y-107783500D01*
X116579000Y-105703500D02*
X116579000Y-104879500D01*
X116539000Y-108569500D02*
X116539000Y-107783500D01*
X116539000Y-105703500D02*
X116539000Y-104917500D01*
X116499000Y-108528500D02*
X116499000Y-107783500D01*
X116499000Y-105703500D02*
X116499000Y-104958500D01*
X116459000Y-108486500D02*
X116459000Y-107783500D01*
X116459000Y-105703500D02*
X116459000Y-105000500D01*
X116419000Y-108442500D02*
X116419000Y-107783500D01*
X116419000Y-105703500D02*
X116419000Y-105044500D01*
X116379000Y-108396500D02*
X116379000Y-107783500D01*
X116379000Y-105703500D02*
X116379000Y-105090500D01*
X116339000Y-108348500D02*
X116339000Y-105138500D01*
X116299000Y-108297500D02*
X116299000Y-105189500D01*
X116259000Y-108243500D02*
X116259000Y-105243500D01*
X116219000Y-108186500D02*
X116219000Y-105300500D01*
X116179000Y-108126500D02*
X116179000Y-105360500D01*
X116139000Y-108062500D02*
X116139000Y-105424500D01*
X116099000Y-107994500D02*
X116099000Y-105492500D01*
X116059000Y-107921500D02*
X116059000Y-105565500D01*
X116019000Y-107841500D02*
X116019000Y-105645500D01*
X115979000Y-107754500D02*
X115979000Y-105732500D01*
X115939000Y-107658500D02*
X115939000Y-105828500D01*
X115899000Y-107548500D02*
X115899000Y-105938500D01*
X115859000Y-107420500D02*
X115859000Y-106066500D01*
X115819000Y-107261500D02*
X115819000Y-106225500D01*
X115779000Y-107027500D02*
X115779000Y-106459500D01*
X121184775Y-108218500D02*
X120684775Y-108218500D01*
X120934775Y-108468500D02*
X120934775Y-107968500D01*
X60420000Y-40279000D02*
G75*
G03X60420000Y-40279000I-3270000J0D01*
G01*
X53920000Y-40279000D02*
X60380000Y-40279000D01*
X53920000Y-40239000D02*
X60380000Y-40239000D01*
X53920000Y-40199000D02*
X60380000Y-40199000D01*
X53922000Y-40159000D02*
X60378000Y-40159000D01*
X53923000Y-40119000D02*
X60377000Y-40119000D01*
X53926000Y-40079000D02*
X60374000Y-40079000D01*
X53928000Y-40039000D02*
X56110000Y-40039000D01*
X58190000Y-40039000D02*
X60372000Y-40039000D01*
X53932000Y-39999000D02*
X56110000Y-39999000D01*
X58190000Y-39999000D02*
X60368000Y-39999000D01*
X53935000Y-39959000D02*
X56110000Y-39959000D01*
X58190000Y-39959000D02*
X60365000Y-39959000D01*
X53939000Y-39919000D02*
X56110000Y-39919000D01*
X58190000Y-39919000D02*
X60361000Y-39919000D01*
X53944000Y-39879000D02*
X56110000Y-39879000D01*
X58190000Y-39879000D02*
X60356000Y-39879000D01*
X53949000Y-39839000D02*
X56110000Y-39839000D01*
X58190000Y-39839000D02*
X60351000Y-39839000D01*
X53955000Y-39799000D02*
X56110000Y-39799000D01*
X58190000Y-39799000D02*
X60345000Y-39799000D01*
X53961000Y-39759000D02*
X56110000Y-39759000D01*
X58190000Y-39759000D02*
X60339000Y-39759000D01*
X53968000Y-39719000D02*
X56110000Y-39719000D01*
X58190000Y-39719000D02*
X60332000Y-39719000D01*
X53975000Y-39679000D02*
X56110000Y-39679000D01*
X58190000Y-39679000D02*
X60325000Y-39679000D01*
X53983000Y-39639000D02*
X56110000Y-39639000D01*
X58190000Y-39639000D02*
X60317000Y-39639000D01*
X53991000Y-39599000D02*
X56110000Y-39599000D01*
X58190000Y-39599000D02*
X60309000Y-39599000D01*
X54000000Y-39558000D02*
X56110000Y-39558000D01*
X58190000Y-39558000D02*
X60300000Y-39558000D01*
X54009000Y-39518000D02*
X56110000Y-39518000D01*
X58190000Y-39518000D02*
X60291000Y-39518000D01*
X54019000Y-39478000D02*
X56110000Y-39478000D01*
X58190000Y-39478000D02*
X60281000Y-39478000D01*
X54029000Y-39438000D02*
X56110000Y-39438000D01*
X58190000Y-39438000D02*
X60271000Y-39438000D01*
X54040000Y-39398000D02*
X56110000Y-39398000D01*
X58190000Y-39398000D02*
X60260000Y-39398000D01*
X54052000Y-39358000D02*
X56110000Y-39358000D01*
X58190000Y-39358000D02*
X60248000Y-39358000D01*
X54064000Y-39318000D02*
X56110000Y-39318000D01*
X58190000Y-39318000D02*
X60236000Y-39318000D01*
X54076000Y-39278000D02*
X56110000Y-39278000D01*
X58190000Y-39278000D02*
X60224000Y-39278000D01*
X54089000Y-39238000D02*
X56110000Y-39238000D01*
X58190000Y-39238000D02*
X60211000Y-39238000D01*
X54103000Y-39198000D02*
X56110000Y-39198000D01*
X58190000Y-39198000D02*
X60197000Y-39198000D01*
X54117000Y-39158000D02*
X56110000Y-39158000D01*
X58190000Y-39158000D02*
X60183000Y-39158000D01*
X54132000Y-39118000D02*
X56110000Y-39118000D01*
X58190000Y-39118000D02*
X60168000Y-39118000D01*
X54148000Y-39078000D02*
X56110000Y-39078000D01*
X58190000Y-39078000D02*
X60152000Y-39078000D01*
X54164000Y-39038000D02*
X56110000Y-39038000D01*
X58190000Y-39038000D02*
X60136000Y-39038000D01*
X54180000Y-38998000D02*
X56110000Y-38998000D01*
X58190000Y-38998000D02*
X60120000Y-38998000D01*
X54198000Y-38958000D02*
X56110000Y-38958000D01*
X58190000Y-38958000D02*
X60102000Y-38958000D01*
X54216000Y-38918000D02*
X56110000Y-38918000D01*
X58190000Y-38918000D02*
X60084000Y-38918000D01*
X54234000Y-38878000D02*
X56110000Y-38878000D01*
X58190000Y-38878000D02*
X60066000Y-38878000D01*
X54254000Y-38838000D02*
X56110000Y-38838000D01*
X58190000Y-38838000D02*
X60046000Y-38838000D01*
X54274000Y-38798000D02*
X56110000Y-38798000D01*
X58190000Y-38798000D02*
X60026000Y-38798000D01*
X54294000Y-38758000D02*
X56110000Y-38758000D01*
X58190000Y-38758000D02*
X60006000Y-38758000D01*
X54316000Y-38718000D02*
X56110000Y-38718000D01*
X58190000Y-38718000D02*
X59984000Y-38718000D01*
X54338000Y-38678000D02*
X56110000Y-38678000D01*
X58190000Y-38678000D02*
X59962000Y-38678000D01*
X54360000Y-38638000D02*
X56110000Y-38638000D01*
X58190000Y-38638000D02*
X59940000Y-38638000D01*
X54384000Y-38598000D02*
X56110000Y-38598000D01*
X58190000Y-38598000D02*
X59916000Y-38598000D01*
X54408000Y-38558000D02*
X56110000Y-38558000D01*
X58190000Y-38558000D02*
X59892000Y-38558000D01*
X54434000Y-38518000D02*
X56110000Y-38518000D01*
X58190000Y-38518000D02*
X59866000Y-38518000D01*
X54460000Y-38478000D02*
X56110000Y-38478000D01*
X58190000Y-38478000D02*
X59840000Y-38478000D01*
X54486000Y-38438000D02*
X56110000Y-38438000D01*
X58190000Y-38438000D02*
X59814000Y-38438000D01*
X54514000Y-38398000D02*
X56110000Y-38398000D01*
X58190000Y-38398000D02*
X59786000Y-38398000D01*
X54543000Y-38358000D02*
X56110000Y-38358000D01*
X58190000Y-38358000D02*
X59757000Y-38358000D01*
X54572000Y-38318000D02*
X56110000Y-38318000D01*
X58190000Y-38318000D02*
X59728000Y-38318000D01*
X54602000Y-38278000D02*
X56110000Y-38278000D01*
X58190000Y-38278000D02*
X59698000Y-38278000D01*
X54634000Y-38238000D02*
X56110000Y-38238000D01*
X58190000Y-38238000D02*
X59666000Y-38238000D01*
X54666000Y-38198000D02*
X56110000Y-38198000D01*
X58190000Y-38198000D02*
X59634000Y-38198000D01*
X54700000Y-38158000D02*
X56110000Y-38158000D01*
X58190000Y-38158000D02*
X59600000Y-38158000D01*
X54734000Y-38118000D02*
X56110000Y-38118000D01*
X58190000Y-38118000D02*
X59566000Y-38118000D01*
X54770000Y-38078000D02*
X56110000Y-38078000D01*
X58190000Y-38078000D02*
X59530000Y-38078000D01*
X54807000Y-38038000D02*
X56110000Y-38038000D01*
X58190000Y-38038000D02*
X59493000Y-38038000D01*
X54845000Y-37998000D02*
X56110000Y-37998000D01*
X58190000Y-37998000D02*
X59455000Y-37998000D01*
X54885000Y-37958000D02*
X59415000Y-37958000D01*
X54926000Y-37918000D02*
X59374000Y-37918000D01*
X54968000Y-37878000D02*
X59332000Y-37878000D01*
X55013000Y-37838000D02*
X59287000Y-37838000D01*
X55058000Y-37798000D02*
X59242000Y-37798000D01*
X55106000Y-37758000D02*
X59194000Y-37758000D01*
X55155000Y-37718000D02*
X59145000Y-37718000D01*
X55206000Y-37678000D02*
X59094000Y-37678000D01*
X55260000Y-37638000D02*
X59040000Y-37638000D01*
X55316000Y-37598000D02*
X58984000Y-37598000D01*
X55374000Y-37558000D02*
X58926000Y-37558000D01*
X55436000Y-37518000D02*
X58864000Y-37518000D01*
X55500000Y-37478000D02*
X58800000Y-37478000D01*
X55569000Y-37438000D02*
X58731000Y-37438000D01*
X55641000Y-37398000D02*
X58659000Y-37398000D01*
X55718000Y-37358000D02*
X58582000Y-37358000D01*
X55800000Y-37318000D02*
X58500000Y-37318000D01*
X55888000Y-37278000D02*
X58412000Y-37278000D01*
X55985000Y-37238000D02*
X58315000Y-37238000D01*
X56091000Y-37198000D02*
X58209000Y-37198000D01*
X56210000Y-37158000D02*
X58090000Y-37158000D01*
X56348000Y-37118000D02*
X57952000Y-37118000D01*
X56517000Y-37078000D02*
X57783000Y-37078000D01*
X56748000Y-37038000D02*
X57552000Y-37038000D01*
X55311000Y-43779241D02*
X55311000Y-43149241D01*
X54996000Y-43464241D02*
X55626000Y-43464241D01*
X179185000Y-105664000D02*
G75*
G03X179185000Y-105664000I-3270000J0D01*
G01*
X175915000Y-108894000D02*
X175915000Y-102434000D01*
X175875000Y-108894000D02*
X175875000Y-102434000D01*
X175835000Y-108894000D02*
X175835000Y-102434000D01*
X175795000Y-108892000D02*
X175795000Y-102436000D01*
X175755000Y-108891000D02*
X175755000Y-102437000D01*
X175715000Y-108888000D02*
X175715000Y-102440000D01*
X175675000Y-108886000D02*
X175675000Y-106704000D01*
X175675000Y-104624000D02*
X175675000Y-102442000D01*
X175635000Y-108882000D02*
X175635000Y-106704000D01*
X175635000Y-104624000D02*
X175635000Y-102446000D01*
X175595000Y-108879000D02*
X175595000Y-106704000D01*
X175595000Y-104624000D02*
X175595000Y-102449000D01*
X175555000Y-108875000D02*
X175555000Y-106704000D01*
X175555000Y-104624000D02*
X175555000Y-102453000D01*
X175515000Y-108870000D02*
X175515000Y-106704000D01*
X175515000Y-104624000D02*
X175515000Y-102458000D01*
X175475000Y-108865000D02*
X175475000Y-106704000D01*
X175475000Y-104624000D02*
X175475000Y-102463000D01*
X175435000Y-108859000D02*
X175435000Y-106704000D01*
X175435000Y-104624000D02*
X175435000Y-102469000D01*
X175395000Y-108853000D02*
X175395000Y-106704000D01*
X175395000Y-104624000D02*
X175395000Y-102475000D01*
X175355000Y-108846000D02*
X175355000Y-106704000D01*
X175355000Y-104624000D02*
X175355000Y-102482000D01*
X175315000Y-108839000D02*
X175315000Y-106704000D01*
X175315000Y-104624000D02*
X175315000Y-102489000D01*
X175275000Y-108831000D02*
X175275000Y-106704000D01*
X175275000Y-104624000D02*
X175275000Y-102497000D01*
X175235000Y-108823000D02*
X175235000Y-106704000D01*
X175235000Y-104624000D02*
X175235000Y-102505000D01*
X175194000Y-108814000D02*
X175194000Y-106704000D01*
X175194000Y-104624000D02*
X175194000Y-102514000D01*
X175154000Y-108805000D02*
X175154000Y-106704000D01*
X175154000Y-104624000D02*
X175154000Y-102523000D01*
X175114000Y-108795000D02*
X175114000Y-106704000D01*
X175114000Y-104624000D02*
X175114000Y-102533000D01*
X175074000Y-108785000D02*
X175074000Y-106704000D01*
X175074000Y-104624000D02*
X175074000Y-102543000D01*
X175034000Y-108774000D02*
X175034000Y-106704000D01*
X175034000Y-104624000D02*
X175034000Y-102554000D01*
X174994000Y-108762000D02*
X174994000Y-106704000D01*
X174994000Y-104624000D02*
X174994000Y-102566000D01*
X174954000Y-108750000D02*
X174954000Y-106704000D01*
X174954000Y-104624000D02*
X174954000Y-102578000D01*
X174914000Y-108738000D02*
X174914000Y-106704000D01*
X174914000Y-104624000D02*
X174914000Y-102590000D01*
X174874000Y-108725000D02*
X174874000Y-106704000D01*
X174874000Y-104624000D02*
X174874000Y-102603000D01*
X174834000Y-108711000D02*
X174834000Y-106704000D01*
X174834000Y-104624000D02*
X174834000Y-102617000D01*
X174794000Y-108697000D02*
X174794000Y-106704000D01*
X174794000Y-104624000D02*
X174794000Y-102631000D01*
X174754000Y-108682000D02*
X174754000Y-106704000D01*
X174754000Y-104624000D02*
X174754000Y-102646000D01*
X174714000Y-108666000D02*
X174714000Y-106704000D01*
X174714000Y-104624000D02*
X174714000Y-102662000D01*
X174674000Y-108650000D02*
X174674000Y-106704000D01*
X174674000Y-104624000D02*
X174674000Y-102678000D01*
X174634000Y-108634000D02*
X174634000Y-106704000D01*
X174634000Y-104624000D02*
X174634000Y-102694000D01*
X174594000Y-108616000D02*
X174594000Y-106704000D01*
X174594000Y-104624000D02*
X174594000Y-102712000D01*
X174554000Y-108598000D02*
X174554000Y-106704000D01*
X174554000Y-104624000D02*
X174554000Y-102730000D01*
X174514000Y-108580000D02*
X174514000Y-106704000D01*
X174514000Y-104624000D02*
X174514000Y-102748000D01*
X174474000Y-108560000D02*
X174474000Y-106704000D01*
X174474000Y-104624000D02*
X174474000Y-102768000D01*
X174434000Y-108540000D02*
X174434000Y-106704000D01*
X174434000Y-104624000D02*
X174434000Y-102788000D01*
X174394000Y-108520000D02*
X174394000Y-106704000D01*
X174394000Y-104624000D02*
X174394000Y-102808000D01*
X174354000Y-108498000D02*
X174354000Y-106704000D01*
X174354000Y-104624000D02*
X174354000Y-102830000D01*
X174314000Y-108476000D02*
X174314000Y-106704000D01*
X174314000Y-104624000D02*
X174314000Y-102852000D01*
X174274000Y-108454000D02*
X174274000Y-106704000D01*
X174274000Y-104624000D02*
X174274000Y-102874000D01*
X174234000Y-108430000D02*
X174234000Y-106704000D01*
X174234000Y-104624000D02*
X174234000Y-102898000D01*
X174194000Y-108406000D02*
X174194000Y-106704000D01*
X174194000Y-104624000D02*
X174194000Y-102922000D01*
X174154000Y-108380000D02*
X174154000Y-106704000D01*
X174154000Y-104624000D02*
X174154000Y-102948000D01*
X174114000Y-108354000D02*
X174114000Y-106704000D01*
X174114000Y-104624000D02*
X174114000Y-102974000D01*
X174074000Y-108328000D02*
X174074000Y-106704000D01*
X174074000Y-104624000D02*
X174074000Y-103000000D01*
X174034000Y-108300000D02*
X174034000Y-106704000D01*
X174034000Y-104624000D02*
X174034000Y-103028000D01*
X173994000Y-108271000D02*
X173994000Y-106704000D01*
X173994000Y-104624000D02*
X173994000Y-103057000D01*
X173954000Y-108242000D02*
X173954000Y-106704000D01*
X173954000Y-104624000D02*
X173954000Y-103086000D01*
X173914000Y-108212000D02*
X173914000Y-106704000D01*
X173914000Y-104624000D02*
X173914000Y-103116000D01*
X173874000Y-108180000D02*
X173874000Y-106704000D01*
X173874000Y-104624000D02*
X173874000Y-103148000D01*
X173834000Y-108148000D02*
X173834000Y-106704000D01*
X173834000Y-104624000D02*
X173834000Y-103180000D01*
X173794000Y-108114000D02*
X173794000Y-106704000D01*
X173794000Y-104624000D02*
X173794000Y-103214000D01*
X173754000Y-108080000D02*
X173754000Y-106704000D01*
X173754000Y-104624000D02*
X173754000Y-103248000D01*
X173714000Y-108044000D02*
X173714000Y-106704000D01*
X173714000Y-104624000D02*
X173714000Y-103284000D01*
X173674000Y-108007000D02*
X173674000Y-106704000D01*
X173674000Y-104624000D02*
X173674000Y-103321000D01*
X173634000Y-107969000D02*
X173634000Y-106704000D01*
X173634000Y-104624000D02*
X173634000Y-103359000D01*
X173594000Y-107929000D02*
X173594000Y-103399000D01*
X173554000Y-107888000D02*
X173554000Y-103440000D01*
X173514000Y-107846000D02*
X173514000Y-103482000D01*
X173474000Y-107801000D02*
X173474000Y-103527000D01*
X173434000Y-107756000D02*
X173434000Y-103572000D01*
X173394000Y-107708000D02*
X173394000Y-103620000D01*
X173354000Y-107659000D02*
X173354000Y-103669000D01*
X173314000Y-107608000D02*
X173314000Y-103720000D01*
X173274000Y-107554000D02*
X173274000Y-103774000D01*
X173234000Y-107498000D02*
X173234000Y-103830000D01*
X173194000Y-107440000D02*
X173194000Y-103888000D01*
X173154000Y-107378000D02*
X173154000Y-103950000D01*
X173114000Y-107314000D02*
X173114000Y-104014000D01*
X173074000Y-107245000D02*
X173074000Y-104083000D01*
X173034000Y-107173000D02*
X173034000Y-104155000D01*
X172994000Y-107096000D02*
X172994000Y-104232000D01*
X172954000Y-107014000D02*
X172954000Y-104314000D01*
X172914000Y-106926000D02*
X172914000Y-104402000D01*
X172874000Y-106829000D02*
X172874000Y-104499000D01*
X172834000Y-106723000D02*
X172834000Y-104605000D01*
X172794000Y-106604000D02*
X172794000Y-104724000D01*
X172754000Y-106466000D02*
X172754000Y-104862000D01*
X172714000Y-106297000D02*
X172714000Y-105031000D01*
X172674000Y-106066000D02*
X172674000Y-105262000D01*
X179415241Y-107503000D02*
X178785241Y-107503000D01*
X179100241Y-107818000D02*
X179100241Y-107188000D01*
X123968500Y-88011000D02*
G75*
G03X123968500Y-88011000I-3870000J0D01*
G01*
X120098500Y-91841000D02*
X120098500Y-84181000D01*
X120058500Y-91841000D02*
X120058500Y-84181000D01*
X120018500Y-91841000D02*
X120018500Y-84181000D01*
X119978500Y-91840000D02*
X119978500Y-84182000D01*
X119938500Y-91838000D02*
X119938500Y-84184000D01*
X119898500Y-91836000D02*
X119898500Y-84186000D01*
X119858500Y-91834000D02*
X119858500Y-89051000D01*
X119858500Y-86971000D02*
X119858500Y-84188000D01*
X119818500Y-91831000D02*
X119818500Y-89051000D01*
X119818500Y-86971000D02*
X119818500Y-84191000D01*
X119778500Y-91828000D02*
X119778500Y-89051000D01*
X119778500Y-86971000D02*
X119778500Y-84194000D01*
X119738500Y-91825000D02*
X119738500Y-89051000D01*
X119738500Y-86971000D02*
X119738500Y-84197000D01*
X119698500Y-91821000D02*
X119698500Y-89051000D01*
X119698500Y-86971000D02*
X119698500Y-84201000D01*
X119658500Y-91816000D02*
X119658500Y-89051000D01*
X119658500Y-86971000D02*
X119658500Y-84206000D01*
X119618500Y-91812000D02*
X119618500Y-89051000D01*
X119618500Y-86971000D02*
X119618500Y-84210000D01*
X119578500Y-91806000D02*
X119578500Y-89051000D01*
X119578500Y-86971000D02*
X119578500Y-84216000D01*
X119538500Y-91801000D02*
X119538500Y-89051000D01*
X119538500Y-86971000D02*
X119538500Y-84221000D01*
X119498500Y-91795000D02*
X119498500Y-89051000D01*
X119498500Y-86971000D02*
X119498500Y-84227000D01*
X119458500Y-91788000D02*
X119458500Y-89051000D01*
X119458500Y-86971000D02*
X119458500Y-84234000D01*
X119418500Y-91781000D02*
X119418500Y-89051000D01*
X119418500Y-86971000D02*
X119418500Y-84241000D01*
X119377500Y-91774000D02*
X119377500Y-89051000D01*
X119377500Y-86971000D02*
X119377500Y-84248000D01*
X119337500Y-91766000D02*
X119337500Y-89051000D01*
X119337500Y-86971000D02*
X119337500Y-84256000D01*
X119297500Y-91758000D02*
X119297500Y-89051000D01*
X119297500Y-86971000D02*
X119297500Y-84264000D01*
X119257500Y-91749000D02*
X119257500Y-89051000D01*
X119257500Y-86971000D02*
X119257500Y-84273000D01*
X119217500Y-91740000D02*
X119217500Y-89051000D01*
X119217500Y-86971000D02*
X119217500Y-84282000D01*
X119177500Y-91731000D02*
X119177500Y-89051000D01*
X119177500Y-86971000D02*
X119177500Y-84291000D01*
X119137500Y-91721000D02*
X119137500Y-89051000D01*
X119137500Y-86971000D02*
X119137500Y-84301000D01*
X119097500Y-91710000D02*
X119097500Y-89051000D01*
X119097500Y-86971000D02*
X119097500Y-84312000D01*
X119057500Y-91699000D02*
X119057500Y-89051000D01*
X119057500Y-86971000D02*
X119057500Y-84323000D01*
X119017500Y-91688000D02*
X119017500Y-89051000D01*
X119017500Y-86971000D02*
X119017500Y-84334000D01*
X118977500Y-91676000D02*
X118977500Y-89051000D01*
X118977500Y-86971000D02*
X118977500Y-84346000D01*
X118937500Y-91664000D02*
X118937500Y-89051000D01*
X118937500Y-86971000D02*
X118937500Y-84358000D01*
X118897500Y-91651000D02*
X118897500Y-89051000D01*
X118897500Y-86971000D02*
X118897500Y-84371000D01*
X118857500Y-91637000D02*
X118857500Y-89051000D01*
X118857500Y-86971000D02*
X118857500Y-84385000D01*
X118817500Y-91624000D02*
X118817500Y-89051000D01*
X118817500Y-86971000D02*
X118817500Y-84398000D01*
X118777500Y-91609000D02*
X118777500Y-89051000D01*
X118777500Y-86971000D02*
X118777500Y-84413000D01*
X118737500Y-91595000D02*
X118737500Y-89051000D01*
X118737500Y-86971000D02*
X118737500Y-84427000D01*
X118697500Y-91579000D02*
X118697500Y-89051000D01*
X118697500Y-86971000D02*
X118697500Y-84443000D01*
X118657500Y-91564000D02*
X118657500Y-89051000D01*
X118657500Y-86971000D02*
X118657500Y-84458000D01*
X118617500Y-91547000D02*
X118617500Y-89051000D01*
X118617500Y-86971000D02*
X118617500Y-84475000D01*
X118577500Y-91531000D02*
X118577500Y-89051000D01*
X118577500Y-86971000D02*
X118577500Y-84491000D01*
X118537500Y-91513000D02*
X118537500Y-89051000D01*
X118537500Y-86971000D02*
X118537500Y-84509000D01*
X118497500Y-91495000D02*
X118497500Y-89051000D01*
X118497500Y-86971000D02*
X118497500Y-84527000D01*
X118457500Y-91477000D02*
X118457500Y-89051000D01*
X118457500Y-86971000D02*
X118457500Y-84545000D01*
X118417500Y-91458000D02*
X118417500Y-89051000D01*
X118417500Y-86971000D02*
X118417500Y-84564000D01*
X118377500Y-91438000D02*
X118377500Y-89051000D01*
X118377500Y-86971000D02*
X118377500Y-84584000D01*
X118337500Y-91418000D02*
X118337500Y-89051000D01*
X118337500Y-86971000D02*
X118337500Y-84604000D01*
X118297500Y-91397000D02*
X118297500Y-89051000D01*
X118297500Y-86971000D02*
X118297500Y-84625000D01*
X118257500Y-91376000D02*
X118257500Y-89051000D01*
X118257500Y-86971000D02*
X118257500Y-84646000D01*
X118217500Y-91354000D02*
X118217500Y-89051000D01*
X118217500Y-86971000D02*
X118217500Y-84668000D01*
X118177500Y-91332000D02*
X118177500Y-89051000D01*
X118177500Y-86971000D02*
X118177500Y-84690000D01*
X118137500Y-91308000D02*
X118137500Y-89051000D01*
X118137500Y-86971000D02*
X118137500Y-84714000D01*
X118097500Y-91285000D02*
X118097500Y-89051000D01*
X118097500Y-86971000D02*
X118097500Y-84737000D01*
X118057500Y-91260000D02*
X118057500Y-89051000D01*
X118057500Y-86971000D02*
X118057500Y-84762000D01*
X118017500Y-91235000D02*
X118017500Y-89051000D01*
X118017500Y-86971000D02*
X118017500Y-84787000D01*
X117977500Y-91209000D02*
X117977500Y-89051000D01*
X117977500Y-86971000D02*
X117977500Y-84813000D01*
X117937500Y-91183000D02*
X117937500Y-89051000D01*
X117937500Y-86971000D02*
X117937500Y-84839000D01*
X117897500Y-91155000D02*
X117897500Y-89051000D01*
X117897500Y-86971000D02*
X117897500Y-84867000D01*
X117857500Y-91127000D02*
X117857500Y-89051000D01*
X117857500Y-86971000D02*
X117857500Y-84895000D01*
X117817500Y-91099000D02*
X117817500Y-89051000D01*
X117817500Y-86971000D02*
X117817500Y-84923000D01*
X117777500Y-91069000D02*
X117777500Y-84953000D01*
X117737500Y-91039000D02*
X117737500Y-84983000D01*
X117697500Y-91007000D02*
X117697500Y-85015000D01*
X117657500Y-90975000D02*
X117657500Y-85047000D01*
X117617500Y-90942000D02*
X117617500Y-85080000D01*
X117577500Y-90909000D02*
X117577500Y-85113000D01*
X117537500Y-90874000D02*
X117537500Y-85148000D01*
X117497500Y-90838000D02*
X117497500Y-85184000D01*
X117457500Y-90801000D02*
X117457500Y-85221000D01*
X117417500Y-90763000D02*
X117417500Y-85259000D01*
X117377500Y-90724000D02*
X117377500Y-85298000D01*
X117337500Y-90684000D02*
X117337500Y-85338000D01*
X117297500Y-90643000D02*
X117297500Y-85379000D01*
X117257500Y-90600000D02*
X117257500Y-85422000D01*
X117217500Y-90557000D02*
X117217500Y-85465000D01*
X117177500Y-90511000D02*
X117177500Y-85511000D01*
X117137500Y-90465000D02*
X117137500Y-85557000D01*
X117097500Y-90416000D02*
X117097500Y-85606000D01*
X117057500Y-90366000D02*
X117057500Y-85656000D01*
X117017500Y-90315000D02*
X117017500Y-85707000D01*
X116977500Y-90261000D02*
X116977500Y-85761000D01*
X116937500Y-90206000D02*
X116937500Y-85816000D01*
X116897500Y-90148000D02*
X116897500Y-85874000D01*
X116857500Y-90088000D02*
X116857500Y-85934000D01*
X116817500Y-90025000D02*
X116817500Y-85997000D01*
X116777500Y-89960000D02*
X116777500Y-86062000D01*
X116737500Y-89892000D02*
X116737500Y-86130000D01*
X116697500Y-89820000D02*
X116697500Y-86202000D01*
X116657500Y-89744000D02*
X116657500Y-86278000D01*
X116617500Y-89665000D02*
X116617500Y-86357000D01*
X116577500Y-89580000D02*
X116577500Y-86442000D01*
X116537500Y-89489000D02*
X116537500Y-86533000D01*
X116497500Y-89392000D02*
X116497500Y-86630000D01*
X116457500Y-89286000D02*
X116457500Y-86736000D01*
X116417500Y-89169000D02*
X116417500Y-86853000D01*
X116377500Y-89039000D02*
X116377500Y-86983000D01*
X116337500Y-88888000D02*
X116337500Y-87134000D01*
X116297500Y-88704000D02*
X116297500Y-87318000D01*
X116257500Y-88452000D02*
X116257500Y-87570000D01*
X124240711Y-90186000D02*
X123490711Y-90186000D01*
X123865711Y-90561000D02*
X123865711Y-89811000D01*
X47310000Y-113687000D02*
X42720000Y-113687000D01*
X27310000Y-113687000D02*
X27310000Y-107687000D01*
X27310000Y-107687000D02*
X47310000Y-107687000D01*
X47310000Y-107687000D02*
X47310000Y-113687000D01*
X41100000Y-113687000D02*
X33530000Y-113687000D01*
X31890000Y-113687000D02*
X27310000Y-113687000D01*
X41986500Y-123910500D02*
X37406500Y-123910500D01*
X51196500Y-123910500D02*
X43626500Y-123910500D01*
X57406500Y-117910500D02*
X57406500Y-123910500D01*
X37406500Y-117910500D02*
X57406500Y-117910500D01*
X37406500Y-123910500D02*
X37406500Y-117910500D01*
X57406500Y-123910500D02*
X52816500Y-123910500D01*
X65345000Y-39670000D02*
X65345000Y-42330000D01*
X73025000Y-39670000D02*
X65345000Y-39670000D01*
X73025000Y-42330000D02*
X65345000Y-42330000D01*
X73025000Y-39670000D02*
X73025000Y-42330000D01*
X74295000Y-39670000D02*
X75625000Y-39670000D01*
X75625000Y-39670000D02*
X75625000Y-41000000D01*
X122548000Y-74592000D02*
X122548000Y-64092000D01*
X101988000Y-74592000D02*
X122548000Y-74592000D01*
X101988000Y-64092000D02*
X101988000Y-74592000D01*
X122548000Y-64092000D02*
X101988000Y-64092000D01*
X122488000Y-71592000D02*
X122488000Y-70342000D01*
X102048000Y-71592000D02*
X122488000Y-71592000D01*
X102048000Y-67092000D02*
X102048000Y-71592000D01*
X122488000Y-67092000D02*
X102048000Y-67092000D01*
X122488000Y-68342000D02*
X122488000Y-67092000D01*
X122488000Y-70342000D02*
G75*
G02X122488000Y-68342000I0J1000000D01*
G01*
X89722000Y-70342000D02*
G75*
G02X89722000Y-68342000I0J1000000D01*
G01*
X89722000Y-68342000D02*
X89722000Y-67092000D01*
X89722000Y-67092000D02*
X69282000Y-67092000D01*
X69282000Y-67092000D02*
X69282000Y-71592000D01*
X69282000Y-71592000D02*
X89722000Y-71592000D01*
X89722000Y-71592000D02*
X89722000Y-70342000D01*
X89782000Y-64092000D02*
X69222000Y-64092000D01*
X69222000Y-64092000D02*
X69222000Y-74592000D01*
X69222000Y-74592000D02*
X89782000Y-74592000D01*
X89782000Y-74592000D02*
X89782000Y-64092000D01*
X99628000Y-105775000D02*
G75*
G02X99628000Y-103775000I0J1000000D01*
G01*
X99628000Y-103775000D02*
X99628000Y-102525000D01*
X99628000Y-102525000D02*
X76648000Y-102525000D01*
X76648000Y-102525000D02*
X76648000Y-107025000D01*
X76648000Y-107025000D02*
X99628000Y-107025000D01*
X99628000Y-107025000D02*
X99628000Y-105775000D01*
X99688000Y-99525000D02*
X76588000Y-99525000D01*
X76588000Y-99525000D02*
X76588000Y-110025000D01*
X76588000Y-110025000D02*
X99688000Y-110025000D01*
X99688000Y-110025000D02*
X99688000Y-99525000D01*
X55599000Y-46151000D02*
X55599000Y-53591000D01*
X52859000Y-46151000D02*
X52859000Y-53591000D01*
X55599000Y-46151000D02*
X52859000Y-46151000D01*
X55599000Y-53591000D02*
X52859000Y-53591000D01*
X111987000Y-53210000D02*
X109247000Y-53210000D01*
X111987000Y-45770000D02*
X109247000Y-45770000D01*
X109247000Y-45770000D02*
X109247000Y-53210000D01*
X111987000Y-45770000D02*
X111987000Y-53210000D01*
X84174000Y-45897000D02*
X84174000Y-53337000D01*
X81434000Y-45897000D02*
X81434000Y-53337000D01*
X84174000Y-45897000D02*
X81434000Y-45897000D01*
X84174000Y-53337000D02*
X81434000Y-53337000D01*
X139546000Y-53210000D02*
X136806000Y-53210000D01*
X139546000Y-45770000D02*
X136806000Y-45770000D01*
X136806000Y-45770000D02*
X136806000Y-53210000D01*
X139546000Y-45770000D02*
X139546000Y-53210000D01*
D10*
X68976976Y-113434880D02*
X68976976Y-114149166D01*
X68929357Y-114292023D01*
X68834119Y-114387261D01*
X68691261Y-114434880D01*
X68596023Y-114434880D01*
X69976976Y-114434880D02*
X69405547Y-114434880D01*
X69691261Y-114434880D02*
X69691261Y-113434880D01*
X69596023Y-113577738D01*
X69500785Y-113672976D01*
X69405547Y-113720595D01*
X70929357Y-114434880D02*
X70357928Y-114434880D01*
X70643642Y-114434880D02*
X70643642Y-113434880D01*
X70548404Y-113577738D01*
X70453166Y-113672976D01*
X70357928Y-113720595D01*
X31607166Y-100925380D02*
X31607166Y-101639666D01*
X31559547Y-101782523D01*
X31464309Y-101877761D01*
X31321452Y-101925380D01*
X31226214Y-101925380D01*
X32607166Y-101925380D02*
X32035738Y-101925380D01*
X32321452Y-101925380D02*
X32321452Y-100925380D01*
X32226214Y-101068238D01*
X32130976Y-101163476D01*
X32035738Y-101211095D01*
X39250928Y-97630809D02*
X39250928Y-96868904D01*
X38727119Y-96440333D02*
X38679500Y-96392714D01*
X38631880Y-96297476D01*
X38631880Y-96059380D01*
X38679500Y-95964142D01*
X38727119Y-95916523D01*
X38822357Y-95868904D01*
X38917595Y-95868904D01*
X39060452Y-95916523D01*
X39631880Y-96487952D01*
X39631880Y-95868904D01*
X38965214Y-95011761D02*
X39631880Y-95011761D01*
X38584261Y-95249857D02*
X39298547Y-95487952D01*
X39298547Y-94868904D01*
X38631880Y-94630809D02*
X39631880Y-94297476D01*
X38631880Y-93964142D01*
X39631880Y-92868904D02*
X38631880Y-92868904D01*
X39631880Y-92392714D02*
X38631880Y-92392714D01*
X39631880Y-91821285D01*
X38631880Y-91821285D01*
X39250928Y-91345095D02*
X39250928Y-90583190D01*
X39631880Y-90964142D02*
X38869976Y-90964142D01*
X124094976Y-115085880D02*
X124094976Y-115800166D01*
X124047357Y-115943023D01*
X123952119Y-116038261D01*
X123809261Y-116085880D01*
X123714023Y-116085880D01*
X124523547Y-115181119D02*
X124571166Y-115133500D01*
X124666404Y-115085880D01*
X124904500Y-115085880D01*
X124999738Y-115133500D01*
X125047357Y-115181119D01*
X125094976Y-115276357D01*
X125094976Y-115371595D01*
X125047357Y-115514452D01*
X124475928Y-116085880D01*
X125094976Y-116085880D01*
X125714023Y-115085880D02*
X125809261Y-115085880D01*
X125904500Y-115133500D01*
X125952119Y-115181119D01*
X125999738Y-115276357D01*
X126047357Y-115466833D01*
X126047357Y-115704928D01*
X125999738Y-115895404D01*
X125952119Y-115990642D01*
X125904500Y-116038261D01*
X125809261Y-116085880D01*
X125714023Y-116085880D01*
X125618785Y-116038261D01*
X125571166Y-115990642D01*
X125523547Y-115895404D01*
X125475928Y-115704928D01*
X125475928Y-115466833D01*
X125523547Y-115276357D01*
X125571166Y-115181119D01*
X125618785Y-115133500D01*
X125714023Y-115085880D01*
X133683476Y-115212880D02*
X133683476Y-115927166D01*
X133635857Y-116070023D01*
X133540619Y-116165261D01*
X133397761Y-116212880D01*
X133302523Y-116212880D01*
X134112047Y-115308119D02*
X134159666Y-115260500D01*
X134254904Y-115212880D01*
X134493000Y-115212880D01*
X134588238Y-115260500D01*
X134635857Y-115308119D01*
X134683476Y-115403357D01*
X134683476Y-115498595D01*
X134635857Y-115641452D01*
X134064428Y-116212880D01*
X134683476Y-116212880D01*
X135635857Y-116212880D02*
X135064428Y-116212880D01*
X135350142Y-116212880D02*
X135350142Y-115212880D01*
X135254904Y-115355738D01*
X135159666Y-115450976D01*
X135064428Y-115498595D01*
X144033976Y-115085880D02*
X144033976Y-115800166D01*
X143986357Y-115943023D01*
X143891119Y-116038261D01*
X143748261Y-116085880D01*
X143653023Y-116085880D01*
X144414928Y-115085880D02*
X145033976Y-115085880D01*
X144700642Y-115466833D01*
X144843500Y-115466833D01*
X144938738Y-115514452D01*
X144986357Y-115562071D01*
X145033976Y-115657309D01*
X145033976Y-115895404D01*
X144986357Y-115990642D01*
X144938738Y-116038261D01*
X144843500Y-116085880D01*
X144557785Y-116085880D01*
X144462547Y-116038261D01*
X144414928Y-115990642D01*
X145653023Y-115085880D02*
X145748261Y-115085880D01*
X145843500Y-115133500D01*
X145891119Y-115181119D01*
X145938738Y-115276357D01*
X145986357Y-115466833D01*
X145986357Y-115704928D01*
X145938738Y-115895404D01*
X145891119Y-115990642D01*
X145843500Y-116038261D01*
X145748261Y-116085880D01*
X145653023Y-116085880D01*
X145557785Y-116038261D01*
X145510166Y-115990642D01*
X145462547Y-115895404D01*
X145414928Y-115704928D01*
X145414928Y-115466833D01*
X145462547Y-115276357D01*
X145510166Y-115181119D01*
X145557785Y-115133500D01*
X145653023Y-115085880D01*
X154765476Y-115149380D02*
X154765476Y-115863666D01*
X154717857Y-116006523D01*
X154622619Y-116101761D01*
X154479761Y-116149380D01*
X154384523Y-116149380D01*
X155146428Y-115149380D02*
X155765476Y-115149380D01*
X155432142Y-115530333D01*
X155575000Y-115530333D01*
X155670238Y-115577952D01*
X155717857Y-115625571D01*
X155765476Y-115720809D01*
X155765476Y-115958904D01*
X155717857Y-116054142D01*
X155670238Y-116101761D01*
X155575000Y-116149380D01*
X155289285Y-116149380D01*
X155194047Y-116101761D01*
X155146428Y-116054142D01*
X156717857Y-116149380D02*
X156146428Y-116149380D01*
X156432142Y-116149380D02*
X156432142Y-115149380D01*
X156336904Y-115292238D01*
X156241666Y-115387476D01*
X156146428Y-115435095D01*
X166576476Y-115085880D02*
X166576476Y-115800166D01*
X166528857Y-115943023D01*
X166433619Y-116038261D01*
X166290761Y-116085880D01*
X166195523Y-116085880D01*
X166957428Y-115085880D02*
X167576476Y-115085880D01*
X167243142Y-115466833D01*
X167386000Y-115466833D01*
X167481238Y-115514452D01*
X167528857Y-115562071D01*
X167576476Y-115657309D01*
X167576476Y-115895404D01*
X167528857Y-115990642D01*
X167481238Y-116038261D01*
X167386000Y-116085880D01*
X167100285Y-116085880D01*
X167005047Y-116038261D01*
X166957428Y-115990642D01*
X167957428Y-115181119D02*
X168005047Y-115133500D01*
X168100285Y-115085880D01*
X168338380Y-115085880D01*
X168433619Y-115133500D01*
X168481238Y-115181119D01*
X168528857Y-115276357D01*
X168528857Y-115371595D01*
X168481238Y-115514452D01*
X167909809Y-116085880D01*
X168528857Y-116085880D01*
X79454476Y-113371380D02*
X79454476Y-114085666D01*
X79406857Y-114228523D01*
X79311619Y-114323761D01*
X79168761Y-114371380D01*
X79073523Y-114371380D01*
X80454476Y-114371380D02*
X79883047Y-114371380D01*
X80168761Y-114371380D02*
X80168761Y-113371380D01*
X80073523Y-113514238D01*
X79978285Y-113609476D01*
X79883047Y-113657095D01*
X81073523Y-113371380D02*
X81168761Y-113371380D01*
X81264000Y-113419000D01*
X81311619Y-113466619D01*
X81359238Y-113561857D01*
X81406857Y-113752333D01*
X81406857Y-113990428D01*
X81359238Y-114180904D01*
X81311619Y-114276142D01*
X81264000Y-114323761D01*
X81168761Y-114371380D01*
X81073523Y-114371380D01*
X80978285Y-114323761D01*
X80930666Y-114276142D01*
X80883047Y-114180904D01*
X80835428Y-113990428D01*
X80835428Y-113752333D01*
X80883047Y-113561857D01*
X80930666Y-113466619D01*
X80978285Y-113419000D01*
X81073523Y-113371380D01*
X110188476Y-113561880D02*
X110188476Y-114276166D01*
X110140857Y-114419023D01*
X110045619Y-114514261D01*
X109902761Y-114561880D01*
X109807523Y-114561880D01*
X111188476Y-114561880D02*
X110617047Y-114561880D01*
X110902761Y-114561880D02*
X110902761Y-113561880D01*
X110807523Y-113704738D01*
X110712285Y-113799976D01*
X110617047Y-113847595D01*
X111569428Y-113657119D02*
X111617047Y-113609500D01*
X111712285Y-113561880D01*
X111950380Y-113561880D01*
X112045619Y-113609500D01*
X112093238Y-113657119D01*
X112140857Y-113752357D01*
X112140857Y-113847595D01*
X112093238Y-113990452D01*
X111521809Y-114561880D01*
X112140857Y-114561880D01*
X100091976Y-113498380D02*
X100091976Y-114212666D01*
X100044357Y-114355523D01*
X99949119Y-114450761D01*
X99806261Y-114498380D01*
X99711023Y-114498380D01*
X101091976Y-114498380D02*
X100520547Y-114498380D01*
X100806261Y-114498380D02*
X100806261Y-113498380D01*
X100711023Y-113641238D01*
X100615785Y-113736476D01*
X100520547Y-113784095D01*
X101425309Y-113498380D02*
X102044357Y-113498380D01*
X101711023Y-113879333D01*
X101853880Y-113879333D01*
X101949119Y-113926952D01*
X101996738Y-113974571D01*
X102044357Y-114069809D01*
X102044357Y-114307904D01*
X101996738Y-114403142D01*
X101949119Y-114450761D01*
X101853880Y-114498380D01*
X101568166Y-114498380D01*
X101472928Y-114450761D01*
X101425309Y-114403142D01*
X89677976Y-113498380D02*
X89677976Y-114212666D01*
X89630357Y-114355523D01*
X89535119Y-114450761D01*
X89392261Y-114498380D01*
X89297023Y-114498380D01*
X90677976Y-114498380D02*
X90106547Y-114498380D01*
X90392261Y-114498380D02*
X90392261Y-113498380D01*
X90297023Y-113641238D01*
X90201785Y-113736476D01*
X90106547Y-113784095D01*
X91535119Y-113831714D02*
X91535119Y-114498380D01*
X91297023Y-113450761D02*
X91058928Y-114165047D01*
X91677976Y-114165047D01*
D13*
X125690790Y-87751561D02*
X125690790Y-88561409D01*
X125738428Y-88656685D01*
X125786066Y-88704323D01*
X125881342Y-88751961D01*
X126071895Y-88751961D01*
X126167171Y-88704323D01*
X126214809Y-88656685D01*
X126262447Y-88561409D01*
X126262447Y-87751561D01*
X127262847Y-88751961D02*
X126691190Y-88751961D01*
X126977019Y-88751961D02*
X126977019Y-87751561D01*
X126881742Y-87894476D01*
X126786466Y-87989752D01*
X126691190Y-88037390D01*
X165066666Y-75328571D02*
X165400000Y-75328571D01*
X165542857Y-75852380D02*
X165066666Y-75852380D01*
X165066666Y-74852380D01*
X165542857Y-74852380D01*
X165923809Y-75804761D02*
X166066666Y-75852380D01*
X166304761Y-75852380D01*
X166400000Y-75804761D01*
X166447619Y-75757142D01*
X166495238Y-75661904D01*
X166495238Y-75566666D01*
X166447619Y-75471428D01*
X166400000Y-75423809D01*
X166304761Y-75376190D01*
X166114285Y-75328571D01*
X166019047Y-75280952D01*
X165971428Y-75233333D01*
X165923809Y-75138095D01*
X165923809Y-75042857D01*
X165971428Y-74947619D01*
X166019047Y-74900000D01*
X166114285Y-74852380D01*
X166352380Y-74852380D01*
X166495238Y-74900000D01*
X166923809Y-75852380D02*
X166923809Y-74852380D01*
X167304761Y-74852380D01*
X167400000Y-74900000D01*
X167447619Y-74947619D01*
X167495238Y-75042857D01*
X167495238Y-75185714D01*
X167447619Y-75280952D01*
X167400000Y-75328571D01*
X167304761Y-75376190D01*
X166923809Y-75376190D01*
X167828571Y-74852380D02*
X168447619Y-74852380D01*
X168114285Y-75233333D01*
X168257142Y-75233333D01*
X168352380Y-75280952D01*
X168400000Y-75328571D01*
X168447619Y-75423809D01*
X168447619Y-75661904D01*
X168400000Y-75757142D01*
X168352380Y-75804761D01*
X168257142Y-75852380D01*
X167971428Y-75852380D01*
X167876190Y-75804761D01*
X167828571Y-75757142D01*
X168828571Y-74947619D02*
X168876190Y-74900000D01*
X168971428Y-74852380D01*
X169209523Y-74852380D01*
X169304761Y-74900000D01*
X169352380Y-74947619D01*
X169400000Y-75042857D01*
X169400000Y-75138095D01*
X169352380Y-75280952D01*
X168780952Y-75852380D01*
X169400000Y-75852380D01*
X169828571Y-75471428D02*
X170590476Y-75471428D01*
X171066666Y-75852380D02*
X171066666Y-74852380D01*
X171304761Y-74852380D01*
X171447619Y-74900000D01*
X171542857Y-74995238D01*
X171590476Y-75090476D01*
X171638095Y-75280952D01*
X171638095Y-75423809D01*
X171590476Y-75614285D01*
X171542857Y-75709523D01*
X171447619Y-75804761D01*
X171304761Y-75852380D01*
X171066666Y-75852380D01*
X172066666Y-75328571D02*
X172400000Y-75328571D01*
X172542857Y-75852380D02*
X172066666Y-75852380D01*
X172066666Y-74852380D01*
X172542857Y-74852380D01*
X172828571Y-74852380D02*
X173161904Y-75852380D01*
X173495238Y-74852380D01*
X173828571Y-75852380D02*
X173828571Y-74852380D01*
X174400000Y-75852380D02*
X173971428Y-75280952D01*
X174400000Y-74852380D02*
X173828571Y-75423809D01*
X174828571Y-75852380D02*
X174828571Y-74852380D01*
X175161904Y-74852380D02*
X175733333Y-74852380D01*
X175447619Y-75852380D02*
X175447619Y-74852380D01*
X176638095Y-75757142D02*
X176590476Y-75804761D01*
X176447619Y-75852380D01*
X176352380Y-75852380D01*
X176209523Y-75804761D01*
X176114285Y-75709523D01*
X176066666Y-75614285D01*
X176019047Y-75423809D01*
X176019047Y-75280952D01*
X176066666Y-75090476D01*
X176114285Y-74995238D01*
X176209523Y-74900000D01*
X176352380Y-74852380D01*
X176447619Y-74852380D01*
X176590476Y-74900000D01*
X176638095Y-74947619D01*
X177066666Y-75471428D02*
X177828571Y-75471428D01*
X178209523Y-74852380D02*
X178828571Y-74852380D01*
X178495238Y-75233333D01*
X178638095Y-75233333D01*
X178733333Y-75280952D01*
X178780952Y-75328571D01*
X178828571Y-75423809D01*
X178828571Y-75661904D01*
X178780952Y-75757142D01*
X178733333Y-75804761D01*
X178638095Y-75852380D01*
X178352380Y-75852380D01*
X178257142Y-75804761D01*
X178209523Y-75757142D01*
X179209523Y-74947619D02*
X179257142Y-74900000D01*
X179352380Y-74852380D01*
X179590476Y-74852380D01*
X179685714Y-74900000D01*
X179733333Y-74947619D01*
X179780952Y-75042857D01*
X179780952Y-75138095D01*
X179733333Y-75280952D01*
X179161904Y-75852380D01*
X179780952Y-75852380D01*
X180209523Y-75852380D02*
X180209523Y-74852380D01*
X180447619Y-74852380D01*
X180590476Y-74900000D01*
X180685714Y-74995238D01*
X180733333Y-75090476D01*
X180780952Y-75280952D01*
X180780952Y-75423809D01*
X180733333Y-75614285D01*
X180685714Y-75709523D01*
X180590476Y-75804761D01*
X180447619Y-75852380D01*
X180209523Y-75852380D01*
D10*
X165369976Y-95146880D02*
X165369976Y-95861166D01*
X165322357Y-96004023D01*
X165227119Y-96099261D01*
X165084261Y-96146880D01*
X164989023Y-96146880D01*
X166274738Y-95146880D02*
X166084261Y-95146880D01*
X165989023Y-95194500D01*
X165941404Y-95242119D01*
X165846166Y-95384976D01*
X165798547Y-95575452D01*
X165798547Y-95956404D01*
X165846166Y-96051642D01*
X165893785Y-96099261D01*
X165989023Y-96146880D01*
X166179500Y-96146880D01*
X166274738Y-96099261D01*
X166322357Y-96051642D01*
X166369976Y-95956404D01*
X166369976Y-95718309D01*
X166322357Y-95623071D01*
X166274738Y-95575452D01*
X166179500Y-95527833D01*
X165989023Y-95527833D01*
X165893785Y-95575452D01*
X165846166Y-95623071D01*
X165798547Y-95718309D01*
X166989023Y-95146880D02*
X167084261Y-95146880D01*
X167179500Y-95194500D01*
X167227119Y-95242119D01*
X167274738Y-95337357D01*
X167322357Y-95527833D01*
X167322357Y-95765928D01*
X167274738Y-95956404D01*
X167227119Y-96051642D01*
X167179500Y-96099261D01*
X167084261Y-96146880D01*
X166989023Y-96146880D01*
X166893785Y-96099261D01*
X166846166Y-96051642D01*
X166798547Y-95956404D01*
X166750928Y-95765928D01*
X166750928Y-95527833D01*
X166798547Y-95337357D01*
X166846166Y-95242119D01*
X166893785Y-95194500D01*
X166989023Y-95146880D01*
X163679500Y-97357071D02*
X163822357Y-97404690D01*
X163869976Y-97452309D01*
X163917595Y-97547547D01*
X163917595Y-97690404D01*
X163869976Y-97785642D01*
X163822357Y-97833261D01*
X163727119Y-97880880D01*
X163346166Y-97880880D01*
X163346166Y-96880880D01*
X163679500Y-96880880D01*
X163774738Y-96928500D01*
X163822357Y-96976119D01*
X163869976Y-97071357D01*
X163869976Y-97166595D01*
X163822357Y-97261833D01*
X163774738Y-97309452D01*
X163679500Y-97357071D01*
X163346166Y-97357071D01*
X164822357Y-97880880D02*
X164346166Y-97880880D01*
X164346166Y-96880880D01*
X165012833Y-96880880D02*
X165584261Y-96880880D01*
X165298547Y-97880880D02*
X165298547Y-96880880D01*
X166060452Y-97880880D02*
X165965214Y-97833261D01*
X165917595Y-97785642D01*
X165869976Y-97690404D01*
X165869976Y-97404690D01*
X165917595Y-97309452D01*
X165965214Y-97261833D01*
X166060452Y-97214214D01*
X166203309Y-97214214D01*
X166298547Y-97261833D01*
X166346166Y-97309452D01*
X166393785Y-97404690D01*
X166393785Y-97690404D01*
X166346166Y-97785642D01*
X166298547Y-97833261D01*
X166203309Y-97880880D01*
X166060452Y-97880880D01*
X167250928Y-97214214D02*
X167250928Y-97880880D01*
X166822357Y-97214214D02*
X166822357Y-97738023D01*
X166869976Y-97833261D01*
X166965214Y-97880880D01*
X167108071Y-97880880D01*
X167203309Y-97833261D01*
X167250928Y-97785642D01*
X168155690Y-97833261D02*
X168060452Y-97880880D01*
X167869976Y-97880880D01*
X167774738Y-97833261D01*
X167727119Y-97785642D01*
X167679500Y-97690404D01*
X167679500Y-97404690D01*
X167727119Y-97309452D01*
X167774738Y-97261833D01*
X167869976Y-97214214D01*
X168060452Y-97214214D01*
X168155690Y-97261833D01*
X168584261Y-97880880D02*
X168584261Y-96880880D01*
X169012833Y-97880880D02*
X169012833Y-97357071D01*
X168965214Y-97261833D01*
X168869976Y-97214214D01*
X168727119Y-97214214D01*
X168631880Y-97261833D01*
X168584261Y-97309452D01*
X155019476Y-94194380D02*
X155019476Y-94908666D01*
X154971857Y-95051523D01*
X154876619Y-95146761D01*
X154733761Y-95194380D01*
X154638523Y-95194380D01*
X155924238Y-94527714D02*
X155924238Y-95194380D01*
X155686142Y-94146761D02*
X155448047Y-94861047D01*
X156067095Y-94861047D01*
X156638523Y-94194380D02*
X156733761Y-94194380D01*
X156829000Y-94242000D01*
X156876619Y-94289619D01*
X156924238Y-94384857D01*
X156971857Y-94575333D01*
X156971857Y-94813428D01*
X156924238Y-95003904D01*
X156876619Y-95099142D01*
X156829000Y-95146761D01*
X156733761Y-95194380D01*
X156638523Y-95194380D01*
X156543285Y-95146761D01*
X156495666Y-95099142D01*
X156448047Y-95003904D01*
X156400428Y-94813428D01*
X156400428Y-94575333D01*
X156448047Y-94384857D01*
X156495666Y-94289619D01*
X156543285Y-94242000D01*
X156638523Y-94194380D01*
X155138523Y-96845380D02*
X154662333Y-96845380D01*
X154662333Y-95845380D01*
X156043285Y-96750142D02*
X155995666Y-96797761D01*
X155852809Y-96845380D01*
X155757571Y-96845380D01*
X155614714Y-96797761D01*
X155519476Y-96702523D01*
X155471857Y-96607285D01*
X155424238Y-96416809D01*
X155424238Y-96273952D01*
X155471857Y-96083476D01*
X155519476Y-95988238D01*
X155614714Y-95893000D01*
X155757571Y-95845380D01*
X155852809Y-95845380D01*
X155995666Y-95893000D01*
X156043285Y-95940619D01*
X156471857Y-96845380D02*
X156471857Y-95845380D01*
X156709952Y-95845380D01*
X156852809Y-95893000D01*
X156948047Y-95988238D01*
X156995666Y-96083476D01*
X157043285Y-96273952D01*
X157043285Y-96416809D01*
X156995666Y-96607285D01*
X156948047Y-96702523D01*
X156852809Y-96797761D01*
X156709952Y-96845380D01*
X156471857Y-96845380D01*
X71659761Y-106084619D02*
X71564523Y-106037000D01*
X71469285Y-105941761D01*
X71326428Y-105798904D01*
X71231190Y-105751285D01*
X71135952Y-105751285D01*
X71183571Y-105989380D02*
X71088333Y-105941761D01*
X70993095Y-105846523D01*
X70945476Y-105656047D01*
X70945476Y-105322714D01*
X70993095Y-105132238D01*
X71088333Y-105037000D01*
X71183571Y-104989380D01*
X71374047Y-104989380D01*
X71469285Y-105037000D01*
X71564523Y-105132238D01*
X71612142Y-105322714D01*
X71612142Y-105656047D01*
X71564523Y-105846523D01*
X71469285Y-105941761D01*
X71374047Y-105989380D01*
X71183571Y-105989380D01*
X72564523Y-105989380D02*
X71993095Y-105989380D01*
X72278809Y-105989380D02*
X72278809Y-104989380D01*
X72183571Y-105132238D01*
X72088333Y-105227476D01*
X71993095Y-105275095D01*
X59277261Y-106211619D02*
X59182023Y-106164000D01*
X59086785Y-106068761D01*
X58943928Y-105925904D01*
X58848690Y-105878285D01*
X58753452Y-105878285D01*
X58801071Y-106116380D02*
X58705833Y-106068761D01*
X58610595Y-105973523D01*
X58562976Y-105783047D01*
X58562976Y-105449714D01*
X58610595Y-105259238D01*
X58705833Y-105164000D01*
X58801071Y-105116380D01*
X58991547Y-105116380D01*
X59086785Y-105164000D01*
X59182023Y-105259238D01*
X59229642Y-105449714D01*
X59229642Y-105783047D01*
X59182023Y-105973523D01*
X59086785Y-106068761D01*
X58991547Y-106116380D01*
X58801071Y-106116380D01*
X59610595Y-105211619D02*
X59658214Y-105164000D01*
X59753452Y-105116380D01*
X59991547Y-105116380D01*
X60086785Y-105164000D01*
X60134404Y-105211619D01*
X60182023Y-105306857D01*
X60182023Y-105402095D01*
X60134404Y-105544952D01*
X59562976Y-106116380D01*
X60182023Y-106116380D01*
X109196166Y-58308785D02*
X109196166Y-57832595D01*
X109481880Y-58404023D02*
X108481880Y-58070690D01*
X109481880Y-57737357D01*
X108577119Y-57451642D02*
X108529500Y-57404023D01*
X108481880Y-57308785D01*
X108481880Y-57070690D01*
X108529500Y-56975452D01*
X108577119Y-56927833D01*
X108672357Y-56880214D01*
X108767595Y-56880214D01*
X108910452Y-56927833D01*
X109481880Y-57499261D01*
X109481880Y-56880214D01*
X45072380Y-92717857D02*
X44596190Y-93051190D01*
X45072380Y-93289285D02*
X44072380Y-93289285D01*
X44072380Y-92908333D01*
X44120000Y-92813095D01*
X44167619Y-92765476D01*
X44262857Y-92717857D01*
X44405714Y-92717857D01*
X44500952Y-92765476D01*
X44548571Y-92813095D01*
X44596190Y-92908333D01*
X44596190Y-93289285D01*
X45072380Y-91765476D02*
X45072380Y-92336904D01*
X45072380Y-92051190D02*
X44072380Y-92051190D01*
X44215238Y-92146428D01*
X44310476Y-92241666D01*
X44358095Y-92336904D01*
X44072380Y-90908333D02*
X44072380Y-91098809D01*
X44120000Y-91194047D01*
X44167619Y-91241666D01*
X44310476Y-91336904D01*
X44500952Y-91384523D01*
X44881904Y-91384523D01*
X44977142Y-91336904D01*
X45024761Y-91289285D01*
X45072380Y-91194047D01*
X45072380Y-91003571D01*
X45024761Y-90908333D01*
X44977142Y-90860714D01*
X44881904Y-90813095D01*
X44643809Y-90813095D01*
X44548571Y-90860714D01*
X44500952Y-90908333D01*
X44453333Y-91003571D01*
X44453333Y-91194047D01*
X44500952Y-91289285D01*
X44548571Y-91336904D01*
X44643809Y-91384523D01*
X66746380Y-85256595D02*
X65746380Y-85256595D01*
X65746380Y-85018500D01*
X65794000Y-84875642D01*
X65889238Y-84780404D01*
X65984476Y-84732785D01*
X66174952Y-84685166D01*
X66317809Y-84685166D01*
X66508285Y-84732785D01*
X66603523Y-84780404D01*
X66698761Y-84875642D01*
X66746380Y-85018500D01*
X66746380Y-85256595D01*
X65841619Y-84304214D02*
X65794000Y-84256595D01*
X65746380Y-84161357D01*
X65746380Y-83923261D01*
X65794000Y-83828023D01*
X65841619Y-83780404D01*
X65936857Y-83732785D01*
X66032095Y-83732785D01*
X66174952Y-83780404D01*
X66746380Y-84351833D01*
X66746380Y-83732785D01*
X53792380Y-84939095D02*
X52792380Y-84939095D01*
X52792380Y-84701000D01*
X52840000Y-84558142D01*
X52935238Y-84462904D01*
X53030476Y-84415285D01*
X53220952Y-84367666D01*
X53363809Y-84367666D01*
X53554285Y-84415285D01*
X53649523Y-84462904D01*
X53744761Y-84558142D01*
X53792380Y-84701000D01*
X53792380Y-84939095D01*
X52792380Y-84034333D02*
X52792380Y-83415285D01*
X53173333Y-83748619D01*
X53173333Y-83605761D01*
X53220952Y-83510523D01*
X53268571Y-83462904D01*
X53363809Y-83415285D01*
X53601904Y-83415285D01*
X53697142Y-83462904D01*
X53744761Y-83510523D01*
X53792380Y-83605761D01*
X53792380Y-83891476D01*
X53744761Y-83986714D01*
X53697142Y-84034333D01*
X58554880Y-101988857D02*
X58078690Y-102322190D01*
X58554880Y-102560285D02*
X57554880Y-102560285D01*
X57554880Y-102179333D01*
X57602500Y-102084095D01*
X57650119Y-102036476D01*
X57745357Y-101988857D01*
X57888214Y-101988857D01*
X57983452Y-102036476D01*
X58031071Y-102084095D01*
X58078690Y-102179333D01*
X58078690Y-102560285D01*
X58554880Y-101036476D02*
X58554880Y-101607904D01*
X58554880Y-101322190D02*
X57554880Y-101322190D01*
X57697738Y-101417428D01*
X57792976Y-101512666D01*
X57840595Y-101607904D01*
X57554880Y-100703142D02*
X57554880Y-100036476D01*
X58554880Y-100465047D01*
X50045880Y-101798357D02*
X49569690Y-102131690D01*
X50045880Y-102369785D02*
X49045880Y-102369785D01*
X49045880Y-101988833D01*
X49093500Y-101893595D01*
X49141119Y-101845976D01*
X49236357Y-101798357D01*
X49379214Y-101798357D01*
X49474452Y-101845976D01*
X49522071Y-101893595D01*
X49569690Y-101988833D01*
X49569690Y-102369785D01*
X50045880Y-100845976D02*
X50045880Y-101417404D01*
X50045880Y-101131690D02*
X49045880Y-101131690D01*
X49188738Y-101226928D01*
X49283976Y-101322166D01*
X49331595Y-101417404D01*
X49045880Y-99941214D02*
X49045880Y-100417404D01*
X49522071Y-100465023D01*
X49474452Y-100417404D01*
X49426833Y-100322166D01*
X49426833Y-100084071D01*
X49474452Y-99988833D01*
X49522071Y-99941214D01*
X49617309Y-99893595D01*
X49855404Y-99893595D01*
X49950642Y-99941214D01*
X49998261Y-99988833D01*
X50045880Y-100084071D01*
X50045880Y-100322166D01*
X49998261Y-100417404D01*
X49950642Y-100465023D01*
X119634333Y-97027642D02*
X119586714Y-97075261D01*
X119443857Y-97122880D01*
X119348619Y-97122880D01*
X119205761Y-97075261D01*
X119110523Y-96980023D01*
X119062904Y-96884785D01*
X119015285Y-96694309D01*
X119015285Y-96551452D01*
X119062904Y-96360976D01*
X119110523Y-96265738D01*
X119205761Y-96170500D01*
X119348619Y-96122880D01*
X119443857Y-96122880D01*
X119586714Y-96170500D01*
X119634333Y-96218119D01*
X120491476Y-96456214D02*
X120491476Y-97122880D01*
X120253380Y-96075261D02*
X120015285Y-96789547D01*
X120634333Y-96789547D01*
X175895333Y-101409142D02*
X175847714Y-101456761D01*
X175704857Y-101504380D01*
X175609619Y-101504380D01*
X175466761Y-101456761D01*
X175371523Y-101361523D01*
X175323904Y-101266285D01*
X175276285Y-101075809D01*
X175276285Y-100932952D01*
X175323904Y-100742476D01*
X175371523Y-100647238D01*
X175466761Y-100552000D01*
X175609619Y-100504380D01*
X175704857Y-100504380D01*
X175847714Y-100552000D01*
X175895333Y-100599619D01*
X176276285Y-100599619D02*
X176323904Y-100552000D01*
X176419142Y-100504380D01*
X176657238Y-100504380D01*
X176752476Y-100552000D01*
X176800095Y-100599619D01*
X176847714Y-100694857D01*
X176847714Y-100790095D01*
X176800095Y-100932952D01*
X176228666Y-101504380D01*
X176847714Y-101504380D01*
X124132142Y-111355142D02*
X124084523Y-111402761D01*
X123941666Y-111450380D01*
X123846428Y-111450380D01*
X123703571Y-111402761D01*
X123608333Y-111307523D01*
X123560714Y-111212285D01*
X123513095Y-111021809D01*
X123513095Y-110878952D01*
X123560714Y-110688476D01*
X123608333Y-110593238D01*
X123703571Y-110498000D01*
X123846428Y-110450380D01*
X123941666Y-110450380D01*
X124084523Y-110498000D01*
X124132142Y-110545619D01*
X124513095Y-110545619D02*
X124560714Y-110498000D01*
X124655952Y-110450380D01*
X124894047Y-110450380D01*
X124989285Y-110498000D01*
X125036904Y-110545619D01*
X125084523Y-110640857D01*
X125084523Y-110736095D01*
X125036904Y-110878952D01*
X124465476Y-111450380D01*
X125084523Y-111450380D01*
X126036904Y-111450380D02*
X125465476Y-111450380D01*
X125751190Y-111450380D02*
X125751190Y-110450380D01*
X125655952Y-110593238D01*
X125560714Y-110688476D01*
X125465476Y-110736095D01*
X134802642Y-111355142D02*
X134755023Y-111402761D01*
X134612166Y-111450380D01*
X134516928Y-111450380D01*
X134374071Y-111402761D01*
X134278833Y-111307523D01*
X134231214Y-111212285D01*
X134183595Y-111021809D01*
X134183595Y-110878952D01*
X134231214Y-110688476D01*
X134278833Y-110593238D01*
X134374071Y-110498000D01*
X134516928Y-110450380D01*
X134612166Y-110450380D01*
X134755023Y-110498000D01*
X134802642Y-110545619D01*
X135183595Y-110545619D02*
X135231214Y-110498000D01*
X135326452Y-110450380D01*
X135564547Y-110450380D01*
X135659785Y-110498000D01*
X135707404Y-110545619D01*
X135755023Y-110640857D01*
X135755023Y-110736095D01*
X135707404Y-110878952D01*
X135135976Y-111450380D01*
X135755023Y-111450380D01*
X136088357Y-110450380D02*
X136707404Y-110450380D01*
X136374071Y-110831333D01*
X136516928Y-110831333D01*
X136612166Y-110878952D01*
X136659785Y-110926571D01*
X136707404Y-111021809D01*
X136707404Y-111259904D01*
X136659785Y-111355142D01*
X136612166Y-111402761D01*
X136516928Y-111450380D01*
X136231214Y-111450380D01*
X136135976Y-111402761D01*
X136088357Y-111355142D01*
X135262880Y-96210357D02*
X134786690Y-96543690D01*
X135262880Y-96781785D02*
X134262880Y-96781785D01*
X134262880Y-96400833D01*
X134310500Y-96305595D01*
X134358119Y-96257976D01*
X134453357Y-96210357D01*
X134596214Y-96210357D01*
X134691452Y-96257976D01*
X134739071Y-96305595D01*
X134786690Y-96400833D01*
X134786690Y-96781785D01*
X134358119Y-95829404D02*
X134310500Y-95781785D01*
X134262880Y-95686547D01*
X134262880Y-95448452D01*
X134310500Y-95353214D01*
X134358119Y-95305595D01*
X134453357Y-95257976D01*
X134548595Y-95257976D01*
X134691452Y-95305595D01*
X135262880Y-95877023D01*
X135262880Y-95257976D01*
X134358119Y-94877023D02*
X134310500Y-94829404D01*
X134262880Y-94734166D01*
X134262880Y-94496071D01*
X134310500Y-94400833D01*
X134358119Y-94353214D01*
X134453357Y-94305595D01*
X134548595Y-94305595D01*
X134691452Y-94353214D01*
X135262880Y-94924642D01*
X135262880Y-94305595D01*
X28638095Y-119452380D02*
X28638095Y-118452380D01*
X28638095Y-118928571D02*
X29209523Y-118928571D01*
X29209523Y-119452380D02*
X29209523Y-118452380D01*
X29590476Y-118452380D02*
X30209523Y-118452380D01*
X29876190Y-118833333D01*
X30019047Y-118833333D01*
X30114285Y-118880952D01*
X30161904Y-118928571D01*
X30209523Y-119023809D01*
X30209523Y-119261904D01*
X30161904Y-119357142D01*
X30114285Y-119404761D01*
X30019047Y-119452380D01*
X29733333Y-119452380D01*
X29638095Y-119404761D01*
X29590476Y-119357142D01*
X178118095Y-119452380D02*
X178118095Y-118452380D01*
X178118095Y-118928571D02*
X178689523Y-118928571D01*
X178689523Y-119452380D02*
X178689523Y-118452380D01*
X179594285Y-118785714D02*
X179594285Y-119452380D01*
X179356190Y-118404761D02*
X179118095Y-119119047D01*
X179737142Y-119119047D01*
X142621095Y-29599380D02*
X142621095Y-28599380D01*
X142621095Y-29075571D02*
X143192523Y-29075571D01*
X143192523Y-29599380D02*
X143192523Y-28599380D01*
X143621095Y-28694619D02*
X143668714Y-28647000D01*
X143763952Y-28599380D01*
X144002047Y-28599380D01*
X144097285Y-28647000D01*
X144144904Y-28694619D01*
X144192523Y-28789857D01*
X144192523Y-28885095D01*
X144144904Y-29027952D01*
X143573476Y-29599380D01*
X144192523Y-29599380D01*
X71508880Y-102242857D02*
X71032690Y-102576190D01*
X71508880Y-102814285D02*
X70508880Y-102814285D01*
X70508880Y-102433333D01*
X70556500Y-102338095D01*
X70604119Y-102290476D01*
X70699357Y-102242857D01*
X70842214Y-102242857D01*
X70937452Y-102290476D01*
X70985071Y-102338095D01*
X71032690Y-102433333D01*
X71032690Y-102814285D01*
X71508880Y-101290476D02*
X71508880Y-101861904D01*
X71508880Y-101576190D02*
X70508880Y-101576190D01*
X70651738Y-101671428D01*
X70746976Y-101766666D01*
X70794595Y-101861904D01*
X70508880Y-100671428D02*
X70508880Y-100576190D01*
X70556500Y-100480952D01*
X70604119Y-100433333D01*
X70699357Y-100385714D01*
X70889833Y-100338095D01*
X71127928Y-100338095D01*
X71318404Y-100385714D01*
X71413642Y-100433333D01*
X71461261Y-100480952D01*
X71508880Y-100576190D01*
X71508880Y-100671428D01*
X71461261Y-100766666D01*
X71413642Y-100814285D01*
X71318404Y-100861904D01*
X71127928Y-100909523D01*
X70889833Y-100909523D01*
X70699357Y-100861904D01*
X70604119Y-100814285D01*
X70556500Y-100766666D01*
X70508880Y-100671428D01*
X58407380Y-93352857D02*
X57931190Y-93686190D01*
X58407380Y-93924285D02*
X57407380Y-93924285D01*
X57407380Y-93543333D01*
X57455000Y-93448095D01*
X57502619Y-93400476D01*
X57597857Y-93352857D01*
X57740714Y-93352857D01*
X57835952Y-93400476D01*
X57883571Y-93448095D01*
X57931190Y-93543333D01*
X57931190Y-93924285D01*
X58407380Y-92400476D02*
X58407380Y-92971904D01*
X58407380Y-92686190D02*
X57407380Y-92686190D01*
X57550238Y-92781428D01*
X57645476Y-92876666D01*
X57693095Y-92971904D01*
X58407380Y-91448095D02*
X58407380Y-92019523D01*
X58407380Y-91733809D02*
X57407380Y-91733809D01*
X57550238Y-91829047D01*
X57645476Y-91924285D01*
X57693095Y-92019523D01*
X62872880Y-102179357D02*
X62396690Y-102512690D01*
X62872880Y-102750785D02*
X61872880Y-102750785D01*
X61872880Y-102369833D01*
X61920500Y-102274595D01*
X61968119Y-102226976D01*
X62063357Y-102179357D01*
X62206214Y-102179357D01*
X62301452Y-102226976D01*
X62349071Y-102274595D01*
X62396690Y-102369833D01*
X62396690Y-102750785D01*
X62872880Y-101226976D02*
X62872880Y-101798404D01*
X62872880Y-101512690D02*
X61872880Y-101512690D01*
X62015738Y-101607928D01*
X62110976Y-101703166D01*
X62158595Y-101798404D01*
X61968119Y-100846023D02*
X61920500Y-100798404D01*
X61872880Y-100703166D01*
X61872880Y-100465071D01*
X61920500Y-100369833D01*
X61968119Y-100322214D01*
X62063357Y-100274595D01*
X62158595Y-100274595D01*
X62301452Y-100322214D01*
X62872880Y-100893642D01*
X62872880Y-100274595D01*
X87780904Y-98369380D02*
X87780904Y-97369380D01*
X88019000Y-97369380D01*
X88161857Y-97417000D01*
X88257095Y-97512238D01*
X88304714Y-97607476D01*
X88352333Y-97797952D01*
X88352333Y-97940809D01*
X88304714Y-98131285D01*
X88257095Y-98226523D01*
X88161857Y-98321761D01*
X88019000Y-98369380D01*
X87780904Y-98369380D01*
X89304714Y-98369380D02*
X88733285Y-98369380D01*
X89019000Y-98369380D02*
X89019000Y-97369380D01*
X88923761Y-97512238D01*
X88828523Y-97607476D01*
X88733285Y-97655095D01*
X75176095Y-96378880D02*
X75176095Y-95378880D01*
X75747523Y-96378880D02*
X75318952Y-95807452D01*
X75747523Y-95378880D02*
X75176095Y-95950309D01*
X69635619Y-78232095D02*
X68826095Y-78232095D01*
X68730857Y-78279714D01*
X68683238Y-78327333D01*
X68635619Y-78422571D01*
X68635619Y-78613047D01*
X68683238Y-78708285D01*
X68730857Y-78755904D01*
X68826095Y-78803523D01*
X69635619Y-78803523D01*
X69540380Y-79232095D02*
X69588000Y-79279714D01*
X69635619Y-79374952D01*
X69635619Y-79613047D01*
X69588000Y-79708285D01*
X69540380Y-79755904D01*
X69445142Y-79803523D01*
X69349904Y-79803523D01*
X69207047Y-79755904D01*
X68635619Y-79184476D01*
X68635619Y-79803523D01*
X144073642Y-111101142D02*
X144026023Y-111148761D01*
X143883166Y-111196380D01*
X143787928Y-111196380D01*
X143645071Y-111148761D01*
X143549833Y-111053523D01*
X143502214Y-110958285D01*
X143454595Y-110767809D01*
X143454595Y-110624952D01*
X143502214Y-110434476D01*
X143549833Y-110339238D01*
X143645071Y-110244000D01*
X143787928Y-110196380D01*
X143883166Y-110196380D01*
X144026023Y-110244000D01*
X144073642Y-110291619D01*
X144406976Y-110196380D02*
X145026023Y-110196380D01*
X144692690Y-110577333D01*
X144835547Y-110577333D01*
X144930785Y-110624952D01*
X144978404Y-110672571D01*
X145026023Y-110767809D01*
X145026023Y-111005904D01*
X144978404Y-111101142D01*
X144930785Y-111148761D01*
X144835547Y-111196380D01*
X144549833Y-111196380D01*
X144454595Y-111148761D01*
X144406976Y-111101142D01*
X145645071Y-110196380D02*
X145740309Y-110196380D01*
X145835547Y-110244000D01*
X145883166Y-110291619D01*
X145930785Y-110386857D01*
X145978404Y-110577333D01*
X145978404Y-110815428D01*
X145930785Y-111005904D01*
X145883166Y-111101142D01*
X145835547Y-111148761D01*
X145740309Y-111196380D01*
X145645071Y-111196380D01*
X145549833Y-111148761D01*
X145502214Y-111101142D01*
X145454595Y-111005904D01*
X145406976Y-110815428D01*
X145406976Y-110577333D01*
X145454595Y-110386857D01*
X145502214Y-110291619D01*
X145549833Y-110244000D01*
X145645071Y-110196380D01*
X96917142Y-69104047D02*
X96964761Y-69151666D01*
X97012380Y-69294523D01*
X97012380Y-69389761D01*
X96964761Y-69532619D01*
X96869523Y-69627857D01*
X96774285Y-69675476D01*
X96583809Y-69723095D01*
X96440952Y-69723095D01*
X96250476Y-69675476D01*
X96155238Y-69627857D01*
X96060000Y-69532619D01*
X96012380Y-69389761D01*
X96012380Y-69294523D01*
X96060000Y-69151666D01*
X96107619Y-69104047D01*
X97012380Y-68151666D02*
X97012380Y-68723095D01*
X97012380Y-68437380D02*
X96012380Y-68437380D01*
X96155238Y-68532619D01*
X96250476Y-68627857D01*
X96298095Y-68723095D01*
X96012380Y-67294523D02*
X96012380Y-67485000D01*
X96060000Y-67580238D01*
X96107619Y-67627857D01*
X96250476Y-67723095D01*
X96440952Y-67770714D01*
X96821904Y-67770714D01*
X96917142Y-67723095D01*
X96964761Y-67675476D01*
X97012380Y-67580238D01*
X97012380Y-67389761D01*
X96964761Y-67294523D01*
X96917142Y-67246904D01*
X96821904Y-67199285D01*
X96583809Y-67199285D01*
X96488571Y-67246904D01*
X96440952Y-67294523D01*
X96393333Y-67389761D01*
X96393333Y-67580238D01*
X96440952Y-67675476D01*
X96488571Y-67723095D01*
X96583809Y-67770714D01*
X96012380Y-66580238D02*
X96012380Y-66485000D01*
X96060000Y-66389761D01*
X96107619Y-66342142D01*
X96202857Y-66294523D01*
X96393333Y-66246904D01*
X96631428Y-66246904D01*
X96821904Y-66294523D01*
X96917142Y-66342142D01*
X96964761Y-66389761D01*
X97012380Y-66485000D01*
X97012380Y-66580238D01*
X96964761Y-66675476D01*
X96917142Y-66723095D01*
X96821904Y-66770714D01*
X96631428Y-66818333D01*
X96393333Y-66818333D01*
X96202857Y-66770714D01*
X96107619Y-66723095D01*
X96060000Y-66675476D01*
X96012380Y-66580238D01*
X167375642Y-112561642D02*
X167328023Y-112609261D01*
X167185166Y-112656880D01*
X167089928Y-112656880D01*
X166947071Y-112609261D01*
X166851833Y-112514023D01*
X166804214Y-112418785D01*
X166756595Y-112228309D01*
X166756595Y-112085452D01*
X166804214Y-111894976D01*
X166851833Y-111799738D01*
X166947071Y-111704500D01*
X167089928Y-111656880D01*
X167185166Y-111656880D01*
X167328023Y-111704500D01*
X167375642Y-111752119D01*
X167708976Y-111656880D02*
X168328023Y-111656880D01*
X167994690Y-112037833D01*
X168137547Y-112037833D01*
X168232785Y-112085452D01*
X168280404Y-112133071D01*
X168328023Y-112228309D01*
X168328023Y-112466404D01*
X168280404Y-112561642D01*
X168232785Y-112609261D01*
X168137547Y-112656880D01*
X167851833Y-112656880D01*
X167756595Y-112609261D01*
X167708976Y-112561642D01*
X168708976Y-111752119D02*
X168756595Y-111704500D01*
X168851833Y-111656880D01*
X169089928Y-111656880D01*
X169185166Y-111704500D01*
X169232785Y-111752119D01*
X169280404Y-111847357D01*
X169280404Y-111942595D01*
X169232785Y-112085452D01*
X168661357Y-112656880D01*
X169280404Y-112656880D01*
X63603142Y-69318047D02*
X63650761Y-69365666D01*
X63698380Y-69508523D01*
X63698380Y-69603761D01*
X63650761Y-69746619D01*
X63555523Y-69841857D01*
X63460285Y-69889476D01*
X63269809Y-69937095D01*
X63126952Y-69937095D01*
X62936476Y-69889476D01*
X62841238Y-69841857D01*
X62746000Y-69746619D01*
X62698380Y-69603761D01*
X62698380Y-69508523D01*
X62746000Y-69365666D01*
X62793619Y-69318047D01*
X63698380Y-68365666D02*
X63698380Y-68937095D01*
X63698380Y-68651380D02*
X62698380Y-68651380D01*
X62841238Y-68746619D01*
X62936476Y-68841857D01*
X62984095Y-68937095D01*
X62698380Y-68032333D02*
X62698380Y-67365666D01*
X63698380Y-67794238D01*
X62698380Y-66794238D02*
X62698380Y-66699000D01*
X62746000Y-66603761D01*
X62793619Y-66556142D01*
X62888857Y-66508523D01*
X63079333Y-66460904D01*
X63317428Y-66460904D01*
X63507904Y-66508523D01*
X63603142Y-66556142D01*
X63650761Y-66603761D01*
X63698380Y-66699000D01*
X63698380Y-66794238D01*
X63650761Y-66889476D01*
X63603142Y-66937095D01*
X63507904Y-66984714D01*
X63317428Y-67032333D01*
X63079333Y-67032333D01*
X62888857Y-66984714D01*
X62793619Y-66937095D01*
X62746000Y-66889476D01*
X62698380Y-66794238D01*
X156406642Y-112561642D02*
X156359023Y-112609261D01*
X156216166Y-112656880D01*
X156120928Y-112656880D01*
X155978071Y-112609261D01*
X155882833Y-112514023D01*
X155835214Y-112418785D01*
X155787595Y-112228309D01*
X155787595Y-112085452D01*
X155835214Y-111894976D01*
X155882833Y-111799738D01*
X155978071Y-111704500D01*
X156120928Y-111656880D01*
X156216166Y-111656880D01*
X156359023Y-111704500D01*
X156406642Y-111752119D01*
X156739976Y-111656880D02*
X157359023Y-111656880D01*
X157025690Y-112037833D01*
X157168547Y-112037833D01*
X157263785Y-112085452D01*
X157311404Y-112133071D01*
X157359023Y-112228309D01*
X157359023Y-112466404D01*
X157311404Y-112561642D01*
X157263785Y-112609261D01*
X157168547Y-112656880D01*
X156882833Y-112656880D01*
X156787595Y-112609261D01*
X156739976Y-112561642D01*
X158311404Y-112656880D02*
X157739976Y-112656880D01*
X158025690Y-112656880D02*
X158025690Y-111656880D01*
X157930452Y-111799738D01*
X157835214Y-111894976D01*
X157739976Y-111942595D01*
X139199880Y-96210357D02*
X138723690Y-96543690D01*
X139199880Y-96781785D02*
X138199880Y-96781785D01*
X138199880Y-96400833D01*
X138247500Y-96305595D01*
X138295119Y-96257976D01*
X138390357Y-96210357D01*
X138533214Y-96210357D01*
X138628452Y-96257976D01*
X138676071Y-96305595D01*
X138723690Y-96400833D01*
X138723690Y-96781785D01*
X138199880Y-95877023D02*
X138199880Y-95257976D01*
X138580833Y-95591309D01*
X138580833Y-95448452D01*
X138628452Y-95353214D01*
X138676071Y-95305595D01*
X138771309Y-95257976D01*
X139009404Y-95257976D01*
X139104642Y-95305595D01*
X139152261Y-95353214D01*
X139199880Y-95448452D01*
X139199880Y-95734166D01*
X139152261Y-95829404D01*
X139104642Y-95877023D01*
X138199880Y-94638928D02*
X138199880Y-94543690D01*
X138247500Y-94448452D01*
X138295119Y-94400833D01*
X138390357Y-94353214D01*
X138580833Y-94305595D01*
X138818928Y-94305595D01*
X139009404Y-94353214D01*
X139104642Y-94400833D01*
X139152261Y-94448452D01*
X139199880Y-94543690D01*
X139199880Y-94638928D01*
X139152261Y-94734166D01*
X139104642Y-94781785D01*
X139009404Y-94829404D01*
X138818928Y-94877023D01*
X138580833Y-94877023D01*
X138390357Y-94829404D01*
X138295119Y-94781785D01*
X138247500Y-94734166D01*
X138199880Y-94638928D01*
X143136880Y-96146857D02*
X142660690Y-96480190D01*
X143136880Y-96718285D02*
X142136880Y-96718285D01*
X142136880Y-96337333D01*
X142184500Y-96242095D01*
X142232119Y-96194476D01*
X142327357Y-96146857D01*
X142470214Y-96146857D01*
X142565452Y-96194476D01*
X142613071Y-96242095D01*
X142660690Y-96337333D01*
X142660690Y-96718285D01*
X142136880Y-95813523D02*
X142136880Y-95194476D01*
X142517833Y-95527809D01*
X142517833Y-95384952D01*
X142565452Y-95289714D01*
X142613071Y-95242095D01*
X142708309Y-95194476D01*
X142946404Y-95194476D01*
X143041642Y-95242095D01*
X143089261Y-95289714D01*
X143136880Y-95384952D01*
X143136880Y-95670666D01*
X143089261Y-95765904D01*
X143041642Y-95813523D01*
X143136880Y-94242095D02*
X143136880Y-94813523D01*
X143136880Y-94527809D02*
X142136880Y-94527809D01*
X142279738Y-94623047D01*
X142374976Y-94718285D01*
X142422595Y-94813523D01*
X146756380Y-96146857D02*
X146280190Y-96480190D01*
X146756380Y-96718285D02*
X145756380Y-96718285D01*
X145756380Y-96337333D01*
X145804000Y-96242095D01*
X145851619Y-96194476D01*
X145946857Y-96146857D01*
X146089714Y-96146857D01*
X146184952Y-96194476D01*
X146232571Y-96242095D01*
X146280190Y-96337333D01*
X146280190Y-96718285D01*
X145756380Y-95813523D02*
X145756380Y-95194476D01*
X146137333Y-95527809D01*
X146137333Y-95384952D01*
X146184952Y-95289714D01*
X146232571Y-95242095D01*
X146327809Y-95194476D01*
X146565904Y-95194476D01*
X146661142Y-95242095D01*
X146708761Y-95289714D01*
X146756380Y-95384952D01*
X146756380Y-95670666D01*
X146708761Y-95765904D01*
X146661142Y-95813523D01*
X145851619Y-94813523D02*
X145804000Y-94765904D01*
X145756380Y-94670666D01*
X145756380Y-94432571D01*
X145804000Y-94337333D01*
X145851619Y-94289714D01*
X145946857Y-94242095D01*
X146042095Y-94242095D01*
X146184952Y-94289714D01*
X146756380Y-94861142D01*
X146756380Y-94242095D01*
X131452880Y-96210357D02*
X130976690Y-96543690D01*
X131452880Y-96781785D02*
X130452880Y-96781785D01*
X130452880Y-96400833D01*
X130500500Y-96305595D01*
X130548119Y-96257976D01*
X130643357Y-96210357D01*
X130786214Y-96210357D01*
X130881452Y-96257976D01*
X130929071Y-96305595D01*
X130976690Y-96400833D01*
X130976690Y-96781785D01*
X130548119Y-95829404D02*
X130500500Y-95781785D01*
X130452880Y-95686547D01*
X130452880Y-95448452D01*
X130500500Y-95353214D01*
X130548119Y-95305595D01*
X130643357Y-95257976D01*
X130738595Y-95257976D01*
X130881452Y-95305595D01*
X131452880Y-95877023D01*
X131452880Y-95257976D01*
X130452880Y-94638928D02*
X130452880Y-94543690D01*
X130500500Y-94448452D01*
X130548119Y-94400833D01*
X130643357Y-94353214D01*
X130833833Y-94305595D01*
X131071928Y-94305595D01*
X131262404Y-94353214D01*
X131357642Y-94400833D01*
X131405261Y-94448452D01*
X131452880Y-94543690D01*
X131452880Y-94638928D01*
X131405261Y-94734166D01*
X131357642Y-94781785D01*
X131262404Y-94829404D01*
X131071928Y-94877023D01*
X130833833Y-94877023D01*
X130643357Y-94829404D01*
X130548119Y-94781785D01*
X130500500Y-94734166D01*
X130452880Y-94638928D01*
X51546166Y-33805880D02*
X51546166Y-34520166D01*
X51498547Y-34663023D01*
X51403309Y-34758261D01*
X51260452Y-34805880D01*
X51165214Y-34805880D01*
X52450928Y-33805880D02*
X52260452Y-33805880D01*
X52165214Y-33853500D01*
X52117595Y-33901119D01*
X52022357Y-34043976D01*
X51974738Y-34234452D01*
X51974738Y-34615404D01*
X52022357Y-34710642D01*
X52069976Y-34758261D01*
X52165214Y-34805880D01*
X52355690Y-34805880D01*
X52450928Y-34758261D01*
X52498547Y-34710642D01*
X52546166Y-34615404D01*
X52546166Y-34377309D01*
X52498547Y-34282071D01*
X52450928Y-34234452D01*
X52355690Y-34186833D01*
X52165214Y-34186833D01*
X52069976Y-34234452D01*
X52022357Y-34282071D01*
X51974738Y-34377309D01*
X69670476Y-38902380D02*
X69670476Y-39616666D01*
X69622857Y-39759523D01*
X69527619Y-39854761D01*
X69384761Y-39902380D01*
X69289523Y-39902380D01*
X70099047Y-38997619D02*
X70146666Y-38950000D01*
X70241904Y-38902380D01*
X70480000Y-38902380D01*
X70575238Y-38950000D01*
X70622857Y-38997619D01*
X70670476Y-39092857D01*
X70670476Y-39188095D01*
X70622857Y-39330952D01*
X70051428Y-39902380D01*
X70670476Y-39902380D01*
X71575238Y-38902380D02*
X71099047Y-38902380D01*
X71051428Y-39378571D01*
X71099047Y-39330952D01*
X71194285Y-39283333D01*
X71432380Y-39283333D01*
X71527619Y-39330952D01*
X71575238Y-39378571D01*
X71622857Y-39473809D01*
X71622857Y-39711904D01*
X71575238Y-39807142D01*
X71527619Y-39854761D01*
X71432380Y-39902380D01*
X71194285Y-39902380D01*
X71099047Y-39854761D01*
X71051428Y-39807142D01*
X96721476Y-38902380D02*
X96721476Y-39616666D01*
X96673857Y-39759523D01*
X96578619Y-39854761D01*
X96435761Y-39902380D01*
X96340523Y-39902380D01*
X97150047Y-38997619D02*
X97197666Y-38950000D01*
X97292904Y-38902380D01*
X97531000Y-38902380D01*
X97626238Y-38950000D01*
X97673857Y-38997619D01*
X97721476Y-39092857D01*
X97721476Y-39188095D01*
X97673857Y-39330952D01*
X97102428Y-39902380D01*
X97721476Y-39902380D01*
X98578619Y-38902380D02*
X98388142Y-38902380D01*
X98292904Y-38950000D01*
X98245285Y-38997619D01*
X98150047Y-39140476D01*
X98102428Y-39330952D01*
X98102428Y-39711904D01*
X98150047Y-39807142D01*
X98197666Y-39854761D01*
X98292904Y-39902380D01*
X98483380Y-39902380D01*
X98578619Y-39854761D01*
X98626238Y-39807142D01*
X98673857Y-39711904D01*
X98673857Y-39473809D01*
X98626238Y-39378571D01*
X98578619Y-39330952D01*
X98483380Y-39283333D01*
X98292904Y-39283333D01*
X98197666Y-39330952D01*
X98150047Y-39378571D01*
X98102428Y-39473809D01*
X124915476Y-38902380D02*
X124915476Y-39616666D01*
X124867857Y-39759523D01*
X124772619Y-39854761D01*
X124629761Y-39902380D01*
X124534523Y-39902380D01*
X125344047Y-38997619D02*
X125391666Y-38950000D01*
X125486904Y-38902380D01*
X125725000Y-38902380D01*
X125820238Y-38950000D01*
X125867857Y-38997619D01*
X125915476Y-39092857D01*
X125915476Y-39188095D01*
X125867857Y-39330952D01*
X125296428Y-39902380D01*
X125915476Y-39902380D01*
X126248809Y-38902380D02*
X126915476Y-38902380D01*
X126486904Y-39902380D01*
X116768666Y-78128880D02*
X116768666Y-78843166D01*
X116721047Y-78986023D01*
X116625809Y-79081261D01*
X116482952Y-79128880D01*
X116387714Y-79128880D01*
X117244857Y-79128880D02*
X117244857Y-78128880D01*
X117625809Y-78128880D01*
X117721047Y-78176500D01*
X117768666Y-78224119D01*
X117816285Y-78319357D01*
X117816285Y-78462214D01*
X117768666Y-78557452D01*
X117721047Y-78605071D01*
X117625809Y-78652690D01*
X117244857Y-78652690D01*
X118768666Y-79128880D02*
X118197238Y-79128880D01*
X118482952Y-79128880D02*
X118482952Y-78128880D01*
X118387714Y-78271738D01*
X118292476Y-78366976D01*
X118197238Y-78414595D01*
X117361166Y-81113380D02*
X117980214Y-81113380D01*
X117646880Y-81494333D01*
X117789738Y-81494333D01*
X117884976Y-81541952D01*
X117932595Y-81589571D01*
X117980214Y-81684809D01*
X117980214Y-81922904D01*
X117932595Y-82018142D01*
X117884976Y-82065761D01*
X117789738Y-82113380D01*
X117504023Y-82113380D01*
X117408785Y-82065761D01*
X117361166Y-82018142D01*
X124730214Y-82113380D02*
X124158785Y-82113380D01*
X124444500Y-82113380D02*
X124444500Y-81113380D01*
X124349261Y-81256238D01*
X124254023Y-81351476D01*
X124158785Y-81399095D01*
X179514595Y-30694380D02*
X179514595Y-31503904D01*
X179562214Y-31599142D01*
X179609833Y-31646761D01*
X179705071Y-31694380D01*
X179895547Y-31694380D01*
X179990785Y-31646761D01*
X180038404Y-31599142D01*
X180086023Y-31503904D01*
X180086023Y-30694380D01*
X180990785Y-30694380D02*
X180800309Y-30694380D01*
X180705071Y-30742000D01*
X180657452Y-30789619D01*
X180562214Y-30932476D01*
X180514595Y-31122952D01*
X180514595Y-31503904D01*
X180562214Y-31599142D01*
X180609833Y-31646761D01*
X180705071Y-31694380D01*
X180895547Y-31694380D01*
X180990785Y-31646761D01*
X181038404Y-31599142D01*
X181086023Y-31503904D01*
X181086023Y-31265809D01*
X181038404Y-31170571D01*
X180990785Y-31122952D01*
X180895547Y-31075333D01*
X180705071Y-31075333D01*
X180609833Y-31122952D01*
X180562214Y-31170571D01*
X180514595Y-31265809D01*
X47902880Y-41544833D02*
X48617166Y-41544833D01*
X48760023Y-41592452D01*
X48855261Y-41687690D01*
X48902880Y-41830547D01*
X48902880Y-41925785D01*
X47902880Y-40592452D02*
X47902880Y-41068642D01*
X48379071Y-41116261D01*
X48331452Y-41068642D01*
X48283833Y-40973404D01*
X48283833Y-40735309D01*
X48331452Y-40640071D01*
X48379071Y-40592452D01*
X48474309Y-40544833D01*
X48712404Y-40544833D01*
X48807642Y-40592452D01*
X48855261Y-40640071D01*
X48902880Y-40735309D01*
X48902880Y-40973404D01*
X48855261Y-41068642D01*
X48807642Y-41116261D01*
X103128380Y-41906723D02*
X103842666Y-41906723D01*
X103985523Y-41954342D01*
X104080761Y-42049580D01*
X104128380Y-42192438D01*
X104128380Y-42287676D01*
X103223619Y-41478152D02*
X103176000Y-41430533D01*
X103128380Y-41335295D01*
X103128380Y-41097200D01*
X103176000Y-41001961D01*
X103223619Y-40954342D01*
X103318857Y-40906723D01*
X103414095Y-40906723D01*
X103556952Y-40954342D01*
X104128380Y-41525771D01*
X104128380Y-40906723D01*
X103128380Y-40573390D02*
X103128380Y-39954342D01*
X103509333Y-40287676D01*
X103509333Y-40144819D01*
X103556952Y-40049580D01*
X103604571Y-40001961D01*
X103699809Y-39954342D01*
X103937904Y-39954342D01*
X104033142Y-40001961D01*
X104080761Y-40049580D01*
X104128380Y-40144819D01*
X104128380Y-40430533D01*
X104080761Y-40525771D01*
X104033142Y-40573390D01*
X131258880Y-41894023D02*
X131973166Y-41894023D01*
X132116023Y-41941642D01*
X132211261Y-42036880D01*
X132258880Y-42179738D01*
X132258880Y-42274976D01*
X131354119Y-41465452D02*
X131306500Y-41417833D01*
X131258880Y-41322595D01*
X131258880Y-41084500D01*
X131306500Y-40989261D01*
X131354119Y-40941642D01*
X131449357Y-40894023D01*
X131544595Y-40894023D01*
X131687452Y-40941642D01*
X132258880Y-41513071D01*
X132258880Y-40894023D01*
X131592214Y-40036880D02*
X132258880Y-40036880D01*
X131211261Y-40274976D02*
X131925547Y-40513071D01*
X131925547Y-39894023D01*
X137644166Y-58816785D02*
X137644166Y-58340595D01*
X137929880Y-58912023D02*
X136929880Y-58578690D01*
X137929880Y-58245357D01*
X136929880Y-58007261D02*
X136929880Y-57388214D01*
X137310833Y-57721547D01*
X137310833Y-57578690D01*
X137358452Y-57483452D01*
X137406071Y-57435833D01*
X137501309Y-57388214D01*
X137739404Y-57388214D01*
X137834642Y-57435833D01*
X137882261Y-57483452D01*
X137929880Y-57578690D01*
X137929880Y-57864404D01*
X137882261Y-57959642D01*
X137834642Y-58007261D01*
X54014666Y-59070785D02*
X54014666Y-58594595D01*
X54300380Y-59166023D02*
X53300380Y-58832690D01*
X54300380Y-58499357D01*
X53633714Y-57737452D02*
X54300380Y-57737452D01*
X53252761Y-57975547D02*
X53967047Y-58213642D01*
X53967047Y-57594595D01*
X29694142Y-45315166D02*
X29741761Y-45362785D01*
X29789380Y-45505642D01*
X29789380Y-45600880D01*
X29741761Y-45743738D01*
X29646523Y-45838976D01*
X29551285Y-45886595D01*
X29360809Y-45934214D01*
X29217952Y-45934214D01*
X29027476Y-45886595D01*
X28932238Y-45838976D01*
X28837000Y-45743738D01*
X28789380Y-45600880D01*
X28789380Y-45505642D01*
X28837000Y-45362785D01*
X28884619Y-45315166D01*
X28789380Y-44410404D02*
X28789380Y-44886595D01*
X29265571Y-44934214D01*
X29217952Y-44886595D01*
X29170333Y-44791357D01*
X29170333Y-44553261D01*
X29217952Y-44458023D01*
X29265571Y-44410404D01*
X29360809Y-44362785D01*
X29598904Y-44362785D01*
X29694142Y-44410404D01*
X29741761Y-44458023D01*
X29789380Y-44553261D01*
X29789380Y-44791357D01*
X29741761Y-44886595D01*
X29694142Y-44934214D01*
X79650142Y-40445666D02*
X79697761Y-40493285D01*
X79745380Y-40636142D01*
X79745380Y-40731380D01*
X79697761Y-40874238D01*
X79602523Y-40969476D01*
X79507285Y-41017095D01*
X79316809Y-41064714D01*
X79173952Y-41064714D01*
X78983476Y-41017095D01*
X78888238Y-40969476D01*
X78793000Y-40874238D01*
X78745380Y-40731380D01*
X78745380Y-40636142D01*
X78793000Y-40493285D01*
X78840619Y-40445666D01*
X78745380Y-39588523D02*
X78745380Y-39779000D01*
X78793000Y-39874238D01*
X78840619Y-39921857D01*
X78983476Y-40017095D01*
X79173952Y-40064714D01*
X79554904Y-40064714D01*
X79650142Y-40017095D01*
X79697761Y-39969476D01*
X79745380Y-39874238D01*
X79745380Y-39683761D01*
X79697761Y-39588523D01*
X79650142Y-39540904D01*
X79554904Y-39493285D01*
X79316809Y-39493285D01*
X79221571Y-39540904D01*
X79173952Y-39588523D01*
X79126333Y-39683761D01*
X79126333Y-39874238D01*
X79173952Y-39969476D01*
X79221571Y-40017095D01*
X79316809Y-40064714D01*
X107971142Y-40445666D02*
X108018761Y-40493285D01*
X108066380Y-40636142D01*
X108066380Y-40731380D01*
X108018761Y-40874238D01*
X107923523Y-40969476D01*
X107828285Y-41017095D01*
X107637809Y-41064714D01*
X107494952Y-41064714D01*
X107304476Y-41017095D01*
X107209238Y-40969476D01*
X107114000Y-40874238D01*
X107066380Y-40731380D01*
X107066380Y-40636142D01*
X107114000Y-40493285D01*
X107161619Y-40445666D01*
X107066380Y-40112333D02*
X107066380Y-39445666D01*
X108066380Y-39874238D01*
X125150642Y-103608142D02*
X125103023Y-103655761D01*
X124960166Y-103703380D01*
X124864928Y-103703380D01*
X124722071Y-103655761D01*
X124626833Y-103560523D01*
X124579214Y-103465285D01*
X124531595Y-103274809D01*
X124531595Y-103131952D01*
X124579214Y-102941476D01*
X124626833Y-102846238D01*
X124722071Y-102751000D01*
X124864928Y-102703380D01*
X124960166Y-102703380D01*
X125103023Y-102751000D01*
X125150642Y-102798619D01*
X125531595Y-102798619D02*
X125579214Y-102751000D01*
X125674452Y-102703380D01*
X125912547Y-102703380D01*
X126007785Y-102751000D01*
X126055404Y-102798619D01*
X126103023Y-102893857D01*
X126103023Y-102989095D01*
X126055404Y-103131952D01*
X125483976Y-103703380D01*
X126103023Y-103703380D01*
X126483976Y-102798619D02*
X126531595Y-102751000D01*
X126626833Y-102703380D01*
X126864928Y-102703380D01*
X126960166Y-102751000D01*
X127007785Y-102798619D01*
X127055404Y-102893857D01*
X127055404Y-102989095D01*
X127007785Y-103131952D01*
X126436357Y-103703380D01*
X127055404Y-103703380D01*
X82208666Y-58816785D02*
X82208666Y-58340595D01*
X82494380Y-58912023D02*
X81494380Y-58578690D01*
X82494380Y-58245357D01*
X82494380Y-57388214D02*
X82494380Y-57959642D01*
X82494380Y-57673928D02*
X81494380Y-57673928D01*
X81637238Y-57769166D01*
X81732476Y-57864404D01*
X81780095Y-57959642D01*
X117848142Y-103481142D02*
X117800523Y-103528761D01*
X117657666Y-103576380D01*
X117562428Y-103576380D01*
X117419571Y-103528761D01*
X117324333Y-103433523D01*
X117276714Y-103338285D01*
X117229095Y-103147809D01*
X117229095Y-103004952D01*
X117276714Y-102814476D01*
X117324333Y-102719238D01*
X117419571Y-102624000D01*
X117562428Y-102576380D01*
X117657666Y-102576380D01*
X117800523Y-102624000D01*
X117848142Y-102671619D01*
X118229095Y-102671619D02*
X118276714Y-102624000D01*
X118371952Y-102576380D01*
X118610047Y-102576380D01*
X118705285Y-102624000D01*
X118752904Y-102671619D01*
X118800523Y-102766857D01*
X118800523Y-102862095D01*
X118752904Y-103004952D01*
X118181476Y-103576380D01*
X118800523Y-103576380D01*
X119419571Y-102576380D02*
X119514809Y-102576380D01*
X119610047Y-102624000D01*
X119657666Y-102671619D01*
X119705285Y-102766857D01*
X119752904Y-102957333D01*
X119752904Y-103195428D01*
X119705285Y-103385904D01*
X119657666Y-103481142D01*
X119610047Y-103528761D01*
X119514809Y-103576380D01*
X119419571Y-103576380D01*
X119324333Y-103528761D01*
X119276714Y-103481142D01*
X119229095Y-103385904D01*
X119181476Y-103195428D01*
X119181476Y-102957333D01*
X119229095Y-102766857D01*
X119276714Y-102671619D01*
X119324333Y-102624000D01*
X119419571Y-102576380D01*
X53107142Y-41398047D02*
X53154761Y-41445666D01*
X53202380Y-41588523D01*
X53202380Y-41683761D01*
X53154761Y-41826619D01*
X53059523Y-41921857D01*
X52964285Y-41969476D01*
X52773809Y-42017095D01*
X52630952Y-42017095D01*
X52440476Y-41969476D01*
X52345238Y-41921857D01*
X52250000Y-41826619D01*
X52202380Y-41683761D01*
X52202380Y-41588523D01*
X52250000Y-41445666D01*
X52297619Y-41398047D01*
X53202380Y-40445666D02*
X53202380Y-41017095D01*
X53202380Y-40731380D02*
X52202380Y-40731380D01*
X52345238Y-40826619D01*
X52440476Y-40921857D01*
X52488095Y-41017095D01*
X53202380Y-39493285D02*
X53202380Y-40064714D01*
X53202380Y-39779000D02*
X52202380Y-39779000D01*
X52345238Y-39874238D01*
X52440476Y-39969476D01*
X52488095Y-40064714D01*
X52202380Y-38874238D02*
X52202380Y-38779000D01*
X52250000Y-38683761D01*
X52297619Y-38636142D01*
X52392857Y-38588523D01*
X52583333Y-38540904D01*
X52821428Y-38540904D01*
X53011904Y-38588523D01*
X53107142Y-38636142D01*
X53154761Y-38683761D01*
X53202380Y-38779000D01*
X53202380Y-38874238D01*
X53154761Y-38969476D01*
X53107142Y-39017095D01*
X53011904Y-39064714D01*
X52821428Y-39112333D01*
X52583333Y-39112333D01*
X52392857Y-39064714D01*
X52297619Y-39017095D01*
X52250000Y-38969476D01*
X52202380Y-38874238D01*
X175748333Y-110421142D02*
X175700714Y-110468761D01*
X175557857Y-110516380D01*
X175462619Y-110516380D01*
X175319761Y-110468761D01*
X175224523Y-110373523D01*
X175176904Y-110278285D01*
X175129285Y-110087809D01*
X175129285Y-109944952D01*
X175176904Y-109754476D01*
X175224523Y-109659238D01*
X175319761Y-109564000D01*
X175462619Y-109516380D01*
X175557857Y-109516380D01*
X175700714Y-109564000D01*
X175748333Y-109611619D01*
X176700714Y-110516380D02*
X176129285Y-110516380D01*
X176415000Y-110516380D02*
X176415000Y-109516380D01*
X176319761Y-109659238D01*
X176224523Y-109754476D01*
X176129285Y-109802095D01*
X116038333Y-84748642D02*
X115990714Y-84796261D01*
X115847857Y-84843880D01*
X115752619Y-84843880D01*
X115609761Y-84796261D01*
X115514523Y-84701023D01*
X115466904Y-84605785D01*
X115419285Y-84415309D01*
X115419285Y-84272452D01*
X115466904Y-84081976D01*
X115514523Y-83986738D01*
X115609761Y-83891500D01*
X115752619Y-83843880D01*
X115847857Y-83843880D01*
X115990714Y-83891500D01*
X116038333Y-83939119D01*
X116371666Y-83843880D02*
X116990714Y-83843880D01*
X116657380Y-84224833D01*
X116800238Y-84224833D01*
X116895476Y-84272452D01*
X116943095Y-84320071D01*
X116990714Y-84415309D01*
X116990714Y-84653404D01*
X116943095Y-84748642D01*
X116895476Y-84796261D01*
X116800238Y-84843880D01*
X116514523Y-84843880D01*
X116419285Y-84796261D01*
X116371666Y-84748642D01*
X31988166Y-106481571D02*
X31654833Y-106481571D01*
X31654833Y-107005380D02*
X31654833Y-106005380D01*
X32131023Y-106005380D01*
X33035785Y-107005380D02*
X32464357Y-107005380D01*
X32750071Y-107005380D02*
X32750071Y-106005380D01*
X32654833Y-106148238D01*
X32559595Y-106243476D01*
X32464357Y-106291095D01*
X40941666Y-125277571D02*
X40608333Y-125277571D01*
X40608333Y-125801380D02*
X40608333Y-124801380D01*
X41084523Y-124801380D01*
X41417857Y-124896619D02*
X41465476Y-124849000D01*
X41560714Y-124801380D01*
X41798809Y-124801380D01*
X41894047Y-124849000D01*
X41941666Y-124896619D01*
X41989285Y-124991857D01*
X41989285Y-125087095D01*
X41941666Y-125229952D01*
X41370238Y-125801380D01*
X41989285Y-125801380D01*
X76077380Y-42285714D02*
X76791666Y-42285714D01*
X76934523Y-42333333D01*
X77029761Y-42428571D01*
X77077380Y-42571428D01*
X77077380Y-42666666D01*
X77077380Y-41285714D02*
X77077380Y-41857142D01*
X77077380Y-41571428D02*
X76077380Y-41571428D01*
X76220238Y-41666666D01*
X76315476Y-41761904D01*
X76363095Y-41857142D01*
X77077380Y-40333333D02*
X77077380Y-40904761D01*
X77077380Y-40619047D02*
X76077380Y-40619047D01*
X76220238Y-40714285D01*
X76315476Y-40809523D01*
X76363095Y-40904761D01*
X76077380Y-39714285D02*
X76077380Y-39619047D01*
X76125000Y-39523809D01*
X76172619Y-39476190D01*
X76267857Y-39428571D01*
X76458333Y-39380952D01*
X76696428Y-39380952D01*
X76886904Y-39428571D01*
X76982142Y-39476190D01*
X77029761Y-39523809D01*
X77077380Y-39619047D01*
X77077380Y-39714285D01*
X77029761Y-39809523D01*
X76982142Y-39857142D01*
X76886904Y-39904761D01*
X76696428Y-39952380D01*
X76458333Y-39952380D01*
X76267857Y-39904761D01*
X76172619Y-39857142D01*
X76125000Y-39809523D01*
X76077380Y-39714285D01*
X123467880Y-70230904D02*
X124277404Y-70230904D01*
X124372642Y-70183285D01*
X124420261Y-70135666D01*
X124467880Y-70040428D01*
X124467880Y-69849952D01*
X124420261Y-69754714D01*
X124372642Y-69707095D01*
X124277404Y-69659476D01*
X123467880Y-69659476D01*
X123467880Y-69278523D02*
X123467880Y-68659476D01*
X123848833Y-68992809D01*
X123848833Y-68849952D01*
X123896452Y-68754714D01*
X123944071Y-68707095D01*
X124039309Y-68659476D01*
X124277404Y-68659476D01*
X124372642Y-68707095D01*
X124420261Y-68754714D01*
X124467880Y-68849952D01*
X124467880Y-69135666D01*
X124420261Y-69230904D01*
X124372642Y-69278523D01*
X90955880Y-70040404D02*
X91765404Y-70040404D01*
X91860642Y-69992785D01*
X91908261Y-69945166D01*
X91955880Y-69849928D01*
X91955880Y-69659452D01*
X91908261Y-69564214D01*
X91860642Y-69516595D01*
X91765404Y-69468976D01*
X90955880Y-69468976D01*
X91289214Y-68564214D02*
X91955880Y-68564214D01*
X90908261Y-68802309D02*
X91622547Y-69040404D01*
X91622547Y-68421357D01*
X100080380Y-105536904D02*
X100889904Y-105536904D01*
X100985142Y-105489285D01*
X101032761Y-105441666D01*
X101080380Y-105346428D01*
X101080380Y-105155952D01*
X101032761Y-105060714D01*
X100985142Y-105013095D01*
X100889904Y-104965476D01*
X100080380Y-104965476D01*
X100080380Y-104013095D02*
X100080380Y-104489285D01*
X100556571Y-104536904D01*
X100508952Y-104489285D01*
X100461333Y-104394047D01*
X100461333Y-104155952D01*
X100508952Y-104060714D01*
X100556571Y-104013095D01*
X100651809Y-103965476D01*
X100889904Y-103965476D01*
X100985142Y-104013095D01*
X101032761Y-104060714D01*
X101080380Y-104155952D01*
X101080380Y-104394047D01*
X101032761Y-104489285D01*
X100985142Y-104536904D01*
X57086142Y-50037666D02*
X57133761Y-50085285D01*
X57181380Y-50228142D01*
X57181380Y-50323380D01*
X57133761Y-50466238D01*
X57038523Y-50561476D01*
X56943285Y-50609095D01*
X56752809Y-50656714D01*
X56609952Y-50656714D01*
X56419476Y-50609095D01*
X56324238Y-50561476D01*
X56229000Y-50466238D01*
X56181380Y-50323380D01*
X56181380Y-50228142D01*
X56229000Y-50085285D01*
X56276619Y-50037666D01*
X56609952Y-49466238D02*
X56562333Y-49561476D01*
X56514714Y-49609095D01*
X56419476Y-49656714D01*
X56371857Y-49656714D01*
X56276619Y-49609095D01*
X56229000Y-49561476D01*
X56181380Y-49466238D01*
X56181380Y-49275761D01*
X56229000Y-49180523D01*
X56276619Y-49132904D01*
X56371857Y-49085285D01*
X56419476Y-49085285D01*
X56514714Y-49132904D01*
X56562333Y-49180523D01*
X56609952Y-49275761D01*
X56609952Y-49466238D01*
X56657571Y-49561476D01*
X56705190Y-49609095D01*
X56800428Y-49656714D01*
X56990904Y-49656714D01*
X57086142Y-49609095D01*
X57133761Y-49561476D01*
X57181380Y-49466238D01*
X57181380Y-49275761D01*
X57133761Y-49180523D01*
X57086142Y-49132904D01*
X56990904Y-49085285D01*
X56800428Y-49085285D01*
X56705190Y-49132904D01*
X56657571Y-49180523D01*
X56609952Y-49275761D01*
X113474142Y-49656666D02*
X113521761Y-49704285D01*
X113569380Y-49847142D01*
X113569380Y-49942380D01*
X113521761Y-50085238D01*
X113426523Y-50180476D01*
X113331285Y-50228095D01*
X113140809Y-50275714D01*
X112997952Y-50275714D01*
X112807476Y-50228095D01*
X112712238Y-50180476D01*
X112617000Y-50085238D01*
X112569380Y-49942380D01*
X112569380Y-49847142D01*
X112617000Y-49704285D01*
X112664619Y-49656666D01*
X113569380Y-49180476D02*
X113569380Y-48990000D01*
X113521761Y-48894761D01*
X113474142Y-48847142D01*
X113331285Y-48751904D01*
X113140809Y-48704285D01*
X112759857Y-48704285D01*
X112664619Y-48751904D01*
X112617000Y-48799523D01*
X112569380Y-48894761D01*
X112569380Y-49085238D01*
X112617000Y-49180476D01*
X112664619Y-49228095D01*
X112759857Y-49275714D01*
X112997952Y-49275714D01*
X113093190Y-49228095D01*
X113140809Y-49180476D01*
X113188428Y-49085238D01*
X113188428Y-48894761D01*
X113140809Y-48799523D01*
X113093190Y-48751904D01*
X112997952Y-48704285D01*
X85661142Y-50259857D02*
X85708761Y-50307476D01*
X85756380Y-50450333D01*
X85756380Y-50545571D01*
X85708761Y-50688428D01*
X85613523Y-50783666D01*
X85518285Y-50831285D01*
X85327809Y-50878904D01*
X85184952Y-50878904D01*
X84994476Y-50831285D01*
X84899238Y-50783666D01*
X84804000Y-50688428D01*
X84756380Y-50545571D01*
X84756380Y-50450333D01*
X84804000Y-50307476D01*
X84851619Y-50259857D01*
X85756380Y-49307476D02*
X85756380Y-49878904D01*
X85756380Y-49593190D02*
X84756380Y-49593190D01*
X84899238Y-49688428D01*
X84994476Y-49783666D01*
X85042095Y-49878904D01*
X84756380Y-48688428D02*
X84756380Y-48593190D01*
X84804000Y-48497952D01*
X84851619Y-48450333D01*
X84946857Y-48402714D01*
X85137333Y-48355095D01*
X85375428Y-48355095D01*
X85565904Y-48402714D01*
X85661142Y-48450333D01*
X85708761Y-48497952D01*
X85756380Y-48593190D01*
X85756380Y-48688428D01*
X85708761Y-48783666D01*
X85661142Y-48831285D01*
X85565904Y-48878904D01*
X85375428Y-48926523D01*
X85137333Y-48926523D01*
X84946857Y-48878904D01*
X84851619Y-48831285D01*
X84804000Y-48783666D01*
X84756380Y-48688428D01*
X141033142Y-50132857D02*
X141080761Y-50180476D01*
X141128380Y-50323333D01*
X141128380Y-50418571D01*
X141080761Y-50561428D01*
X140985523Y-50656666D01*
X140890285Y-50704285D01*
X140699809Y-50751904D01*
X140556952Y-50751904D01*
X140366476Y-50704285D01*
X140271238Y-50656666D01*
X140176000Y-50561428D01*
X140128380Y-50418571D01*
X140128380Y-50323333D01*
X140176000Y-50180476D01*
X140223619Y-50132857D01*
X141128380Y-49180476D02*
X141128380Y-49751904D01*
X141128380Y-49466190D02*
X140128380Y-49466190D01*
X140271238Y-49561428D01*
X140366476Y-49656666D01*
X140414095Y-49751904D01*
X141128380Y-48228095D02*
X141128380Y-48799523D01*
X141128380Y-48513809D02*
X140128380Y-48513809D01*
X140271238Y-48609047D01*
X140366476Y-48704285D01*
X140414095Y-48799523D01*
M02*
