M48
; DRILL file {KiCad (5.1.2)-2} date 2/28/2020 11:59:45 AM
; FORMAT={-:-/ absolute / inch / decimal}
; #@! TF.CreationDate,2020-02-28T11:59:45-10:00
; #@! TF.GenerationSoftware,Kicad,Pcbnew,(5.1.2)-2
; #@! TF.FileFunction,Plated,1,2,PTH
FMAT,2
INCH
T1C0.0197
T2C0.0315
T3C0.0394
T4C0.0433
T5C0.0472
T6C0.0551
T7C0.0787
%
G90
G05
T1
X1.39Y-2.57
X1.44Y-2.39
X1.5525Y-2.6025
X1.62Y-2.585
X1.6936Y-2.3898
X1.8176Y-2.3599
X2.48Y-2.535
X3.345Y-3.1575
X4.1585Y-2.4852
X4.34Y-3.015
X4.64Y-2.68
X5.98Y-2.92
X6.1752Y-2.7933
X6.2Y-2.635
X6.28Y-1.91
X6.48Y-2.0875
X6.57Y-1.73
X6.615Y-2.77
X6.635Y-3.0325
X6.7025Y-2.915
X6.8175Y-3.03
X6.925Y-2.735
X6.9275Y-2.3975
X7.0175Y-3.03
X7.0725Y-2.92
X7.0825Y-2.715
T2
X5.31Y-3.865
X5.31Y-4.265
X2.59Y-2.5781
X2.59Y-2.775
X6.8331Y-3.88
X7.03Y-3.88
X4.6181Y-3.7075
X4.815Y-3.7075
X3.9Y-2.5781
X3.9Y-2.775
X4.6213Y-4.2025
X4.7Y-4.2025
X3.26Y-1.855
X3.26Y-2.0519
X5.61Y-3.865
X5.61Y-4.265
X3.295Y-1.5366
X3.295Y-1.635
X5.76Y-3.865
X5.76Y-4.265
X2.25Y-1.5366
X2.25Y-1.635
X4.355Y-1.85
X4.355Y-2.0469
X1.3Y-1.764
X1.3Y-2.264
X1.4Y-1.764
X1.4Y-2.264
X1.5Y-1.764
X1.5Y-2.264
X1.6Y-1.764
X1.6Y-2.264
X1.7Y-1.764
X1.7Y-2.264
X1.8Y-1.764
X1.8Y-2.264
X1.9Y-1.764
X1.9Y-2.264
X2.0Y-1.764
X2.0Y-2.264
X2.04Y-3.7
X2.04Y-4.1
X3.07Y-3.975
X3.07Y-4.275
X3.17Y-3.975
X3.17Y-4.275
X3.27Y-3.975
X3.27Y-4.275
X3.37Y-3.975
X3.37Y-4.275
X3.47Y-3.975
X3.47Y-4.275
X3.57Y-3.975
X3.57Y-4.275
X3.67Y-3.975
X3.67Y-4.275
X3.77Y-3.975
X3.77Y-4.275
X3.87Y-3.975
X3.87Y-4.275
X2.55Y-3.7
X2.55Y-4.1
X2.19Y-3.7
X2.19Y-4.1
X2.1Y-3.45
X2.1Y-3.55
X5.8556Y-4.46
X6.0524Y-4.46
X1.85Y-3.425
X1.85Y-3.825
X5.44Y-1.85
X5.44Y-2.0469
X5.16Y-3.865
X5.16Y-4.265
X6.2556Y-4.46
X6.4524Y-4.46
X4.6791Y-3.465
X4.7775Y-3.465
X3.495Y-1.755
X3.495Y-2.255
X3.595Y-1.755
X3.595Y-2.255
X3.695Y-1.755
X3.695Y-2.255
X3.795Y-1.755
X3.795Y-2.255
X3.895Y-1.755
X3.895Y-2.255
X3.995Y-1.755
X3.995Y-2.255
X4.095Y-1.755
X4.095Y-2.255
X4.195Y-1.755
X4.195Y-2.255
X4.41Y-1.5366
X4.41Y-1.635
X6.8766Y-4.16
X6.975Y-4.16
X5.0556Y-4.46
X5.2524Y-4.46
X4.07Y-2.58
X4.07Y-2.88
X4.17Y-2.58
X4.17Y-2.88
X4.27Y-2.58
X4.27Y-2.88
X4.37Y-2.58
X4.37Y-2.88
X4.47Y-2.58
X4.47Y-2.88
X4.57Y-2.58
X4.57Y-2.88
X4.67Y-2.58
X4.67Y-2.88
X4.77Y-2.58
X4.77Y-2.88
X2.7Y-3.7
X2.7Y-4.1
X4.6556Y-4.46
X4.8524Y-4.46
X2.427Y-1.767
X2.427Y-2.267
X2.527Y-1.767
X2.527Y-2.267
X2.627Y-1.767
X2.627Y-2.267
X2.727Y-1.767
X2.727Y-2.267
X2.827Y-1.767
X2.827Y-2.267
X2.927Y-1.767
X2.927Y-2.267
X3.027Y-1.767
X3.027Y-2.267
X3.127Y-1.767
X3.127Y-2.267
X5.4556Y-4.46
X5.6524Y-4.46
X1.145Y-1.5416
X1.145Y-1.64
X5.3204Y-2.525
X5.3204Y-3.525
X5.4204Y-2.525
X5.4204Y-3.525
X5.5204Y-2.525
X5.5204Y-3.525
X5.6204Y-2.525
X5.6204Y-3.525
X5.7204Y-2.525
X5.7204Y-3.525
X5.8204Y-2.525
X5.8204Y-3.525
X5.9204Y-2.525
X5.9204Y-3.525
X6.0204Y-2.525
X6.0204Y-3.525
X6.1204Y-2.525
X6.1204Y-3.525
X6.2204Y-2.525
X6.2204Y-3.525
X6.3204Y-2.525
X6.3204Y-3.525
X6.4204Y-2.525
X6.4204Y-3.525
X6.5204Y-2.525
X6.5204Y-3.525
X6.6204Y-2.525
X6.6204Y-3.525
X6.7204Y-2.525
X6.7204Y-3.525
X6.8204Y-2.525
X6.8204Y-3.525
X6.9204Y-2.525
X6.9204Y-3.525
X7.0204Y-2.525
X7.0204Y-3.525
X7.1204Y-2.525
X7.1204Y-3.525
X2.375Y-3.45
X2.375Y-3.85
X2.135Y-1.865
X2.135Y-2.0619
X5.46Y-3.865
X5.46Y-4.265
X2.97Y-3.8475
X3.37Y-3.8475
X4.5975Y-1.755
X4.5975Y-2.255
X4.6975Y-1.755
X4.6975Y-2.255
X4.7975Y-1.755
X4.7975Y-2.255
X4.8975Y-1.755
X4.8975Y-2.255
X4.9975Y-1.755
X4.9975Y-2.255
X5.0975Y-1.755
X5.0975Y-2.255
X5.1975Y-1.755
X5.1975Y-2.255
X5.2975Y-1.755
X5.2975Y-2.255
X2.78Y-2.58
X2.78Y-2.88
X2.88Y-2.58
X2.88Y-2.88
X2.98Y-2.58
X2.98Y-2.88
X3.08Y-2.58
X3.08Y-2.88
X3.18Y-2.58
X3.18Y-2.88
X3.28Y-2.58
X3.28Y-2.88
X3.38Y-2.58
X3.38Y-2.88
X3.48Y-2.58
X3.48Y-2.88
X4.9063Y-4.205
X4.985Y-4.205
X2.6Y-3.45
X2.6Y-3.55
T3
X6.175Y-1.35
X6.175Y-2.25
X6.275Y-1.35
X6.275Y-2.25
X6.375Y-1.35
X6.375Y-2.25
X6.475Y-1.35
X6.475Y-2.25
X6.575Y-1.35
X6.575Y-2.25
X6.675Y-1.35
X6.675Y-2.25
X6.775Y-1.35
X6.775Y-2.25
X6.875Y-1.35
X6.875Y-2.25
X4.7975Y-1.6175
X4.8975Y-1.6175
X4.9975Y-1.6175
X5.0975Y-1.6175
X2.8626Y-3.03
X2.8626Y-3.73
X4.4374Y-3.03
X4.4374Y-3.73
X6.0925Y-3.9
X6.0925Y-4.0
X6.0925Y-4.1
X6.0925Y-4.2
X6.0925Y-4.3
X6.1925Y-3.9
X6.1925Y-4.0
X6.1925Y-4.1
X6.1925Y-4.2
X6.1925Y-4.3
X3.69Y-1.618
X3.79Y-1.618
X3.89Y-1.618
X3.99Y-1.618
X2.625Y-1.6142
X2.725Y-1.6142
X2.825Y-1.6142
X2.925Y-1.6142
X1.5Y-1.614
X1.6Y-1.614
X1.7Y-1.614
X1.8Y-1.614
X6.4925Y-3.9275
X6.4925Y-4.0275
X6.4925Y-4.1275
X6.4925Y-4.2275
X6.5925Y-3.9275
X6.5925Y-4.0275
X6.5925Y-4.1275
X6.5925Y-4.2275
T4
X2.05Y-4.25
X2.15Y-4.25
X2.25Y-4.25
X2.55Y-4.25
X2.65Y-4.25
X2.75Y-4.25
T5
X2.55Y-1.3386
X2.7Y-1.3386
X2.85Y-1.3386
X3.0Y-1.3386
X3.615Y-1.3386
X3.765Y-1.3386
X3.915Y-1.3386
X4.065Y-1.3386
X1.42Y-1.3386
X1.57Y-1.3386
X1.72Y-1.3386
X1.87Y-1.3386
X4.725Y-1.3386
X4.875Y-1.3386
X5.025Y-1.3386
X5.175Y-1.3386
T6
X3.8524Y-4.7475
X4.0524Y-4.7475
X5.4524Y-4.7475
X5.6524Y-4.7475
X3.0524Y-4.7475
X3.2524Y-4.7475
X4.2524Y-4.7475
X4.4524Y-4.7475
X2.6524Y-4.7475
X2.8524Y-4.7475
X1.2625Y-3.6225
X1.2625Y-3.8225
X5.8524Y-4.7475
X6.0524Y-4.7475
X6.2524Y-4.7475
X6.4524Y-4.7475
X4.6524Y-4.7475
X4.8524Y-4.7475
X5.0524Y-4.7475
X5.2524Y-4.7475
X3.4524Y-4.7475
X3.6524Y-4.7475
T7
X1.6853Y-4.8075
X2.0475Y-4.8075
X1.2878Y-4.405
X1.65Y-4.405
T0
M30
